<svg width="467" height="262" viewBox="0 0 467 262" fill="none" xmlns="http://www.w3.org/2000/svg">
<g clip-path="url(#clip0_47_4157)">
<rect width="467" height="262" fill="white"/>
<rect width="467" height="262" fill="url(#paint0_angular_47_4157)"/>
<path fill-rule="evenodd" clip-rule="evenodd" d="M200.707 88.5743C200.304 88.5743 200.01 89.1301 199.832 90.2413C199.338 93.0188 198.506 95.5878 197.339 97.9489C196.305 99.9868 194.823 101.596 192.892 102.775C190.96 103.956 188.826 104.546 186.492 104.546C181.954 104.546 178.316 102.696 175.577 98.9914C172.432 94.7324 170.86 88.7373 170.86 81.0044C170.86 72.3475 172.768 65.7735 176.587 61.2835C178.697 58.783 181.574 57.5325 185.211 57.5325C189.928 57.5325 193.387 59.3849 195.587 63.0876C196.665 64.8939 197.496 67.6484 198.08 71.3516C198.215 72.2323 198.506 72.6712 198.956 72.6712C199.18 72.6712 199.36 72.6021 199.495 72.4627C199.629 72.3245 199.697 71.8153 199.697 70.9357C199.697 64.8248 199.944 60.6574 200.438 58.4351C200.527 58.0192 200.573 57.718 200.573 57.5325C200.573 57.1627 200.393 56.9772 200.034 56.9772C199.674 56.9772 199.202 57.6264 198.618 58.9213C198.26 59.6626 197.878 60.0324 197.473 60.0324C196.979 60.0324 196.238 59.7317 195.25 59.1303C193.229 57.927 191.533 57.1276 190.163 56.7347C189.083 56.4247 187.704 56.2409 186.05 56.175C186.96 56.068 187.88 56 188.816 56H162.58H142.561L134.445 64.365L119 80.2845H140.547C140.842 78.1747 142.587 76.5484 144.715 76.5484C147.051 76.5484 148.944 78.4996 148.944 80.9067C148.944 83.3144 147.051 85.2656 144.715 85.2656C142.587 85.2656 140.842 83.6393 140.547 81.5295H119.001L134.445 97.4485L142.561 105.813H162.58H183.727C184.54 105.892 185.371 105.935 186.222 105.935C186.726 105.935 187.193 105.85 187.682 105.813H188.816C188.581 105.813 188.352 105.784 188.118 105.777C191.838 105.417 195.112 104.056 197.878 101.56C198.506 102.024 199.135 103.018 199.765 104.546C200.034 105.242 200.347 105.588 200.707 105.588C201.066 105.588 201.246 105.286 201.246 104.685V104.06C201.246 102.857 201.202 101.827 201.112 100.969C201.022 100.114 200.977 99.5467 200.977 99.2691C200.977 96.7692 201.066 94.1771 201.246 91.4917C201.336 90.1491 201.382 89.5241 201.382 89.6163C201.382 88.9211 201.156 88.5743 200.707 88.5743" fill="#1D2B28"/>
<mask id="mask0_47_4157" style="mask-type:luminance" maskUnits="userSpaceOnUse" x="203" y="56" width="16" height="50">
<path fill-rule="evenodd" clip-rule="evenodd" d="M203.382 56.6227H218.069V105.935H203.382V56.6227Z" fill="white"/>
</mask>
<g mask="url(#mask0_47_4157)">
<path fill-rule="evenodd" clip-rule="evenodd" d="M218.069 105.303C218.069 105.72 217.776 105.929 217.194 105.929H216.385C216.295 105.929 215.105 105.881 212.814 105.79H210.726C210.366 105.79 208.569 105.825 205.335 105.894C205.066 105.917 204.796 105.929 204.527 105.929C203.854 105.973 203.517 105.78 203.517 105.342C203.517 105.038 203.763 104.887 204.257 104.887H206.009C207.266 104.887 207.896 104.609 207.896 104.054C207.94 103.776 207.963 101.97 207.963 98.6367V63.2887C207.963 61.7617 207.918 60.9288 207.829 60.7889C207.693 60.419 207.333 60.2336 206.751 60.2336H206.212H204.325C203.696 60.2336 203.382 60.0371 203.382 59.6443C203.382 59.2947 203.943 59.0967 205.066 59.0533C207.222 58.915 209.22 58.4058 211.062 57.5263L212.477 56.8311L213.016 56.6226C213.375 57.9669 213.533 60.0031 213.488 62.7335V67.6641V101.692C213.488 103.081 213.51 103.903 213.555 104.158C213.6 104.413 213.758 104.586 214.027 104.679C214.072 104.725 214.903 104.772 216.519 104.816C217.552 104.816 218.069 104.98 218.069 105.303" fill="#1D2B28"/>
</g>
<mask id="mask1_47_4157" style="mask-type:luminance" maskUnits="userSpaceOnUse" x="220" y="73" width="29" height="33">
<path fill-rule="evenodd" clip-rule="evenodd" d="M220.069 73.991H248.3V105.935H220.069V73.991Z" fill="white"/>
</mask>
<g mask="url(#mask1_47_4157)">
<path fill-rule="evenodd" clip-rule="evenodd" d="M242.169 90.0323C242.169 84.9403 241.404 80.9825 239.878 78.1578C238.755 76.0738 236.868 75.033 234.218 75.033C231.702 75.033 229.738 76.3636 228.322 79.0259C226.908 81.6887 226.201 85.3793 226.201 90.1014C226.201 94.7786 226.953 98.4247 228.458 101.04C229.962 103.656 232.062 104.962 234.758 104.962C236.822 104.962 238.35 104.154 239.339 102.533C241.225 99.4777 242.169 95.3097 242.169 90.0323M248.3 90.1014C248.3 94.5931 246.974 98.3545 244.325 101.387C241.673 104.419 238.372 105.935 234.421 105.935C230.332 105.935 226.918 104.419 224.179 101.387C221.439 98.3545 220.069 94.5931 220.069 90.1014C220.069 85.4731 221.405 81.6306 224.078 78.5748C226.75 75.518 230.085 73.991 234.083 73.991C238.126 73.991 241.505 75.5306 244.224 78.6089C246.941 81.6887 248.3 85.5192 248.3 90.1014" fill="#1D2B28"/>
</g>
<path fill-rule="evenodd" clip-rule="evenodd" d="M270.311 101.005C270.311 101.422 269.748 102.163 268.626 103.227C266.694 105.033 264.403 105.935 261.753 105.935C259.283 105.935 257.418 105.289 256.161 103.995C255.443 103.258 255.083 101.086 255.083 97.4831V76.8365C255.038 76.3745 254.791 76.121 254.342 76.0738H251.782C250.793 76.0738 250.3 75.9124 250.3 75.5887C250.3 75.265 250.545 75.079 251.035 75.0329C254.516 74.7053 257.238 72.9248 259.203 69.6934C259.47 69.272 259.805 69.0608 260.207 69.0608C260.519 69.0608 260.675 69.2232 260.675 69.5469V69.8246V71.0048C260.675 72.9494 260.764 74.1999 260.944 74.7552C261.349 74.8491 262.023 74.8935 262.966 74.8935C265.436 74.8935 267.076 74.7783 267.884 74.5467C268.064 74.5006 268.222 74.4776 268.356 74.4776C268.715 74.4776 268.895 74.6768 268.895 75.0762C268.895 75.7418 267.076 76.0738 263.438 76.0738H260.675V88.9211C260.675 95.4035 260.832 99.4666 261.147 101.109C261.461 102.752 262.495 103.574 264.247 103.574C265.728 103.574 267.39 102.719 269.231 101.005C269.411 100.774 269.613 100.658 269.839 100.658C270.152 100.658 270.311 100.774 270.311 101.005" fill="#1D2B28"/>
<path fill-rule="evenodd" clip-rule="evenodd" d="M291.58 83.366C291.4 77.8109 289.469 75.0328 285.785 75.0328C282.148 75.0328 279.879 77.8109 278.981 83.366H291.58ZM297.442 97.5318C297.442 97.9955 297.094 98.818 296.398 99.9977C295.7 101.178 294.993 102.14 294.275 102.88C292.344 104.918 289.761 105.935 286.527 105.935C282.485 105.935 279.105 104.431 276.388 101.422C273.669 98.4125 272.311 94.6852 272.311 90.2412C272.311 85.6124 273.602 81.7457 276.185 78.6438C278.767 75.5426 281.99 73.9914 285.854 73.9914C289.042 73.9914 291.716 74.9516 293.872 76.8732C296.027 78.7942 297.173 81.2606 297.307 84.2686C295.87 84.5012 293.961 84.5934 291.58 84.5462H286.863C286.549 84.5462 283.854 84.6165 278.779 84.7537C278.554 86.2779 278.442 87.7304 278.442 89.1136C278.442 93.7732 279.306 97.3585 281.036 99.8732C282.765 102.387 285.202 103.644 288.346 103.644C290.142 103.644 291.58 103.227 292.658 102.393C293.736 101.56 294.904 99.9626 296.161 97.6026C296.34 97.2323 296.589 97.0468 296.903 97.0468C297.262 97.0468 297.442 97.2092 297.442 97.5318V97.5318Z" fill="#1D2B28"/>
<path fill-rule="evenodd" clip-rule="evenodd" d="M321.742 79.5465C321.742 80.6115 321.428 81.4911 320.8 82.1846C320.17 82.8798 319.361 83.2266 318.373 83.2266C317.564 83.2266 316.892 82.9841 316.352 82.4974C315.814 82.0112 315.544 81.3989 315.544 80.6576C315.544 80.0101 315.747 79.4532 316.15 78.9912C316.555 78.5275 316.756 78.2038 316.756 78.0183C316.756 77.3231 316.262 76.9764 315.275 76.9764C314.017 76.9764 312.938 77.7824 312.041 79.3945C311.006 81.2837 310.491 84.786 310.491 89.8983V103.58C310.491 104.133 310.682 104.479 311.064 104.617C311.444 104.755 312.602 104.847 314.533 104.893C315.027 104.987 315.275 105.171 315.275 105.449C315.275 105.773 314.981 105.935 314.399 105.935H311.502H306.381H303.551H301.328C300.609 105.935 300.25 105.796 300.25 105.518C300.25 105.24 300.541 105.101 301.126 105.101H302.069C303.596 105.101 304.494 104.916 304.763 104.543C304.854 104.357 304.899 103.496 304.899 101.96V82.7657C304.899 80.2077 304.528 78.7295 303.787 78.3338C303.046 77.9393 301.867 77.7171 300.25 77.671C299.711 77.671 299.442 77.5086 299.442 77.1849C299.442 76.8611 299.665 76.6982 300.115 76.6982H300.587C301.26 76.6982 301.934 76.7338 302.607 76.803C303.282 76.8716 303.574 76.9072 303.484 76.9072C305.145 76.9072 306.988 76.4205 309.008 75.4493L309.885 75.0317L310.424 74.8232C310.603 75.9344 310.693 77.0455 310.693 78.1577V79.5465C312.13 76.3975 314.15 74.8232 316.756 74.8232C318.194 74.8232 319.384 75.2759 320.328 76.178C321.27 77.0806 321.742 78.2038 321.742 79.5465" fill="#1D2B28"/>
<mask id="mask2_47_4157" style="mask-type:luminance" maskUnits="userSpaceOnUse" x="323" y="73" width="26" height="33">
<path fill-rule="evenodd" clip-rule="evenodd" d="M323.742 73.9914H348.873V105.935H323.742V73.9914Z" fill="white"/>
</mask>
<g mask="url(#mask2_47_4157)">
<path fill-rule="evenodd" clip-rule="evenodd" d="M343.012 83.366C342.832 77.8109 340.9 75.0328 337.217 75.0328C333.579 75.0328 331.311 77.8109 330.413 83.366H343.012ZM347.83 99.9977C347.131 101.178 346.424 102.14 345.706 102.88C343.775 104.918 341.192 105.935 337.959 105.935C333.916 105.935 330.536 104.431 327.819 101.422C325.1 98.4125 323.742 94.6852 323.742 90.2412C323.742 85.6124 325.033 81.7457 327.617 78.6438C330.198 75.5426 333.422 73.9914 337.285 73.9914C340.473 73.9914 343.147 74.9516 345.303 76.8732C347.459 78.7942 348.604 81.2606 348.739 84.2686C347.301 84.5012 345.392 84.5934 343.012 84.5462H338.295C337.981 84.5462 335.286 84.6165 330.21 84.7537C329.985 86.2779 329.874 87.7304 329.874 89.1136C329.874 93.7732 330.737 97.3585 332.467 99.8732C334.196 102.387 336.634 103.644 339.778 103.644C341.574 103.644 343.012 103.227 344.09 102.393C345.168 101.56 346.335 99.9626 347.593 97.6026C347.772 97.2323 348.02 97.0468 348.335 97.0468C348.693 97.0468 348.873 97.2092 348.873 97.5318C348.873 97.9955 348.525 98.818 347.83 99.9977Z" fill="#1D2B28"/>
</g>
<rect x="173" y="137" width="185" height="13" fill="#1DF36C"/>
<path d="M109.227 143V127.16H111.185V141.141H118.533V143H109.227ZM117.861 132.11L117.982 131.197C118.29 131.219 118.521 131.16 118.675 131.021C118.829 130.882 118.928 130.691 118.972 130.449C119.016 130.207 119.023 129.939 118.994 129.646H117.861V127.16H120.017V129.976C120.017 130.746 119.826 131.325 119.445 131.714C119.071 132.103 118.543 132.235 117.861 132.11ZM125.79 143.33C124.903 143.33 124.158 143.169 123.557 142.846C122.963 142.516 122.512 142.083 122.204 141.548C121.903 141.013 121.753 140.426 121.753 139.788C121.753 139.165 121.87 138.626 122.105 138.171C122.347 137.709 122.684 137.328 123.117 137.027C123.55 136.719 124.067 136.477 124.668 136.301C125.233 136.147 125.863 136.015 126.56 135.905C127.264 135.788 127.975 135.681 128.694 135.586C129.413 135.491 130.084 135.399 130.707 135.311L130.003 135.718C130.025 134.662 129.812 133.881 129.365 133.375C128.925 132.869 128.162 132.616 127.077 132.616C126.358 132.616 125.728 132.781 125.185 133.111C124.65 133.434 124.272 133.962 124.052 134.695L122.193 134.134C122.479 133.093 123.033 132.275 123.854 131.681C124.675 131.087 125.757 130.79 127.099 130.79C128.177 130.79 129.101 130.984 129.871 131.373C130.648 131.754 131.206 132.334 131.543 133.111C131.712 133.478 131.818 133.877 131.862 134.31C131.906 134.735 131.928 135.183 131.928 135.652V143H130.19V140.151L130.597 140.415C130.15 141.376 129.523 142.102 128.716 142.593C127.917 143.084 126.941 143.33 125.79 143.33ZM126.087 141.691C126.791 141.691 127.4 141.566 127.913 141.317C128.434 141.06 128.852 140.727 129.167 140.316C129.482 139.898 129.688 139.443 129.783 138.952C129.893 138.585 129.952 138.178 129.959 137.731C129.974 137.276 129.981 136.928 129.981 136.686L130.663 136.983C130.025 137.071 129.398 137.155 128.782 137.236C128.166 137.317 127.583 137.405 127.033 137.5C126.483 137.588 125.988 137.694 125.548 137.819C125.225 137.922 124.921 138.054 124.635 138.215C124.356 138.376 124.129 138.585 123.953 138.842C123.784 139.091 123.7 139.403 123.7 139.777C123.7 140.1 123.781 140.408 123.942 140.701C124.111 140.994 124.367 141.233 124.712 141.416C125.064 141.599 125.522 141.691 126.087 141.691ZM139.793 143.33C138.59 143.33 137.567 143.062 136.724 142.527C135.888 141.984 135.25 141.24 134.81 140.294C134.37 139.348 134.143 138.27 134.128 137.06C134.143 135.821 134.374 134.732 134.821 133.793C135.276 132.847 135.925 132.11 136.768 131.582C137.611 131.054 138.627 130.79 139.815 130.79C141.069 130.79 142.147 131.098 143.049 131.714C143.958 132.33 144.567 133.173 144.875 134.244L142.939 134.827C142.69 134.138 142.283 133.602 141.718 133.221C141.161 132.84 140.519 132.649 139.793 132.649C138.979 132.649 138.308 132.84 137.78 133.221C137.252 133.595 136.86 134.116 136.603 134.783C136.346 135.443 136.214 136.202 136.207 137.06C136.222 138.38 136.526 139.447 137.12 140.261C137.721 141.068 138.612 141.471 139.793 141.471C140.57 141.471 141.216 141.295 141.729 140.943C142.242 140.584 142.631 140.067 142.895 139.392L144.875 139.909C144.464 141.016 143.823 141.863 142.95 142.45C142.077 143.037 141.025 143.33 139.793 143.33ZM153.753 143C153.049 143.139 152.352 143.194 151.663 143.165C150.981 143.143 150.372 143.007 149.837 142.758C149.302 142.501 148.895 142.105 148.616 141.57C148.381 141.101 148.253 140.628 148.231 140.151C148.216 139.667 148.209 139.121 148.209 138.512V127.82H150.167V138.424C150.167 138.908 150.171 139.322 150.178 139.667C150.193 140.012 150.27 140.309 150.409 140.558C150.673 141.027 151.091 141.302 151.663 141.383C152.242 141.464 152.939 141.442 153.753 141.317V143ZM145.8 132.737V131.12H153.753V132.737H145.8ZM160.819 143.33C159.653 143.33 158.634 143.073 157.761 142.56C156.896 142.039 156.221 141.317 155.737 140.393C155.253 139.462 155.011 138.376 155.011 137.137C155.011 135.839 155.249 134.717 155.726 133.771C156.203 132.818 156.866 132.084 157.717 131.571C158.575 131.05 159.58 130.79 160.731 130.79C161.926 130.79 162.942 131.065 163.778 131.615C164.621 132.165 165.252 132.95 165.67 133.969C166.095 134.988 166.279 136.202 166.22 137.61H164.24V136.906C164.218 135.447 163.921 134.358 163.349 133.639C162.777 132.913 161.926 132.55 160.797 132.55C159.587 132.55 158.667 132.939 158.036 133.716C157.405 134.493 157.09 135.608 157.09 137.06C157.09 138.461 157.405 139.546 158.036 140.316C158.667 141.086 159.565 141.471 160.731 141.471C161.516 141.471 162.198 141.291 162.777 140.932C163.356 140.573 163.811 140.056 164.141 139.381L166.022 140.03C165.56 141.079 164.863 141.893 163.932 142.472C163.008 143.044 161.97 143.33 160.819 143.33ZM156.43 137.61V136.037H165.208V137.61H156.43ZM181.29 143V137.28C181.29 136.906 181.265 136.492 181.213 136.037C181.162 135.582 181.041 135.146 180.85 134.728C180.667 134.303 180.388 133.954 180.014 133.683C179.648 133.412 179.149 133.276 178.518 133.276C178.181 133.276 177.847 133.331 177.517 133.441C177.187 133.551 176.887 133.742 176.615 134.013C176.351 134.277 176.139 134.644 175.977 135.113C175.816 135.575 175.735 136.169 175.735 136.895L174.162 136.224C174.162 135.212 174.357 134.295 174.745 133.474C175.141 132.653 175.721 132 176.483 131.516C177.246 131.025 178.185 130.779 179.299 130.779C180.179 130.779 180.905 130.926 181.477 131.219C182.049 131.512 182.504 131.886 182.841 132.341C183.179 132.796 183.428 133.28 183.589 133.793C183.751 134.306 183.853 134.794 183.897 135.256C183.949 135.711 183.974 136.081 183.974 136.367V143H181.29ZM173.051 143V131.12H175.416V134.805H175.735V143H173.051ZM191.898 143.33C190.71 143.33 189.673 143.062 188.785 142.527C187.898 141.992 187.209 141.255 186.717 140.316C186.233 139.37 185.991 138.285 185.991 137.06C185.991 135.813 186.241 134.721 186.739 133.782C187.238 132.843 187.931 132.11 188.818 131.582C189.706 131.054 190.732 130.79 191.898 130.79C193.094 130.79 194.135 131.058 195.022 131.593C195.91 132.128 196.599 132.869 197.09 133.815C197.582 134.754 197.827 135.835 197.827 137.06C197.827 138.292 197.578 139.381 197.079 140.327C196.588 141.266 195.899 142.003 195.011 142.538C194.124 143.066 193.086 143.33 191.898 143.33ZM191.898 140.844C192.954 140.844 193.739 140.492 194.252 139.788C194.766 139.084 195.022 138.175 195.022 137.06C195.022 135.909 194.762 134.992 194.241 134.31C193.721 133.621 192.94 133.276 191.898 133.276C191.187 133.276 190.6 133.437 190.138 133.76C189.684 134.075 189.346 134.519 189.126 135.091C188.906 135.656 188.796 136.312 188.796 137.06C188.796 138.211 189.057 139.132 189.577 139.821C190.105 140.503 190.879 140.844 191.898 140.844ZM207.214 143C206.429 143.147 205.659 143.209 204.904 143.187C204.156 143.172 203.485 143.037 202.891 142.78C202.297 142.516 201.846 142.102 201.538 141.537C201.267 141.024 201.124 140.499 201.109 139.964C201.094 139.429 201.087 138.824 201.087 138.149V127.82H203.727V137.995C203.727 138.472 203.731 138.89 203.738 139.249C203.753 139.608 203.83 139.902 203.969 140.129C204.233 140.569 204.655 140.815 205.234 140.866C205.813 140.917 206.473 140.888 207.214 140.778V143ZM198.931 133.199V131.12H207.214V133.199H198.931ZM213.091 143.33C212.233 143.33 211.507 143.169 210.913 142.846C210.319 142.516 209.868 142.08 209.56 141.537C209.259 140.994 209.109 140.397 209.109 139.744C209.109 139.172 209.204 138.659 209.395 138.204C209.585 137.742 209.879 137.346 210.275 137.016C210.671 136.679 211.184 136.404 211.815 136.191C212.291 136.037 212.849 135.898 213.487 135.773C214.132 135.648 214.829 135.535 215.577 135.432C216.332 135.322 217.12 135.205 217.942 135.08L216.996 135.619C217.003 134.798 216.82 134.193 216.446 133.804C216.072 133.415 215.441 133.221 214.554 133.221C214.018 133.221 213.501 133.346 213.003 133.595C212.504 133.844 212.156 134.273 211.958 134.882L209.538 134.123C209.831 133.118 210.388 132.312 211.21 131.703C212.038 131.094 213.153 130.79 214.554 130.79C215.61 130.79 216.537 130.962 217.337 131.307C218.143 131.652 218.741 132.216 219.13 133.001C219.342 133.419 219.471 133.848 219.515 134.288C219.559 134.721 219.581 135.194 219.581 135.707V143H217.26V140.426L217.645 140.844C217.109 141.702 216.482 142.333 215.764 142.736C215.052 143.132 214.161 143.33 213.091 143.33ZM213.619 141.218C214.22 141.218 214.733 141.112 215.159 140.899C215.584 140.686 215.921 140.426 216.171 140.118C216.427 139.81 216.6 139.52 216.688 139.249C216.827 138.912 216.904 138.527 216.919 138.094C216.941 137.654 216.952 137.298 216.952 137.027L217.766 137.269C216.966 137.394 216.281 137.504 215.709 137.599C215.137 137.694 214.645 137.786 214.235 137.874C213.824 137.955 213.461 138.046 213.146 138.149C212.838 138.259 212.577 138.387 212.365 138.534C212.152 138.681 211.987 138.849 211.87 139.04C211.76 139.231 211.705 139.454 211.705 139.711C211.705 140.004 211.778 140.265 211.925 140.492C212.071 140.712 212.284 140.888 212.563 141.02C212.849 141.152 213.201 141.218 213.619 141.218ZM222.444 143V131.12H224.787V134.013L224.501 133.639C224.648 133.243 224.842 132.884 225.084 132.561C225.334 132.231 225.631 131.96 225.975 131.747C226.269 131.549 226.591 131.395 226.943 131.285C227.303 131.168 227.669 131.098 228.043 131.076C228.417 131.047 228.78 131.061 229.132 131.12V133.595C228.78 133.492 228.373 133.459 227.911 133.496C227.457 133.533 227.046 133.661 226.679 133.881C226.313 134.079 226.012 134.332 225.777 134.64C225.55 134.948 225.381 135.3 225.271 135.696C225.161 136.085 225.106 136.506 225.106 136.961V143H222.444ZM231.451 129.316V126.885H234.102V129.316H231.451ZM231.451 143V131.12H234.102V143H231.451ZM243.898 129.415H241.885L243.579 125.345H245.592L243.898 129.415ZM242.798 143.33C241.596 143.33 240.54 143.07 239.63 142.549C238.721 142.028 238.01 141.306 237.496 140.382C236.99 139.458 236.737 138.395 236.737 137.192C236.737 135.894 236.987 134.768 237.485 133.815C237.984 132.854 238.677 132.11 239.564 131.582C240.452 131.054 241.478 130.79 242.644 130.79C243.876 130.79 244.921 131.08 245.779 131.659C246.645 132.231 247.286 133.041 247.704 134.09C248.122 135.139 248.28 136.374 248.177 137.797H245.548V136.829C245.541 135.538 245.314 134.596 244.866 134.002C244.419 133.408 243.715 133.111 242.754 133.111C241.669 133.111 240.862 133.448 240.334 134.123C239.806 134.79 239.542 135.769 239.542 137.06C239.542 138.263 239.806 139.194 240.334 139.854C240.862 140.514 241.632 140.844 242.644 140.844C243.297 140.844 243.858 140.701 244.327 140.415C244.804 140.122 245.171 139.7 245.427 139.15L248.045 139.942C247.591 141.013 246.887 141.845 245.933 142.439C244.987 143.033 243.942 143.33 242.798 143.33ZM238.706 137.797V135.795H246.879V137.797H238.706ZM259.623 143.33C258.156 143.33 256.965 143 256.048 142.34C255.131 141.68 254.574 140.752 254.376 139.557L257.082 139.139C257.221 139.726 257.529 140.188 258.006 140.525C258.483 140.862 259.084 141.031 259.81 141.031C260.448 141.031 260.939 140.906 261.284 140.657C261.636 140.4 261.812 140.052 261.812 139.612C261.812 139.341 261.746 139.124 261.614 138.963C261.489 138.794 261.211 138.633 260.778 138.479C260.345 138.325 259.682 138.131 258.787 137.896C257.79 137.632 256.998 137.35 256.411 137.049C255.824 136.741 255.403 136.378 255.146 135.96C254.889 135.542 254.761 135.036 254.761 134.442C254.761 133.701 254.955 133.056 255.344 132.506C255.733 131.956 256.275 131.534 256.972 131.241C257.669 130.94 258.49 130.79 259.436 130.79C260.36 130.79 261.178 130.933 261.889 131.219C262.608 131.505 263.187 131.912 263.627 132.44C264.067 132.968 264.338 133.588 264.441 134.299L261.735 134.783C261.669 134.277 261.438 133.877 261.042 133.584C260.653 133.291 260.133 133.126 259.48 133.089C258.857 133.052 258.354 133.148 257.973 133.375C257.592 133.595 257.401 133.907 257.401 134.31C257.401 134.537 257.478 134.732 257.632 134.893C257.786 135.054 258.094 135.216 258.556 135.377C259.025 135.538 259.722 135.736 260.646 135.971C261.592 136.213 262.347 136.492 262.912 136.807C263.484 137.115 263.895 137.485 264.144 137.918C264.401 138.351 264.529 138.875 264.529 139.491C264.529 140.686 264.093 141.625 263.22 142.307C262.355 142.989 261.156 143.33 259.623 143.33ZM267.158 129.316V126.885H269.809V129.316H267.158ZM267.158 143V131.12H269.809V143H267.158ZM287.371 143V135.784C287.371 134.97 287.17 134.336 286.766 133.881C286.363 133.419 285.817 133.188 285.127 133.188C284.702 133.188 284.321 133.287 283.983 133.485C283.646 133.676 283.378 133.962 283.18 134.343C282.982 134.717 282.883 135.164 282.883 135.685L281.706 134.992C281.699 134.171 281.882 133.448 282.256 132.825C282.638 132.194 283.151 131.703 283.796 131.351C284.442 130.999 285.16 130.823 285.952 130.823C287.265 130.823 288.27 131.219 288.966 132.011C289.67 132.796 290.022 133.83 290.022 135.113V143H287.371ZM273.082 143V131.12H275.425V134.805H275.755V143H273.082ZM280.243 143V135.817C280.243 134.988 280.042 134.343 279.638 133.881C279.235 133.419 278.685 133.188 277.988 133.188C277.314 133.188 276.771 133.419 276.36 133.881C275.957 134.343 275.755 134.944 275.755 135.685L274.567 134.893C274.567 134.123 274.758 133.43 275.139 132.814C275.521 132.198 276.034 131.714 276.679 131.362C277.332 131.003 278.062 130.823 278.868 130.823C279.756 130.823 280.496 131.014 281.09 131.395C281.692 131.769 282.139 132.282 282.432 132.935C282.733 133.58 282.883 134.31 282.883 135.124V143H280.243ZM298.601 143.33C297.442 143.33 296.47 143.055 295.686 142.505C294.901 141.955 294.311 141.207 293.915 140.261C293.519 139.308 293.321 138.241 293.321 137.06C293.321 135.865 293.519 134.794 293.915 133.848C294.311 132.902 294.89 132.158 295.653 131.615C296.423 131.065 297.372 130.79 298.502 130.79C299.624 130.79 300.595 131.065 301.417 131.615C302.245 132.158 302.887 132.902 303.342 133.848C303.796 134.787 304.024 135.857 304.024 137.06C304.024 138.248 303.8 139.315 303.353 140.261C302.905 141.207 302.275 141.955 301.461 142.505C300.647 143.055 299.693 143.33 298.601 143.33ZM292.87 148.28V131.12H295.213V139.458H295.543V148.28H292.87ZM298.194 140.954C298.883 140.954 299.451 140.782 299.899 140.437C300.346 140.092 300.676 139.627 300.889 139.04C301.109 138.446 301.219 137.786 301.219 137.06C301.219 136.341 301.109 135.689 300.889 135.102C300.669 134.508 300.328 134.039 299.866 133.694C299.404 133.342 298.817 133.166 298.106 133.166C297.431 133.166 296.881 133.331 296.456 133.661C296.03 133.984 295.715 134.438 295.51 135.025C295.312 135.604 295.213 136.283 295.213 137.06C295.213 137.83 295.312 138.508 295.51 139.095C295.715 139.682 296.034 140.14 296.467 140.47C296.907 140.793 297.482 140.954 298.194 140.954ZM306.668 143V126.83H309.319V143H306.668ZM312.834 129.316V126.885H315.485V129.316H312.834ZM312.834 143V131.12H315.485V143H312.834ZM319.814 143V130.933C319.814 130.632 319.825 130.302 319.847 129.943C319.869 129.576 319.932 129.213 320.034 128.854C320.137 128.495 320.324 128.168 320.595 127.875C320.933 127.501 321.296 127.244 321.684 127.105C322.08 126.958 322.469 126.878 322.85 126.863C323.232 126.841 323.565 126.83 323.851 126.83H325.336V128.986H323.961C323.455 128.986 323.078 129.114 322.828 129.371C322.586 129.62 322.465 129.95 322.465 130.361V143H319.814ZM317.9 133.199V131.12H325.336V133.199H317.9ZM327.646 129.316V126.885H330.297V129.316H327.646ZM327.646 143V131.12H330.297V143H327.646ZM340.105 129.415H338.092L339.786 125.345H341.799L340.105 129.415ZM339.005 143.33C337.803 143.33 336.747 143.07 335.837 142.549C334.928 142.028 334.217 141.306 333.703 140.382C333.197 139.458 332.944 138.395 332.944 137.192C332.944 135.894 333.194 134.768 333.692 133.815C334.191 132.854 334.884 132.11 335.771 131.582C336.659 131.054 337.685 130.79 338.851 130.79C340.083 130.79 341.128 131.08 341.986 131.659C342.852 132.231 343.493 133.041 343.911 134.09C344.329 135.139 344.487 136.374 344.384 137.797H341.755V136.829C341.748 135.538 341.521 134.596 341.073 134.002C340.626 133.408 339.922 133.111 338.961 133.111C337.876 133.111 337.069 133.448 336.541 134.123C336.013 134.79 335.749 135.769 335.749 137.06C335.749 138.263 336.013 139.194 336.541 139.854C337.069 140.514 337.839 140.844 338.851 140.844C339.504 140.844 340.065 140.701 340.534 140.415C341.011 140.122 341.378 139.7 341.634 139.15L344.252 139.942C343.798 141.013 343.094 141.845 342.14 142.439C341.194 143.033 340.149 143.33 339.005 143.33ZM334.913 137.797V135.795H343.086V137.797H334.913ZM352.24 143.33C351.037 143.33 349.981 143.07 349.072 142.549C348.162 142.028 347.451 141.306 346.938 140.382C346.432 139.458 346.179 138.395 346.179 137.192C346.179 135.894 346.428 134.768 346.927 133.815C347.425 132.854 348.118 132.11 349.006 131.582C349.893 131.054 350.92 130.79 352.086 130.79C353.318 130.79 354.363 131.08 355.221 131.659C356.086 132.231 356.728 133.041 357.146 134.09C357.564 135.139 357.721 136.374 357.619 137.797H354.99V136.829C354.982 135.538 354.755 134.596 354.308 134.002C353.86 133.408 353.156 133.111 352.196 133.111C351.11 133.111 350.304 133.448 349.776 134.123C349.248 134.79 348.984 135.769 348.984 137.06C348.984 138.263 349.248 139.194 349.776 139.854C350.304 140.514 351.074 140.844 352.086 140.844C352.738 140.844 353.299 140.701 353.769 140.415C354.245 140.122 354.612 139.7 354.869 139.15L357.487 139.942C357.032 141.013 356.328 141.845 355.375 142.439C354.429 143.033 353.384 143.33 352.24 143.33ZM348.148 137.797V135.795H356.321V137.797H348.148ZM62.1591 173.33C61.0444 173.33 60.1058 173.055 59.3431 172.505C58.5804 171.948 58.0011 171.196 57.6051 170.25C57.2164 169.297 57.0221 168.23 57.0221 167.049C57.0221 165.854 57.2164 164.783 57.6051 163.837C58.0011 162.891 58.5804 162.147 59.3431 161.604C60.1131 161.061 61.0554 160.79 62.1701 160.79C63.2701 160.79 64.2161 161.065 65.0081 161.615C65.8074 162.158 66.4198 162.902 66.8451 163.848C67.2704 164.794 67.4831 165.861 67.4831 167.049C67.4831 168.237 67.2704 169.304 66.8451 170.25C66.4198 171.196 65.8074 171.948 65.0081 172.505C64.2161 173.055 63.2664 173.33 62.1591 173.33ZM56.6921 178.28V161.12H58.4411V169.865H58.6611V178.28H56.6921ZM61.9171 171.537C62.7018 171.537 63.3508 171.339 63.8641 170.943C64.3774 170.547 64.7624 170.012 65.0191 169.337C65.2758 168.655 65.4041 167.892 65.4041 167.049C65.4041 166.213 65.2758 165.458 65.0191 164.783C64.7698 164.108 64.3811 163.573 63.8531 163.177C63.3324 162.781 62.6688 162.583 61.8621 162.583C61.0921 162.583 60.4541 162.774 59.9481 163.155C59.4421 163.529 59.0644 164.053 58.8151 164.728C58.5658 165.395 58.4411 166.169 58.4411 167.049C58.4411 167.914 58.5621 168.688 58.8041 169.37C59.0534 170.045 59.4348 170.576 59.9481 170.965C60.4614 171.346 61.1178 171.537 61.9171 171.537ZM74.9545 173.33C73.7738 173.33 72.7545 173.062 71.8965 172.527C71.0458 171.992 70.3895 171.251 69.9275 170.305C69.4655 169.359 69.2345 168.274 69.2345 167.049C69.2345 165.802 69.4692 164.71 69.9385 163.771C70.4078 162.832 71.0715 162.103 71.9295 161.582C72.7875 161.054 73.7958 160.79 74.9545 160.79C76.1425 160.79 77.1655 161.058 78.0235 161.593C78.8815 162.121 79.5378 162.858 79.9925 163.804C80.4545 164.743 80.6855 165.824 80.6855 167.049C80.6855 168.288 80.4545 169.381 79.9925 170.327C79.5305 171.266 78.8705 172.003 78.0125 172.538C77.1545 173.066 76.1352 173.33 74.9545 173.33ZM74.9545 171.471C76.1865 171.471 77.1032 171.06 77.7045 170.239C78.3058 169.418 78.6065 168.354 78.6065 167.049C78.6065 165.707 78.3022 164.64 77.6935 163.848C77.0848 163.049 76.1718 162.649 74.9545 162.649C74.1258 162.649 73.4438 162.836 72.9085 163.21C72.3732 163.584 71.9735 164.101 71.7095 164.761C71.4455 165.421 71.3135 166.184 71.3135 167.049C71.3135 168.384 71.6215 169.454 72.2375 170.261C72.8535 171.068 73.7592 171.471 74.9545 171.471ZM87.6174 173.308C86.8547 173.308 86.1984 173.187 85.6484 172.945C85.1057 172.703 84.6547 172.38 84.2954 171.977C83.936 171.574 83.6537 171.126 83.4484 170.635C83.243 170.144 83.0964 169.641 83.0084 169.128C82.9277 168.615 82.8874 168.134 82.8874 167.687V161.12H84.8674V167.071C84.8674 167.628 84.9187 168.167 85.0214 168.688C85.124 169.209 85.2964 169.678 85.5384 170.096C85.7877 170.514 86.1177 170.844 86.5284 171.086C86.9464 171.328 87.467 171.449 88.0904 171.449C88.5817 171.449 89.029 171.365 89.4324 171.196C89.8357 171.027 90.1804 170.778 90.4664 170.448C90.7524 170.111 90.9724 169.685 91.1264 169.172C91.2804 168.659 91.3574 168.061 91.3574 167.379L92.6444 167.775C92.6444 168.919 92.4354 169.905 92.0174 170.734C91.6067 171.563 91.0237 172.201 90.2684 172.648C89.5204 173.088 88.6367 173.308 87.6174 173.308ZM91.5774 173V169.821H91.3574V161.12H93.3264V173H91.5774ZM96.4062 173V161.12H98.1552V163.991L97.8692 163.617C98.0085 163.25 98.1882 162.913 98.4082 162.605C98.6355 162.297 98.8885 162.044 99.1672 161.846C99.4752 161.597 99.8235 161.406 100.212 161.274C100.601 161.142 100.997 161.065 101.4 161.043C101.804 161.014 102.181 161.039 102.533 161.12V162.957C102.123 162.847 101.672 162.818 101.18 162.869C100.689 162.92 100.234 163.1 99.8162 163.408C99.4349 163.679 99.1379 164.009 98.9252 164.398C98.7199 164.787 98.5769 165.208 98.4962 165.663C98.4155 166.11 98.3752 166.569 98.3752 167.038V173H96.4062ZM112.23 173L107.918 161.12H109.898L113.231 170.503L116.553 161.12H118.544L114.232 173H112.23ZM125.163 173.33C123.983 173.33 122.963 173.062 122.105 172.527C121.255 171.992 120.598 171.251 120.136 170.305C119.674 169.359 119.443 168.274 119.443 167.049C119.443 165.802 119.678 164.71 120.147 163.771C120.617 162.832 121.28 162.103 122.138 161.582C122.996 161.054 124.005 160.79 125.163 160.79C126.351 160.79 127.374 161.058 128.232 161.593C129.09 162.121 129.747 162.858 130.201 163.804C130.663 164.743 130.894 165.824 130.894 167.049C130.894 168.288 130.663 169.381 130.201 170.327C129.739 171.266 129.079 172.003 128.221 172.538C127.363 173.066 126.344 173.33 125.163 173.33ZM125.163 171.471C126.395 171.471 127.312 171.06 127.913 170.239C128.515 169.418 128.815 168.354 128.815 167.049C128.815 165.707 128.511 164.64 127.902 163.848C127.294 163.049 126.381 162.649 125.163 162.649C124.335 162.649 123.653 162.836 123.117 163.21C122.582 163.584 122.182 164.101 121.918 164.761C121.654 165.421 121.522 166.184 121.522 167.049C121.522 168.384 121.83 169.454 122.446 170.261C123.062 171.068 123.968 171.471 125.163 171.471ZM139.949 173C139.245 173.139 138.549 173.194 137.859 173.165C137.177 173.143 136.569 173.007 136.033 172.758C135.498 172.501 135.091 172.105 134.812 171.57C134.578 171.101 134.449 170.628 134.427 170.151C134.413 169.667 134.405 169.121 134.405 168.512V157.82H136.363V168.424C136.363 168.908 136.367 169.322 136.374 169.667C136.389 170.012 136.466 170.309 136.605 170.558C136.869 171.027 137.287 171.302 137.859 171.383C138.439 171.464 139.135 171.442 139.949 171.317V173ZM131.996 162.737V161.12H139.949V162.737H131.996ZM142.361 173V161.12H144.11V163.991L143.824 163.617C143.964 163.25 144.143 162.913 144.363 162.605C144.591 162.297 144.844 162.044 145.122 161.846C145.43 161.597 145.779 161.406 146.167 161.274C146.556 161.142 146.952 161.065 147.355 161.043C147.759 161.014 148.136 161.039 148.488 161.12V162.957C148.078 162.847 147.627 162.818 147.135 162.869C146.644 162.92 146.189 163.1 145.771 163.408C145.39 163.679 145.093 164.009 144.88 164.398C144.675 164.787 144.532 165.208 144.451 165.663C144.371 166.11 144.33 166.569 144.33 167.038V173H142.361ZM155.501 173.33C154.335 173.33 153.316 173.073 152.443 172.56C151.578 172.039 150.903 171.317 150.419 170.393C149.935 169.462 149.693 168.376 149.693 167.137C149.693 165.839 149.932 164.717 150.408 163.771C150.885 162.818 151.549 162.084 152.399 161.571C153.257 161.05 154.262 160.79 155.413 160.79C156.609 160.79 157.624 161.065 158.46 161.615C159.304 162.165 159.934 162.95 160.352 163.969C160.778 164.988 160.961 166.202 160.902 167.61H158.922V166.906C158.9 165.447 158.603 164.358 158.031 163.639C157.459 162.913 156.609 162.55 155.479 162.55C154.269 162.55 153.349 162.939 152.718 163.716C152.088 164.493 151.772 165.608 151.772 167.06C151.772 168.461 152.088 169.546 152.718 170.316C153.349 171.086 154.247 171.471 155.413 171.471C156.198 171.471 156.88 171.291 157.459 170.932C158.039 170.573 158.493 170.056 158.823 169.381L160.704 170.03C160.242 171.079 159.546 171.893 158.614 172.472C157.69 173.044 156.653 173.33 155.501 173.33ZM151.112 167.61V166.037H159.89V167.61H151.112ZM174.389 173C173.685 173.139 172.988 173.194 172.299 173.165C171.617 173.143 171.008 173.007 170.473 172.758C169.937 172.501 169.53 172.105 169.252 171.57C169.017 171.101 168.889 170.628 168.867 170.151C168.852 169.667 168.845 169.121 168.845 168.512V157.82H170.803V168.424C170.803 168.908 170.806 169.322 170.814 169.667C170.828 170.012 170.905 170.309 171.045 170.558C171.309 171.027 171.727 171.302 172.299 171.383C172.878 171.464 173.575 171.442 174.389 171.317V173ZM166.436 162.737V161.12H174.389V162.737H166.436ZM176.801 173V161.12H178.55V163.991L178.264 163.617C178.403 163.25 178.583 162.913 178.803 162.605C179.03 162.297 179.283 162.044 179.562 161.846C179.87 161.597 180.218 161.406 180.607 161.274C180.995 161.142 181.391 161.065 181.795 161.043C182.198 161.014 182.576 161.039 182.928 161.12V162.957C182.517 162.847 182.066 162.818 181.575 162.869C181.083 162.92 180.629 163.1 180.211 163.408C179.829 163.679 179.532 164.009 179.32 164.398C179.114 164.787 178.971 165.208 178.891 165.663C178.81 166.11 178.77 166.569 178.77 167.038V173H176.801ZM187.998 173.33C187.111 173.33 186.366 173.169 185.765 172.846C185.171 172.516 184.72 172.083 184.412 171.548C184.111 171.013 183.961 170.426 183.961 169.788C183.961 169.165 184.078 168.626 184.313 168.171C184.555 167.709 184.892 167.328 185.325 167.027C185.758 166.719 186.275 166.477 186.876 166.301C187.441 166.147 188.071 166.015 188.768 165.905C189.472 165.788 190.183 165.681 190.902 165.586C191.621 165.491 192.292 165.399 192.915 165.311L192.211 165.718C192.233 164.662 192.02 163.881 191.573 163.375C191.133 162.869 190.37 162.616 189.285 162.616C188.566 162.616 187.936 162.781 187.393 163.111C186.858 163.434 186.48 163.962 186.26 164.695L184.401 164.134C184.687 163.093 185.241 162.275 186.062 161.681C186.883 161.087 187.965 160.79 189.307 160.79C190.385 160.79 191.309 160.984 192.079 161.373C192.856 161.754 193.414 162.334 193.751 163.111C193.92 163.478 194.026 163.877 194.07 164.31C194.114 164.735 194.136 165.183 194.136 165.652V173H192.398V170.151L192.805 170.415C192.358 171.376 191.731 172.102 190.924 172.593C190.125 173.084 189.149 173.33 187.998 173.33ZM188.295 171.691C188.999 171.691 189.608 171.566 190.121 171.317C190.642 171.06 191.06 170.727 191.375 170.316C191.69 169.898 191.896 169.443 191.991 168.952C192.101 168.585 192.16 168.178 192.167 167.731C192.182 167.276 192.189 166.928 192.189 166.686L192.871 166.983C192.233 167.071 191.606 167.155 190.99 167.236C190.374 167.317 189.791 167.405 189.241 167.5C188.691 167.588 188.196 167.694 187.756 167.819C187.433 167.922 187.129 168.054 186.843 168.215C186.564 168.376 186.337 168.585 186.161 168.842C185.992 169.091 185.908 169.403 185.908 169.777C185.908 170.1 185.989 170.408 186.15 170.701C186.319 170.994 186.575 171.233 186.92 171.416C187.272 171.599 187.73 171.691 188.295 171.691ZM205.455 173V167.049C205.455 166.484 205.404 165.942 205.301 165.421C205.206 164.9 205.033 164.435 204.784 164.024C204.542 163.606 204.212 163.276 203.794 163.034C203.383 162.792 202.863 162.671 202.232 162.671C201.741 162.671 201.293 162.755 200.89 162.924C200.494 163.085 200.153 163.335 199.867 163.672C199.581 164.009 199.357 164.435 199.196 164.948C199.042 165.454 198.965 166.052 198.965 166.741L197.678 166.345C197.678 165.194 197.883 164.207 198.294 163.386C198.712 162.557 199.295 161.923 200.043 161.483C200.798 161.036 201.686 160.812 202.705 160.812C203.475 160.812 204.131 160.933 204.674 161.175C205.217 161.417 205.668 161.74 206.027 162.143C206.386 162.539 206.669 162.986 206.874 163.485C207.079 163.976 207.222 164.479 207.303 164.992C207.391 165.498 207.435 165.978 207.435 166.433V173H205.455ZM196.985 173V161.12H198.745V164.299H198.965V173H196.985ZM214.783 173.319C213.368 173.319 212.205 173.011 211.296 172.395C210.394 171.772 209.84 170.903 209.635 169.788L211.637 169.469C211.798 170.114 212.169 170.628 212.748 171.009C213.327 171.383 214.046 171.57 214.904 171.57C215.718 171.57 216.356 171.401 216.818 171.064C217.28 170.727 217.511 170.268 217.511 169.689C217.511 169.352 217.434 169.08 217.28 168.875C217.126 168.662 216.807 168.464 216.323 168.281C215.846 168.098 215.124 167.878 214.156 167.621C213.107 167.342 212.282 167.053 211.681 166.752C211.08 166.451 210.651 166.103 210.394 165.707C210.137 165.311 210.009 164.831 210.009 164.266C210.009 163.569 210.2 162.961 210.581 162.44C210.962 161.912 211.494 161.505 212.176 161.219C212.865 160.933 213.665 160.79 214.574 160.79C215.476 160.79 216.283 160.933 216.994 161.219C217.705 161.505 218.277 161.912 218.71 162.44C219.15 162.961 219.41 163.569 219.491 164.266L217.489 164.629C217.394 163.991 217.086 163.489 216.565 163.122C216.052 162.755 215.388 162.561 214.574 162.539C213.804 162.51 213.177 162.645 212.693 162.946C212.216 163.247 211.978 163.654 211.978 164.167C211.978 164.453 212.066 164.699 212.242 164.904C212.425 165.109 212.759 165.304 213.243 165.487C213.734 165.67 214.446 165.879 215.377 166.114C216.426 166.378 217.251 166.668 217.852 166.983C218.461 167.291 218.893 167.658 219.15 168.083C219.407 168.501 219.535 169.018 219.535 169.634C219.535 170.778 219.113 171.68 218.27 172.34C217.427 172.993 216.264 173.319 214.783 173.319ZM225.338 173.33C224.451 173.33 223.706 173.169 223.105 172.846C222.511 172.516 222.06 172.083 221.752 171.548C221.451 171.013 221.301 170.426 221.301 169.788C221.301 169.165 221.418 168.626 221.653 168.171C221.895 167.709 222.232 167.328 222.665 167.027C223.098 166.719 223.615 166.477 224.216 166.301C224.781 166.147 225.411 166.015 226.108 165.905C226.812 165.788 227.523 165.681 228.242 165.586C228.961 165.491 229.632 165.399 230.255 165.311L229.551 165.718C229.573 164.662 229.36 163.881 228.913 163.375C228.473 162.869 227.71 162.616 226.625 162.616C225.906 162.616 225.276 162.781 224.733 163.111C224.198 163.434 223.82 163.962 223.6 164.695L221.741 164.134C222.027 163.093 222.581 162.275 223.402 161.681C224.223 161.087 225.305 160.79 226.647 160.79C227.725 160.79 228.649 160.984 229.419 161.373C230.196 161.754 230.754 162.334 231.091 163.111C231.26 163.478 231.366 163.877 231.41 164.31C231.454 164.735 231.476 165.183 231.476 165.652V173H229.738V170.151L230.145 170.415C229.698 171.376 229.071 172.102 228.264 172.593C227.465 173.084 226.489 173.33 225.338 173.33ZM225.635 171.691C226.339 171.691 226.948 171.566 227.461 171.317C227.982 171.06 228.4 170.727 228.715 170.316C229.03 169.898 229.236 169.443 229.331 168.952C229.441 168.585 229.5 168.178 229.507 167.731C229.522 167.276 229.529 166.928 229.529 166.686L230.211 166.983C229.573 167.071 228.946 167.155 228.33 167.236C227.714 167.317 227.131 167.405 226.581 167.5C226.031 167.588 225.536 167.694 225.096 167.819C224.773 167.922 224.469 168.054 224.183 168.215C223.904 168.376 223.677 168.585 223.501 168.842C223.332 169.091 223.248 169.403 223.248 169.777C223.248 170.1 223.329 170.408 223.49 170.701C223.659 170.994 223.915 171.233 224.26 171.416C224.612 171.599 225.07 171.691 225.635 171.691ZM239.341 173.33C238.138 173.33 237.115 173.062 236.272 172.527C235.436 171.984 234.798 171.24 234.358 170.294C233.918 169.348 233.691 168.27 233.676 167.06C233.691 165.821 233.922 164.732 234.369 163.793C234.824 162.847 235.473 162.11 236.316 161.582C237.159 161.054 238.175 160.79 239.363 160.79C240.617 160.79 241.695 161.098 242.597 161.714C243.506 162.33 244.115 163.173 244.423 164.244L242.487 164.827C242.238 164.138 241.831 163.602 241.266 163.221C240.709 162.84 240.067 162.649 239.341 162.649C238.527 162.649 237.856 162.84 237.328 163.221C236.8 163.595 236.408 164.116 236.151 164.783C235.894 165.443 235.762 166.202 235.755 167.06C235.77 168.38 236.074 169.447 236.668 170.261C237.269 171.068 238.16 171.471 239.341 171.471C240.118 171.471 240.764 171.295 241.277 170.943C241.79 170.584 242.179 170.067 242.443 169.392L244.423 169.909C244.012 171.016 243.371 171.863 242.498 172.45C241.625 173.037 240.573 173.33 239.341 173.33ZM253.301 173C252.597 173.139 251.9 173.194 251.211 173.165C250.529 173.143 249.92 173.007 249.385 172.758C248.85 172.501 248.443 172.105 248.164 171.57C247.929 171.101 247.801 170.628 247.779 170.151C247.764 169.667 247.757 169.121 247.757 168.512V157.82H249.715V168.424C249.715 168.908 249.719 169.322 249.726 169.667C249.741 170.012 249.818 170.309 249.957 170.558C250.221 171.027 250.639 171.302 251.211 171.383C251.79 171.464 252.487 171.442 253.301 171.317V173ZM245.348 162.737V161.12H253.301V162.737H245.348ZM255.933 159.019V156.995H257.891V159.019H255.933ZM255.933 173V161.12H257.891V173H255.933ZM266.251 173.33C265.071 173.33 264.051 173.062 263.193 172.527C262.343 171.992 261.686 171.251 261.224 170.305C260.762 169.359 260.531 168.274 260.531 167.049C260.531 165.802 260.766 164.71 261.235 163.771C261.705 162.832 262.368 162.103 263.226 161.582C264.084 161.054 265.093 160.79 266.251 160.79C267.439 160.79 268.462 161.058 269.32 161.593C270.178 162.121 270.835 162.858 271.289 163.804C271.751 164.743 271.982 165.824 271.982 167.049C271.982 168.288 271.751 169.381 271.289 170.327C270.827 171.266 270.167 172.003 269.309 172.538C268.451 173.066 267.432 173.33 266.251 173.33ZM266.251 171.471C267.483 171.471 268.4 171.06 269.001 170.239C269.603 169.418 269.903 168.354 269.903 167.049C269.903 165.707 269.599 164.64 268.99 163.848C268.382 163.049 267.469 162.649 266.251 162.649C265.423 162.649 264.741 162.836 264.205 163.21C263.67 163.584 263.27 164.101 263.006 164.761C262.742 165.421 262.61 166.184 262.61 167.049C262.61 168.384 262.918 169.454 263.534 170.261C264.15 171.068 265.056 171.471 266.251 171.471ZM282.863 173V167.049C282.863 166.484 282.812 165.942 282.709 165.421C282.614 164.9 282.442 164.435 282.192 164.024C281.95 163.606 281.62 163.276 281.202 163.034C280.792 162.792 280.271 162.671 279.64 162.671C279.149 162.671 278.702 162.755 278.298 162.924C277.902 163.085 277.561 163.335 277.275 163.672C276.989 164.009 276.766 164.435 276.604 164.948C276.45 165.454 276.373 166.052 276.373 166.741L275.086 166.345C275.086 165.194 275.292 164.207 275.702 163.386C276.12 162.557 276.703 161.923 277.451 161.483C278.207 161.036 279.094 160.812 280.113 160.812C280.883 160.812 281.54 160.933 282.082 161.175C282.625 161.417 283.076 161.74 283.435 162.143C283.795 162.539 284.077 162.986 284.282 163.485C284.488 163.976 284.631 164.479 284.711 164.992C284.799 165.498 284.843 165.978 284.843 166.433V173H282.863ZM274.393 173V161.12H276.153V164.299H276.373V173H274.393ZM292.327 159.019V156.995H294.285V159.019H292.327ZM292.327 173V161.12H294.285V173H292.327ZM311.787 173L311.798 165.399C311.798 164.512 311.56 163.819 311.083 163.32C310.614 162.814 310.001 162.561 309.246 162.561C308.806 162.561 308.388 162.664 307.992 162.869C307.596 163.067 307.273 163.382 307.024 163.815C306.775 164.24 306.65 164.787 306.65 165.454L305.616 165.036C305.601 164.193 305.774 163.456 306.133 162.825C306.5 162.187 306.998 161.692 307.629 161.34C308.26 160.988 308.971 160.812 309.763 160.812C311.002 160.812 311.978 161.19 312.689 161.945C313.4 162.693 313.756 163.701 313.756 164.97L313.745 173H311.787ZM297.575 173V161.12H299.324V164.299H299.544V173H297.575ZM304.692 173L304.703 165.476C304.703 164.567 304.468 163.855 303.999 163.342C303.53 162.821 302.906 162.561 302.129 162.561C301.359 162.561 300.736 162.825 300.259 163.353C299.782 163.881 299.544 164.581 299.544 165.454L298.51 164.838C298.51 164.068 298.693 163.379 299.06 162.77C299.427 162.161 299.925 161.685 300.556 161.34C301.187 160.988 301.902 160.812 302.701 160.812C303.5 160.812 304.197 160.981 304.791 161.318C305.385 161.655 305.843 162.139 306.166 162.77C306.489 163.393 306.65 164.138 306.65 165.003L306.639 173H304.692ZM330.822 173L330.833 165.399C330.833 164.512 330.595 163.819 330.118 163.32C329.649 162.814 329.036 162.561 328.281 162.561C327.841 162.561 327.423 162.664 327.027 162.869C326.631 163.067 326.308 163.382 326.059 163.815C325.81 164.24 325.685 164.787 325.685 165.454L324.651 165.036C324.636 164.193 324.809 163.456 325.168 162.825C325.535 162.187 326.033 161.692 326.664 161.34C327.295 160.988 328.006 160.812 328.798 160.812C330.037 160.812 331.013 161.19 331.724 161.945C332.435 162.693 332.791 163.701 332.791 164.97L332.78 173H330.822ZM316.61 173V161.12H318.359V164.299H318.579V173H316.61ZM323.727 173L323.738 165.476C323.738 164.567 323.503 163.855 323.034 163.342C322.565 162.821 321.941 162.561 321.164 162.561C320.394 162.561 319.771 162.825 319.294 163.353C318.817 163.881 318.579 164.581 318.579 165.454L317.545 164.838C317.545 164.068 317.728 163.379 318.095 162.77C318.462 162.161 318.96 161.685 319.591 161.34C320.222 160.988 320.937 160.812 321.736 160.812C322.535 160.812 323.232 160.981 323.826 161.318C324.42 161.655 324.878 162.139 325.201 162.77C325.524 163.393 325.685 164.138 325.685 165.003L325.674 173H323.727ZM340.609 173.33C339.428 173.33 338.409 173.062 337.551 172.527C336.7 171.992 336.044 171.251 335.582 170.305C335.12 169.359 334.889 168.274 334.889 167.049C334.889 165.802 335.123 164.71 335.593 163.771C336.062 162.832 336.726 162.103 337.584 161.582C338.442 161.054 339.45 160.79 340.609 160.79C341.797 160.79 342.82 161.058 343.678 161.593C344.536 162.121 345.192 162.858 345.647 163.804C346.109 164.743 346.34 165.824 346.34 167.049C346.34 168.288 346.109 169.381 345.647 170.327C345.185 171.266 344.525 172.003 343.667 172.538C342.809 173.066 341.789 173.33 340.609 173.33ZM340.609 171.471C341.841 171.471 342.757 171.06 343.359 170.239C343.96 169.418 344.261 168.354 344.261 167.049C344.261 165.707 343.956 164.64 343.348 163.848C342.739 163.049 341.826 162.649 340.609 162.649C339.78 162.649 339.098 162.836 338.563 163.21C338.027 163.584 337.628 164.101 337.364 164.761C337.1 165.421 336.968 166.184 336.968 167.049C336.968 168.384 337.276 169.454 337.892 170.261C338.508 171.068 339.413 171.471 340.609 171.471ZM354.218 173.33C353.103 173.33 352.164 173.055 351.402 172.505C350.639 171.948 350.06 171.196 349.664 170.25C349.275 169.297 349.081 168.23 349.081 167.049C349.081 165.854 349.275 164.783 349.664 163.837C350.06 162.891 350.639 162.147 351.402 161.604C352.172 161.061 353.114 160.79 354.229 160.79C355.329 160.79 356.275 161.065 357.067 161.615C357.866 162.158 358.478 162.902 358.904 163.848C359.329 164.794 359.542 165.861 359.542 167.049C359.542 168.237 359.329 169.304 358.904 170.25C358.478 171.196 357.866 171.948 357.067 172.505C356.275 173.055 355.325 173.33 354.218 173.33ZM348.751 173V157.16H350.72V164.255H350.5V173H348.751ZM353.976 171.537C354.76 171.537 355.409 171.339 355.923 170.943C356.436 170.547 356.821 170.012 357.078 169.337C357.334 168.655 357.463 167.892 357.463 167.049C357.463 166.213 357.334 165.458 357.078 164.783C356.828 164.108 356.44 163.573 355.912 163.177C355.391 162.781 354.727 162.583 353.921 162.583C353.151 162.583 352.513 162.774 352.007 163.155C351.501 163.529 351.123 164.053 350.874 164.728C350.624 165.395 350.5 166.169 350.5 167.049C350.5 167.914 350.621 168.688 350.863 169.37C351.112 170.045 351.493 170.576 352.007 170.965C352.52 171.346 353.176 171.537 353.976 171.537ZM362.173 159.019V156.995H364.131V159.019H362.173ZM362.173 173V161.12H364.131V173H362.173ZM367.652 173V156.83H369.61V173H367.652ZM373.13 159.019V156.995H375.088V159.019H373.13ZM373.13 173V161.12H375.088V173H373.13ZM382.767 159.305L381.326 155.675H382.921L384.362 159.305H382.767ZM383.537 173.33C382.371 173.33 381.351 173.073 380.479 172.56C379.613 172.039 378.939 171.317 378.455 170.393C377.971 169.462 377.729 168.376 377.729 167.137C377.729 165.839 377.967 164.717 378.444 163.771C378.92 162.818 379.584 162.084 380.435 161.571C381.293 161.05 382.297 160.79 383.449 160.79C384.644 160.79 385.66 161.065 386.496 161.615C387.339 162.165 387.97 162.95 388.388 163.969C388.813 164.988 388.996 166.202 388.938 167.61H386.958V166.906C386.936 165.447 386.639 164.358 386.067 163.639C385.495 162.913 384.644 162.55 383.515 162.55C382.305 162.55 381.384 162.939 380.754 163.716C380.123 164.493 379.808 165.608 379.808 167.06C379.808 168.461 380.123 169.546 380.754 170.316C381.384 171.086 382.283 171.471 383.449 171.471C384.233 171.471 384.915 171.291 385.495 170.932C386.074 170.573 386.529 170.056 386.859 169.381L388.74 170.03C388.278 171.079 387.581 171.893 386.65 172.472C385.726 173.044 384.688 173.33 383.537 173.33ZM379.148 167.61V166.037H387.926V167.61H379.148ZM391.387 173V161.12H393.136V163.991L392.85 163.617C392.989 163.25 393.169 162.913 393.389 162.605C393.616 162.297 393.869 162.044 394.148 161.846C394.456 161.597 394.804 161.406 395.193 161.274C395.581 161.142 395.977 161.065 396.381 161.043C396.784 161.014 397.162 161.039 397.514 161.12V162.957C397.103 162.847 396.652 162.818 396.161 162.869C395.669 162.92 395.215 163.1 394.797 163.408C394.415 163.679 394.118 164.009 393.906 164.398C393.7 164.787 393.557 165.208 393.477 165.663C393.396 166.11 393.356 166.569 393.356 167.038V173H391.387ZM404.527 173.33C403.361 173.33 402.342 173.073 401.469 172.56C400.604 172.039 399.929 171.317 399.445 170.393C398.961 169.462 398.719 168.376 398.719 167.137C398.719 165.839 398.957 164.717 399.434 163.771C399.911 162.818 400.574 162.084 401.425 161.571C402.283 161.05 403.288 160.79 404.439 160.79C405.634 160.79 406.65 161.065 407.486 161.615C408.329 162.165 408.96 162.95 409.378 163.969C409.803 164.988 409.987 166.202 409.928 167.61H407.948V166.906C407.926 165.447 407.629 164.358 407.057 163.639C406.485 162.913 405.634 162.55 404.505 162.55C403.295 162.55 402.375 162.939 401.744 163.716C401.113 164.493 400.798 165.608 400.798 167.06C400.798 168.461 401.113 169.546 401.744 170.316C402.375 171.086 403.273 171.471 404.439 171.471C405.224 171.471 405.906 171.291 406.485 170.932C407.064 170.573 407.519 170.056 407.849 169.381L409.73 170.03C409.268 171.079 408.571 171.893 407.64 172.472C406.716 173.044 405.678 173.33 404.527 173.33ZM400.138 167.61V166.037H408.916V167.61H400.138Z" fill="#1D2B28"/>
</g>
<defs>
<radialGradient id="paint0_angular_47_4157" cx="0" cy="0" r="1" gradientUnits="userSpaceOnUse" gradientTransform="translate(233.5 131) scale(233.5 131)">
<stop offset="0.00432995" stop-color="#E6EEED"/>
<stop offset="0.505895" stop-color="#ECEDE6"/>
<stop offset="0.829514" stop-color="#E0EEEE"/>
</radialGradient>
<clipPath id="clip0_47_4157">
<rect width="467" height="262" fill="white"/>
</clipPath>
</defs>
</svg>
