<?xml version="1.0" encoding="UTF-8"?>
<svg width="60px" height="60px" viewBox="0 0 60 60" version="1.1" xmlns="http://www.w3.org/2000/svg" xmlns:xlink="http://www.w3.org/1999/xlink">
    <title>Group</title>
    <g id="landing---particuliers" stroke="none" stroke-width="1" fill="none" fill-rule="evenodd">
        <g id="UI-APP---Particuliers-tableau-de-bord-01a" transform="translate(-330, -303)">
            <g id="Group" transform="translate(330, 303)">
                <g id="Group-8-Copy-3" fill="#173B3C">
                    <circle id="Oval" cx="30" cy="30" r="30"></circle>
                </g>
                <g id="Group-15" transform="translate(17, 18)" fill="#FFFFFF">
                    <path d="M23.2142857,24.1428571 L2.78571429,24.1428571 C2.27314286,24.1428571 1.85714286,23.7268571 1.85714286,23.2142857 L1.85714286,10.2142857 L24.1428571,10.2142857 L24.1428571,23.2142857 C24.1428571,23.7268571 23.7268571,24.1428571 23.2142857,24.1428571 M2.78571429,3.71428571 L6.5,3.71428571 L6.5,4.64285714 C6.5,5.15542857 6.916,5.57142857 7.42857143,5.57142857 C7.94114286,5.57142857 8.35714286,5.15542857 8.35714286,4.64285714 L8.35714286,3.71428571 L17.6428571,3.71428571 L17.6428571,4.64285714 C17.6428571,5.15542857 18.0588571,5.57142857 18.5714286,5.57142857 C19.084,5.57142857 19.5,5.15542857 19.5,4.64285714 L19.5,3.71428571 L23.2142857,3.71428571 C23.7268571,3.71428571 24.1428571,4.13028571 24.1428571,4.64285714 L24.1428571,8.35714286 L1.85714286,8.35714286 L1.85714286,4.64285714 C1.85714286,4.13028571 2.27314286,3.71428571 2.78571429,3.71428571 M23.2142857,1.85714286 L19.5,1.85714286 L19.5,0.928571429 C19.5,0.416 19.084,0 18.5714286,0 C18.0588571,0 17.6428571,0.416 17.6428571,0.928571429 L17.6428571,1.85714286 L8.35714286,1.85714286 L8.35714286,0.928571429 C8.35714286,0.416 7.94114286,0 7.42857143,0 C6.916,0 6.5,0.416 6.5,0.928571429 L6.5,1.85714286 L2.78571429,1.85714286 C1.24707143,1.85714286 0,3.10421429 0,4.64285714 L0,23.2142857 C0,24.7529286 1.24707143,26 2.78571429,26 L23.2142857,26 C24.7529286,26 26,24.7529286 26,23.2142857 L26,4.64285714 C26,3.10421429 24.7529286,1.85714286 23.2142857,1.85714286" id="Fill-1"></path>
                    <path d="M7.42857143,13.9285714 L5.57142857,13.9285714 C5.05885714,13.9285714 4.64285714,14.3445714 4.64285714,14.8571429 C4.64285714,15.3697143 5.05885714,15.7857143 5.57142857,15.7857143 L7.42857143,15.7857143 C7.94114286,15.7857143 8.35714286,15.3697143 8.35714286,14.8571429 C8.35714286,14.3445714 7.94114286,13.9285714 7.42857143,13.9285714" id="Fill-3"></path>
                    <path d="M13.9285714,13.9285714 L12.0714286,13.9285714 C11.5588571,13.9285714 11.1428571,14.3445714 11.1428571,14.8571429 C11.1428571,15.3697143 11.5588571,15.7857143 12.0714286,15.7857143 L13.9285714,15.7857143 C14.4411429,15.7857143 14.8571429,15.3697143 14.8571429,14.8571429 C14.8571429,14.3445714 14.4411429,13.9285714 13.9285714,13.9285714" id="Fill-5"></path>
                    <path d="M20.4285714,13.9285714 L18.5714286,13.9285714 C18.0588571,13.9285714 17.6428571,14.3445714 17.6428571,14.8571429 C17.6428571,15.3697143 18.0588571,15.7857143 18.5714286,15.7857143 L20.4285714,15.7857143 C20.9411429,15.7857143 21.3571429,15.3697143 21.3571429,14.8571429 C21.3571429,14.3445714 20.9411429,13.9285714 20.4285714,13.9285714" id="Fill-7"></path>
                    <path d="M7.42857143,18.5714286 L5.57142857,18.5714286 C5.05885714,18.5714286 4.64285714,18.9874286 4.64285714,19.5 C4.64285714,20.0125714 5.05885714,20.4285714 5.57142857,20.4285714 L7.42857143,20.4285714 C7.94114286,20.4285714 8.35714286,20.0125714 8.35714286,19.5 C8.35714286,18.9874286 7.94114286,18.5714286 7.42857143,18.5714286" id="Fill-9"></path>
                    <path d="M13.9285714,18.5714286 L12.0714286,18.5714286 C11.5588571,18.5714286 11.1428571,18.9874286 11.1428571,19.5 C11.1428571,20.0125714 11.5588571,20.4285714 12.0714286,20.4285714 L13.9285714,20.4285714 C14.4411429,20.4285714 14.8571429,20.0125714 14.8571429,19.5 C14.8571429,18.9874286 14.4411429,18.5714286 13.9285714,18.5714286" id="Fill-11"></path>
                    <path d="M20.4285714,18.5714286 L18.5714286,18.5714286 C18.0588571,18.5714286 17.6428571,18.9874286 17.6428571,19.5 C17.6428571,20.0125714 18.0588571,20.4285714 18.5714286,20.4285714 L20.4285714,20.4285714 C20.9411429,20.4285714 21.3571429,20.0125714 21.3571429,19.5 C21.3571429,18.9874286 20.9411429,18.5714286 20.4285714,18.5714286" id="Fill-13"></path>
                </g>
            </g>
        </g>
    </g>
</svg>