<?xml version="1.0" encoding="UTF-8"?>
<svg width="25px" height="25px" viewBox="0 0 25 25" version="1.1" xmlns="http://www.w3.org/2000/svg" xmlns:xlink="http://www.w3.org/1999/xlink">
    <title>Group</title>
    <defs>
        <polygon id="path-1" points="-5.52283369e-16 0 20.0006779 0 20.0006779 20 -5.52283369e-16 20"></polygon>
        <polygon id="path-3" points="-3.31370021e-16 0 12.0004067 0 12.0004067 12 -3.31370021e-16 12"></polygon>
    </defs>
    <g id="landing---particuliers" stroke="none" stroke-width="1" fill="none" fill-rule="evenodd">
        <g id="UI-APP---Particuliers-Bien" transform="translate(-1060, -303)">
            <g id="Group" transform="translate(1060, 303)">
                <g id="Group-8">
                    <g id="Group-3">
                        <mask id="mask-2" fill="white">
                            <use xlink:href="#path-1"></use>
                        </mask>
                        <g id="Clip-2"></g>
                        <path d="M18.0390975,9.20980926 L18.0390975,9.41416894 C17.9028577,11.3623978 15.9410048,13.6784741 12.0445471,16.3487738 L12.0445471,15.3746594 L8.14808932,15.3746594 C4.63378414,15.1566757 1.9089885,12.219346 1.95599122,8.69891008 C1.9069449,5.06607629 4.80817106,2.07901907 8.44100485,2.02316076 L11.5540839,2.02316076 C15.1882801,2.07561308 18.0915498,5.0633515 18.0390975,8.69754768 C18.0390975,8.69822888 18.0390975,8.69822888 18.0390975,8.69891008 L18.0390975,9.20980926 Z M19.9941384,8.3719346 C19.8919585,3.76498638 16.1617133,0.0647138965 11.5540839,0 L8.14808932,0 C3.5350103,0.230926431 -0.0671695382,4.07356948 0.000950352791,8.69209809 C-0.0671695382,13.4237057 3.70939722,17.3160763 8.44100485,17.3910082 L10.1099422,17.3910082 L10.1099422,20 L12.092231,18.746594 L12.5554463,18.4332425 C17.4941384,15.1566757 20.0009504,12.1321526 20.0009504,9.20980926 L20.0009504,8.3719346 L19.9941384,8.3719346 Z" id="Fill-1" fill="#222222" mask="url(#mask-2)"></path>
                    </g>
                    <path d="M7.20122283,7.39782016 C7.9117133,7.3753406 8.50639994,7.93324251 8.52887951,8.64373297 C8.55135907,9.35422343 7.99345716,9.94891008 7.2829667,9.97138965 C6.57247624,9.99386921 5.97778959,9.4359673 5.95531003,8.72547684 C5.95462883,8.70980926 5.95462883,8.69414169 5.95462883,8.67847411 C5.94713564,7.98160763 6.50435635,7.40871935 7.20122283,7.39782016" id="Fill-4" fill="#222222"></path>
                    <path d="M12.8006779,7.39782016 C13.5111683,7.3753406 14.105855,7.93324251 14.1283345,8.64373297 C14.1508141,9.35422343 13.5929122,9.94891008 12.8824217,9.97138965 C12.1719313,9.99386921 11.5772446,9.4359673 11.5547651,8.72547684 C11.5540839,8.70980926 11.5540839,8.69414169 11.5540839,8.67847411 C11.5465907,7.98160763 12.1038114,7.40871935 12.8006779,7.39782016" id="Fill-6" fill="#222222"></path>
                </g>
                <g id="Group-8-Copy" transform="translate(19.0002, 19) scale(-1, 1) translate(-19.0002, -19)translate(13, 13)">
                    <g id="Group-3">
                        <mask id="mask-4" fill="white">
                            <use xlink:href="#path-3"></use>
                        </mask>
                        <g id="Clip-2"></g>
                        <path d="M10.8234585,5.52588556 L10.8234585,5.64850136 C10.7417146,6.81743869 9.56460291,8.20708447 7.22672825,9.80926431 L7.22672825,9.22479564 L4.88885359,9.22479564 C2.78027048,9.09400545 1.1453931,7.33160763 1.17359473,5.21934605 C1.14416694,3.03964578 2.88490264,1.24741144 5.06460291,1.21389646 L6.93245032,1.21389646 C9.11296803,1.24536785 10.8549299,3.0380109 10.8234585,5.21852861 C10.8234585,5.21893733 10.8234585,5.21893733 10.8234585,5.21934605 L10.8234585,5.52588556 Z M11.996483,5.02316076 C11.9351751,2.25899183 9.69702798,0.0388283379 6.93245032,0 L4.88885359,0 C2.12100618,0.138555858 -0.0403017229,2.44414169 0.000570211674,5.21525886 C-0.0403017229,8.05422343 2.22563833,10.3896458 5.06460291,10.4346049 L6.06596531,10.4346049 L6.06596531,12 L7.2553386,11.2479564 L7.53326776,11.0599455 C10.496483,9.09400545 12.0005702,7.27929155 12.0005702,5.52588556 L12.0005702,5.02316076 L11.996483,5.02316076 Z" id="Fill-1" fill="#222222" mask="url(#mask-4)"></path>
                    </g>
                    <path d="M4.3207337,4.4386921 C4.74702798,4.42520436 5.10383997,4.7599455 5.1173277,5.18623978 C5.13081544,5.61253406 4.7960743,5.96934605 4.36978002,5.98283379 C3.94348574,5.99632153 3.58667375,5.66158038 3.57318602,5.2352861 C3.5727773,5.22588556 3.5727773,5.21648501 3.5727773,5.20708447 C3.56828138,4.78896458 3.90261381,4.44523161 4.3207337,4.4386921" id="Fill-4" fill="#222222"></path>
                    <path d="M7.68040672,4.4386921 C8.106701,4.42520436 8.46351299,4.7599455 8.47700073,5.18623978 C8.49048847,5.61253406 8.15574732,5.96934605 7.72945305,5.98283379 C7.30315877,5.99632153 6.94634678,5.66158038 6.93285904,5.2352861 C6.93245032,5.22588556 6.93245032,5.21648501 6.93245032,5.20708447 C6.92795441,4.78896458 7.26228683,4.44523161 7.68040672,4.4386921" id="Fill-6" fill="#222222"></path>
                </g>
            </g>
        </g>
    </g>
</svg>