<?xml version="1.0" encoding="UTF-8"?>
<svg width="26px" height="20px" viewBox="0 0 26 20" version="1.1" xmlns="http://www.w3.org/2000/svg" xmlns:xlink="http://www.w3.org/1999/xlink">
    <title>Group 3</title>
    <defs>
        <polygon id="path-1" points="7.68144745e-16 0 26.0004721 0 26.0004721 20 7.68144745e-16 20"></polygon>
    </defs>
    <g id="landing---particuliers" stroke="none" stroke-width="1" fill="none" fill-rule="evenodd">
        <g id="UI-Home---Particuliers-Copy" transform="translate(-1136, -2177)">
            <g id="Group-3" transform="translate(1136, 2177)">
                <mask id="mask-2" fill="white">
                    <use xlink:href="#path-1"></use>
                </mask>
                <g id="Clip-2"></g>
                <path d="M23.4286717,0.000948745889 C22.7785311,0.0224203634 22.1628449,0.297057331 21.711941,0.765438197 C16.9297624,5.5586023 13.2770907,9.56131127 8.83845794,14.0918226 L4.11020803,10.097103 C3.05759943,9.20628057 1.48168258,9.33760698 0.590860121,10.3907149 C-0.299962335,11.4433235 -0.16863593,13.0192404 0.884472007,13.9100628 C0.887967386,13.9135582 0.891962106,13.9165542 0.895956826,13.9200496 L7.38737607,19.412789 C8.37756717,20.2466867 9.8406332,20.1857672 10.7579207,19.2724745 C16.1358118,13.8830985 19.9642512,9.57828883 25.238779,4.29227621 C26.2304681,3.33354352 26.2574325,1.7531326 25.2986998,0.761443477 C24.8103453,0.256111456 24.131243,-0.0200235317 23.4286717,0.000948745889" id="Fill-1" fill="#FFFFFF" mask="url(#mask-2)"></path>
            </g>
        </g>
    </g>
</svg>