<svg width="42" height="25" viewBox="0 0 42 25" fill="none" xmlns="http://www.w3.org/2000/svg">
<path fill-rule="evenodd" clip-rule="evenodd" d="M41.6562 16.3083C41.4506 16.3083 41.3009 16.5865 41.2097 17.1428C40.958 18.5334 40.5342 19.8196 39.9391 21.0016C39.4118 22.0219 38.6563 22.8273 37.6719 23.418C36.6866 24.0089 35.599 24.3047 34.4087 24.3047C32.0952 24.3047 30.2405 23.3781 28.8441 21.5236C27.2409 19.3913 26.4394 16.3899 26.4394 12.5184C26.4394 8.18435 27.4124 4.89308 29.3594 2.64516C30.435 1.39331 31.9014 0.767257 33.7558 0.767257C36.1607 0.767257 37.9239 1.69467 39.0457 3.54839C39.5953 4.45273 40.0189 5.83176 40.3165 7.68576C40.3856 8.12666 40.5342 8.34643 40.7635 8.34643C40.8774 8.34643 40.9692 8.31181 41.0383 8.24204C41.1065 8.17281 41.1409 7.91788 41.1409 7.47753C41.1409 4.41812 41.2668 2.33171 41.5188 1.21915C41.5644 1.01092 41.5879 0.860108 41.5879 0.767257C41.5879 0.582105 41.4959 0.489253 41.313 0.489253C41.1294 0.489253 40.8889 0.814232 40.5912 1.46254C40.4083 1.83367 40.2139 2.01882 40.0074 2.01882C39.7554 2.01882 39.3774 1.86828 38.8742 1.5672C37.8433 0.964771 36.9789 0.564523 36.2804 0.367833C35.7296 0.212623 35.0269 0.120596 34.1838 0.0876316C34.6473 0.0340637 35.1164 0 35.5939 0H22.2179H12.0121L7.87442 4.18791L0 12.158H10.9851C11.1356 11.1017 12.0249 10.2875 13.1101 10.2875C14.3009 10.2875 15.266 11.2644 15.266 12.4695C15.266 13.6749 14.3009 14.6518 13.1101 14.6518C12.0249 14.6518 11.1356 13.8375 10.9851 12.7813H0.000279741L7.87442 20.7511L12.0118 24.939H22.2179H32.9993C33.4139 24.9786 33.8374 25 34.2713 25C34.5284 25 34.7662 24.9571 35.0154 24.939H35.5939C35.4739 24.939 35.3573 24.9245 35.2378 24.9209C37.1345 24.7404 38.8034 24.0591 40.2139 22.8095C40.5342 23.0416 40.8547 23.5397 41.1756 24.3047C41.313 24.6528 41.4727 24.8264 41.6562 24.8264C41.8391 24.8264 41.9309 24.675 41.9309 24.3739V24.0611C41.9309 23.4589 41.9082 22.9433 41.8626 22.5139C41.8165 22.0856 41.7935 21.8016 41.7935 21.6626C41.7935 20.411 41.8392 19.1133 41.9309 17.7689C41.9765 17.0967 42 16.7838 42 16.8299C42 16.4819 41.8847 16.3083 41.6562 16.3083Z" fill="black"/>
</svg>
