<?xml version="1.0" encoding="UTF-8"?>
<svg width="60px" height="60px" viewBox="0 0 60 60" version="1.1" xmlns="http://www.w3.org/2000/svg" xmlns:xlink="http://www.w3.org/1999/xlink">
    <title>Group 15</title>
    <g id="UI-app-particuliers" stroke="none" stroke-width="1" fill="none" fill-rule="evenodd">
        <g id="Group-15">
            <circle id="Oval" fill="#FFFFFF" cx="30" cy="30" r="30"></circle>
            <g id="noun-magnifying-glass-166555" transform="translate(14, 14)" fill="#1DF36C" fill-rule="nonzero">
                <path d="M0,31.4465929 L2.42098955,21.3735014 C2.42098955,21.3735014 3.27654355,20.5346895 3.85053659,20.3351381 C5.16919861,19.876866 9.34333101,18.6393379 9.34333101,18.6393379 L11.9465923,17 L11.4222439,21.8615516 L13,26.9883982 L12.9960139,32 L0,32 L0,31.4465929 Z" id="Path"></path>
                <path d="M32,31.4465929 L29.5790105,21.3735014 C29.5790105,21.3735014 28.7234564,20.5346895 28.1494634,20.3351381 C26.8308014,19.876866 22.656669,18.6393379 22.656669,18.6393379 L20.0534077,17 L20.5777561,21.8615516 L19,26.9883982 L19.0039861,32 L32,32 L32,31.4465929 Z" id="Path"></path>
                <path d="M15.5,0 C10.8057582,0 7,3.80575824 7,8.5 C7,13.1942418 10.8057582,17 15.5,17 C20.1942418,17 24,13.1942418 24,8.5 C24,3.80575824 20.1942418,0 15.5,0 Z M15.5,15.3186813 C11.7342198,15.3186813 8.68131868,12.2657802 8.68131868,8.5 C8.68131868,4.73421978 11.7342198,1.68131868 15.5,1.68131868 C19.2657802,1.68131868 22.3186813,4.73421978 22.3186813,8.5 C22.3186813,12.2657802 19.2657802,15.3186813 15.5,15.3186813 Z" id="Shape"></path>
                <rect id="Rectangle" x="15" y="17" width="2" height="3"></rect>
                <path d="M18,32 L17.6518919,21.093012 C17.6518919,20.4896386 17.2821622,20 16.8255135,20 L15.1740541,20 C14.7178378,20 14.3476757,20.4896386 14.3476757,21.093012 L14,32 L18,32 Z" id="Path"></path>
            </g>
        </g>
    </g>
</svg>