<?xml version="1.0" encoding="UTF-8"?>
<svg width="60px" height="60px" viewBox="0 0 60 60" version="1.1" xmlns="http://www.w3.org/2000/svg" xmlns:xlink="http://www.w3.org/1999/xlink">
    <title>Group 18</title>
    <defs>
        <linearGradient x1="50%" y1="0%" x2="50%" y2="100%" id="linearGradient-1">
            <stop stop-color="#FFFFFF" offset="0%"></stop>
            <stop stop-color="#EFEAE0" offset="100%"></stop>
        </linearGradient>
        <polygon id="path-2" points="0 0 25 0 25 25 0 25"></polygon>
    </defs>
    <g id="UI-app-particuliers" stroke="none" stroke-width="1" fill="none" fill-rule="evenodd">
        <g id="UI-APP---Particuliers-tableau-de-bord-02a" transform="translate(-715, -1443)">
            <g id="Group-18" transform="translate(715, 1443)">
                <g id="Group-8-Copy-4" fill="#FFFFFF">
                    <circle id="Oval" cx="30" cy="30" r="30"></circle>
                </g>
                <g id="Group-16" transform="translate(5, 5)">
                    <rect id="Rectangle-Copy-22" fill="url(#linearGradient-1)" x="0" y="0" width="50" height="50" rx="25"></rect>
                    <g id="Group-3" transform="translate(13, 13)">
                        <mask id="mask-3" fill="white">
                            <use xlink:href="#path-2"></use>
                        </mask>
                        <g id="Clip-2"></g>
                        <path d="M17.3877977,3.51613202 C16.1391907,2.29876177 14.411144,1.54624307 12.5,1.54624307 C10.5909728,1.54624307 8.86292607,2.29979191 7.61220233,3.51690463 C6.3614786,4.73427488 5.58754864,6.4172693 5.58754864,8.27435771 C5.58754864,11.0760863 6.55066148,12.0145456 7.50980545,12.9481117 C8.5930428,14.002462 9.67098833,15.0537219 9.83953307,17.8039434 L15.1612607,17.8039434 C15.3298054,15.0544945 16.407751,14.0032346 17.4909883,12.9481117 C18.4490739,12.0145456 19.4132451,11.0760863 19.4132451,8.27435771 C19.4132451,6.41649669 18.6393152,4.73427488 17.3885914,3.51510188 L17.3877977,3.51613202 Z M9.279393,19.3494138 L9.279393,22.8088881 C9.279393,22.9860725 9.35480156,23.1470322 9.47466148,23.2647259 C9.59372763,23.3834497 9.75883268,23.4547871 9.94298833,23.4547871 L15.0548949,23.4547871 C15.2377276,23.4547871 15.4041556,23.3824196 15.5229572,23.2678163 L15.5261323,23.2647259 C15.6449339,23.1490924 15.7184903,22.9881328 15.7184903,22.8088881 L15.7184903,19.3494138 L9.27833463,19.3494138 L9.279393,19.3494138 Z M16.7509261,17.8392257 C17.0724047,17.9378618 17.3070973,18.2306797 17.3070973,18.5768074 L17.3070973,22.8088881 C17.3070973,23.4086882 17.0538833,23.9567237 16.6464125,24.354101 L16.6435019,24.3571914 C16.2331206,24.7545687 15.6708638,25 15.0559533,25 L9.94404669,25 C9.32701946,25 8.76370428,24.7535385 8.35438132,24.3551311 C7.94611673,23.9608443 7.69184436,23.4115211 7.69184436,22.8081155 L7.69184436,18.5757772 C7.69184436,18.2296495 7.9254786,17.9368317 8.24801556,17.8381956 C8.09084825,15.6955003 7.24018677,14.8654635 6.38635019,14.0336238 C5.19674708,12.8747141 4,11.708851 4,8.27332756 C4,5.98873025 4.952,3.92046274 6.48980545,2.42340895 C8.02787549,0.926355152 10.1538677,0 12.5,0 C14.8442802,0 16.969214,0.926612687 18.5091362,2.42443909 C20.0490584,3.92046274 21,5.98873025 21,8.27332756 C21,11.708851 19.8032529,12.8747141 18.6136498,14.0336238 C17.7587549,14.865721 16.9091518,15.6944702 16.752249,17.8381956 L16.7509261,17.8392257 Z M11.0693541,22.1750932 C10.6311907,22.1750932 10.2755798,21.8289655 10.2755798,21.4024868 C10.2755798,20.976008 10.6311907,20.6298803 11.0693541,20.6298803 L13.929323,20.6298803 C14.3674864,20.6298803 14.7230973,20.976008 14.7230973,21.4024868 C14.7230973,21.8289655 14.3674864,22.1750932 13.929323,22.1750932 L11.0693541,22.1750932 Z" id="Fill-1" fill="#006855" mask="url(#mask-3)"></path>
                    </g>
                </g>
            </g>
        </g>
    </g>
</svg>