<svg width="36" height="37" viewBox="0 0 36 37" fill="none" xmlns="http://www.w3.org/2000/svg">
<path d="M11.1458 6.3421L6.86061 8.80848L9.26033 4.40424L6.86061 0L11.1458 2.46637L15.431 0L13.0313 4.40424L15.431 8.80848L11.1458 6.3421ZM31.7148 23.6067L36 21.1403L33.6003 25.5446L36 29.9488L31.7148 27.4824L27.4296 29.9488L29.8293 25.5446L27.4296 21.1403L31.7148 23.6067ZM36 0L33.6003 4.40424L36 8.80848L31.7148 6.3421L27.4296 8.80848L29.8293 4.40424L27.4296 0L31.7148 2.46637L36 0ZM21.1561 18.9911L25.3384 14.6925L21.7046 10.9577L17.5222 15.2563L21.1561 18.9911ZM22.9216 9.31937L26.9325 13.4417C27.601 14.0936 27.601 15.2387 26.9325 15.9257L6.92918 36.4847C6.26068 37.1718 5.14653 37.1718 4.51232 36.4847L0.501369 32.3623C-0.167123 31.7105 -0.167123 30.5654 0.501369 29.8783L20.5047 9.31937C21.1732 8.63231 22.2873 8.63231 22.9216 9.31937Z" fill="#1DF36C"/>
</svg>
