<?xml version="1.0" encoding="UTF-8"?>
<svg width="30px" height="30px" viewBox="0 0 30 30" version="1.1" xmlns="http://www.w3.org/2000/svg" xmlns:xlink="http://www.w3.org/1999/xlink">
    <title>Fill 1</title>
    <g id="landing---particuliers" stroke="none" stroke-width="1" fill="none" fill-rule="evenodd">
        <g id="UI-APP---Particuliers-tableau-de-bord-01a" transform="translate(-105, -353)" fill="#1D2B28">
            <path d="M130.714653,363.730992 L120.692462,355.36502 C120.292817,355.030973 119.706743,355.030973 119.307098,355.36502 L109.284906,363.730992 L109.284906,379.828669 C109.284906,380.10986 109.398478,380.378366 109.598836,380.577103 C109.800266,380.774783 110.073481,380.886836 110.357411,380.886836 L129.642148,380.886836 C129.926078,380.886836 130.199294,380.774783 130.400723,380.577103 C130.601081,380.378366 130.714653,380.10986 130.714653,379.828669 L130.714653,363.730992 Z M107.14311,365.519623 L106.762751,365.836756 C106.312749,366.213087 105.635603,366.158117 105.253101,365.713074 C104.87167,365.26803 104.927385,364.598879 105.37953,364.222548 L117.923877,353.750813 C119.12174,352.749729 120.87782,352.749729 122.075683,353.750813 L134.62003,364.222548 C135.072175,364.598879 135.128961,365.26803 134.746459,365.713074 C134.363957,366.158117 133.687882,366.213087 133.236809,365.836756 L132.85645,365.519623 L132.85645,379.828669 C132.85645,380.671186 132.517877,381.477761 131.915731,382.071857 C131.312513,382.665953 130.49501,383 129.642148,383 L110.357411,383 C109.50455,383 108.687046,382.665953 108.0849,382.071857 C107.481683,381.477761 107.14311,380.671186 107.14311,379.828669 L107.14311,365.519623 Z" id="Fill-1"></path>
        </g>
    </g>
</svg>