<?xml version="1.0" encoding="UTF-8"?>
<svg width="70px" height="40px" viewBox="0 0 70 40" version="1.1" xmlns="http://www.w3.org/2000/svg" xmlns:xlink="http://www.w3.org/1999/xlink">
    <title>Group 20</title>
    <g id="landing---particuliers" stroke="none" stroke-width="1" fill="none" fill-rule="evenodd">
        <g id="UI-APP---Particuliers-tableau-de-bord-01a" transform="translate(-85, -60)" fill="#1D2B28">
            <g id="Group-20" transform="translate(85, 60)">
                <path d="M69.4549751,26.0932246 C69.1290245,26.0932246 68.8917679,26.53847 68.7471966,27.4285212 C68.3480734,29.6534294 67.6762161,31.7113157 66.7329549,33.6026196 C65.8970135,35.2350394 64.6992005,36.5237457 63.1386288,37.4687383 C61.5767267,38.4141705 59.8525145,38.8875459 57.9655487,38.8875459 C54.29805,38.8875459 51.3578425,37.4050063 49.1440391,34.4377294 C46.6025113,31.0260862 45.3319691,26.2237655 45.3319691,20.0294486 C45.3319691,13.0949608 46.8743586,7.82893436 49.9609113,4.23224842 C51.6660543,2.22930356 53.9907251,1.22761137 56.9304892,1.22761137 C60.7430027,1.22761137 63.5381955,2.71146957 65.316511,5.67742786 C66.18793,7.12436543 66.8593439,9.33081335 67.3311962,12.2972112 C67.4407334,13.0026592 67.6762161,13.3542843 68.0398616,13.3542843 C68.220354,13.3542843 68.3658122,13.2989034 68.4753494,13.1872624 C68.5835561,13.0765005 68.638103,12.6686153 68.638103,11.9640463 C68.638103,7.06898446 68.8376646,3.73074303 69.2372312,1.95064062 C69.3095169,1.61747577 69.3467684,1.376173 69.3467684,1.22761137 C69.3467684,0.931367163 69.2008667,0.782805529 68.9108371,0.782805529 C68.6199207,0.782805529 68.2385363,1.30277125 67.766684,2.34006549 C67.4766545,2.93387249 67.1684427,3.2301167 66.8411616,3.2301167 C66.441595,3.2301167 65.8424667,2.98925346 65.0446638,2.50752698 C63.410476,1.54363449 62.0401531,0.903237149 60.9328079,0.588532624 C60.0596151,0.34019735 58.9456179,0.192954311 57.6089986,0.140210536 C58.3438288,0.054501901 59.0875284,0 59.844532,0 L38.6395601,0 L22.4604361,0 L15.9010681,6.7006571 L3.41782497,19.4527833 L20.832457,19.4527833 C21.0710439,17.7627849 22.4808358,16.4600136 24.2010567,16.4600136 C26.0889094,16.4600136 27.6188817,18.0229875 27.6188817,19.951212 C27.6188817,21.8798761 26.0889094,23.4428499 24.2010567,23.4428499 C22.4808358,23.4428499 21.0710439,22.1400787 20.832457,20.4500802 L3.41782497,20.4500802 L15.9010681,33.2017669 L22.4599927,39.902424 L38.6395601,39.902424 L55.7313457,39.902424 C56.3885686,39.9657165 57.0599825,40 57.7478048,40 C58.155354,40 58.5323036,39.9314331 58.9274356,39.902424 L59.844532,39.902424 C59.6542833,39.902424 59.4693562,39.8791288 59.2799944,39.8734149 C62.2867225,39.5846428 64.9324658,38.4946048 67.1684427,36.4951761 C67.6762161,36.8665802 68.1844329,37.6634508 68.6930933,38.8875459 C68.9108371,39.4444322 69.1640586,39.7222161 69.4549751,39.7222161 C69.7450046,39.7222161 69.8904629,39.4800343 69.8904629,38.9983078 L69.8904629,38.4976815 C69.8904629,37.5342285 69.8545418,36.709228 69.7822561,36.0222403 C69.7090835,35.3370107 69.672719,34.8825352 69.672719,34.6601323 C69.672719,32.657627 69.7450046,30.5812804 69.8904629,28.4302134 C69.9627485,27.3546799 70,26.8540536 70,26.9278949 C70,26.3710085 69.8172903,26.0932246 69.4549751,26.0932246" id="Fill-16"></path>
                <path d="M3.41782497,19.9512999 C3.41782497,20.9156319 2.65283884,21.6971189 1.70869075,21.6971189 C0.764986126,21.6971189 0,20.9156319 0,19.9512999 C0,18.9869679 0.764986126,18.205481 1.70869075,18.205481 C2.65283884,18.205481 3.41782497,18.9869679 3.41782497,19.9512999" id="Fill-18"></path>
            </g>
        </g>
    </g>
</svg>