<?xml version="1.0" encoding="UTF-8"?>
<svg width="22px" height="26px" viewBox="0 0 22 26" version="1.1" xmlns="http://www.w3.org/2000/svg" xmlns:xlink="http://www.w3.org/1999/xlink">
    <title>Group 5</title>
    <g id="landing---particuliers" stroke="none" stroke-width="1" fill="none" fill-rule="evenodd">
        <g id="UI-Home---Particuliers-Copy" transform="translate(-432, -2173)" fill="#FFFFFF">
            <g id="Group-5" transform="translate(432, 2173)">
                <path d="M11,2 C8.8,2 7,3.8 7,6 C7,8.2 8.8,10 11,10 C13.2,10 15,8.2 15,6 C15,3.8 13.2,2 11,2 M11,12 C7.7,12 5,9.3 5,6 C5,2.7 7.7,0 11,0 C14.3,0 17,2.7 17,6 C17,9.3 14.3,12 11,12" id="Fill-1"></path>
                <path d="M2,24 L20,24 L20,21.8 C20,18 16.9,15 13.2,15 L8.8,15 C5,15 2,18.1 2,21.8 L2,24 Z M22,26 L0,26 L0,21.8 C0,16.9 3.9,13 8.8,13 L13.2,13 C18.1,13 22,16.9 22,21.8 L22,26 Z" id="Fill-3"></path>
            </g>
        </g>
    </g>
</svg>