<?xml version="1.0" encoding="UTF-8"?>
<svg width="23px" height="23px" viewBox="0 0 23 23" version="1.1" xmlns="http://www.w3.org/2000/svg" xmlns:xlink="http://www.w3.org/1999/xlink">
    <title>Group 15 Copy</title>
    <g id="UI-app-particuliers" stroke="none" stroke-width="1" fill="none" fill-rule="evenodd">
        <g id="UI-APP---Particuliers-tableau-de-bord-01a" transform="translate(-715, -165)" fill="#173B3C">
            <g id="Group" transform="translate(300, 165)">
                <g id="Group-15-Copy" transform="translate(415, 0)">
                    <path d="M20.5357143,21.3571429 L2.46428571,21.3571429 C2.01085714,21.3571429 1.64285714,20.9891429 1.64285714,20.5357143 L1.64285714,9.03571429 L21.3571429,9.03571429 L21.3571429,20.5357143 C21.3571429,20.9891429 20.9891429,21.3571429 20.5357143,21.3571429 M2.46428571,3.28571429 L5.75,3.28571429 L5.75,4.10714286 C5.75,4.56057143 6.118,4.92857143 6.57142857,4.92857143 C7.02485714,4.92857143 7.39285714,4.56057143 7.39285714,4.10714286 L7.39285714,3.28571429 L15.6071429,3.28571429 L15.6071429,4.10714286 C15.6071429,4.56057143 15.9751429,4.92857143 16.4285714,4.92857143 C16.882,4.92857143 17.25,4.56057143 17.25,4.10714286 L17.25,3.28571429 L20.5357143,3.28571429 C20.9891429,3.28571429 21.3571429,3.65371429 21.3571429,4.10714286 L21.3571429,7.39285714 L1.64285714,7.39285714 L1.64285714,4.10714286 C1.64285714,3.65371429 2.01085714,3.28571429 2.46428571,3.28571429 M20.5357143,1.64285714 L17.25,1.64285714 L17.25,0.821428571 C17.25,0.368 16.882,0 16.4285714,0 C15.9751429,0 15.6071429,0.368 15.6071429,0.821428571 L15.6071429,1.64285714 L7.39285714,1.64285714 L7.39285714,0.821428571 C7.39285714,0.368 7.02485714,0 6.57142857,0 C6.118,0 5.75,0.368 5.75,0.821428571 L5.75,1.64285714 L2.46428571,1.64285714 C1.10317857,1.64285714 0,2.74603571 0,4.10714286 L0,20.5357143 C0,21.8968214 1.10317857,23 2.46428571,23 L20.5357143,23 C21.8968214,23 23,21.8968214 23,20.5357143 L23,4.10714286 C23,2.74603571 21.8968214,1.64285714 20.5357143,1.64285714" id="Fill-1"></path>
                    <path d="M6.57142857,12.3214286 L4.92857143,12.3214286 C4.47514286,12.3214286 4.10714286,12.6894286 4.10714286,13.1428571 C4.10714286,13.5962857 4.47514286,13.9642857 4.92857143,13.9642857 L6.57142857,13.9642857 C7.02485714,13.9642857 7.39285714,13.5962857 7.39285714,13.1428571 C7.39285714,12.6894286 7.02485714,12.3214286 6.57142857,12.3214286" id="Fill-3"></path>
                    <path d="M12.3214286,12.3214286 L10.6785714,12.3214286 C10.2251429,12.3214286 9.85714286,12.6894286 9.85714286,13.1428571 C9.85714286,13.5962857 10.2251429,13.9642857 10.6785714,13.9642857 L12.3214286,13.9642857 C12.7748571,13.9642857 13.1428571,13.5962857 13.1428571,13.1428571 C13.1428571,12.6894286 12.7748571,12.3214286 12.3214286,12.3214286" id="Fill-5"></path>
                    <path d="M18.0714286,12.3214286 L16.4285714,12.3214286 C15.9751429,12.3214286 15.6071429,12.6894286 15.6071429,13.1428571 C15.6071429,13.5962857 15.9751429,13.9642857 16.4285714,13.9642857 L18.0714286,13.9642857 C18.5248571,13.9642857 18.8928571,13.5962857 18.8928571,13.1428571 C18.8928571,12.6894286 18.5248571,12.3214286 18.0714286,12.3214286" id="Fill-7"></path>
                    <path d="M6.57142857,16.4285714 L4.92857143,16.4285714 C4.47514286,16.4285714 4.10714286,16.7965714 4.10714286,17.25 C4.10714286,17.7034286 4.47514286,18.0714286 4.92857143,18.0714286 L6.57142857,18.0714286 C7.02485714,18.0714286 7.39285714,17.7034286 7.39285714,17.25 C7.39285714,16.7965714 7.02485714,16.4285714 6.57142857,16.4285714" id="Fill-9"></path>
                    <path d="M12.3214286,16.4285714 L10.6785714,16.4285714 C10.2251429,16.4285714 9.85714286,16.7965714 9.85714286,17.25 C9.85714286,17.7034286 10.2251429,18.0714286 10.6785714,18.0714286 L12.3214286,18.0714286 C12.7748571,18.0714286 13.1428571,17.7034286 13.1428571,17.25 C13.1428571,16.7965714 12.7748571,16.4285714 12.3214286,16.4285714" id="Fill-11"></path>
                    <path d="M18.0714286,16.4285714 L16.4285714,16.4285714 C15.9751429,16.4285714 15.6071429,16.7965714 15.6071429,17.25 C15.6071429,17.7034286 15.9751429,18.0714286 16.4285714,18.0714286 L18.0714286,18.0714286 C18.5248571,18.0714286 18.8928571,17.7034286 18.8928571,17.25 C18.8928571,16.7965714 18.5248571,16.4285714 18.0714286,16.4285714" id="Fill-13"></path>
                </g>
            </g>
        </g>
    </g>
</svg>