<?xml version="1.0" encoding="UTF-8"?>
<svg width="34px" height="40px" viewBox="0 0 34 40" version="1.1" xmlns="http://www.w3.org/2000/svg" xmlns:xlink="http://www.w3.org/1999/xlink">
    <title>Group 5</title>
    <g id="landing---particuliers" stroke="none" stroke-width="1" fill="none" fill-rule="evenodd">
        <g id="UI-APP---Particuliers-tableau-de-bord-01a" transform="translate(-103, -489)" fill="#1D2B28">
            <g id="Group-5" transform="translate(103, 489)">
                <path d="M16.9230769,3.07692308 C13.5384615,3.07692308 10.7692308,5.84615385 10.7692308,9.23076923 C10.7692308,12.6153846 13.5384615,15.3846154 16.9230769,15.3846154 C20.3076923,15.3846154 23.0769231,12.6153846 23.0769231,9.23076923 C23.0769231,5.84615385 20.3076923,3.07692308 16.9230769,3.07692308 M16.9230769,18.4615385 C11.8461538,18.4615385 7.69230769,14.3076923 7.69230769,9.23076923 C7.69230769,4.15384615 11.8461538,0 16.9230769,0 C22,0 26.1538462,4.15384615 26.1538462,9.23076923 C26.1538462,14.3076923 22,18.4615385 16.9230769,18.4615385" id="Fill-1"></path>
                <path d="M3.07692308,36.9230769 L30.7692308,36.9230769 L30.7692308,33.5384615 C30.7692308,27.6923077 26,23.0769231 20.3076923,23.0769231 L13.5384615,23.0769231 C7.69230769,23.0769231 3.07692308,27.8461538 3.07692308,33.5384615 L3.07692308,36.9230769 Z M33.8461538,40 L0,40 L0,33.5384615 C0,26 6,20 13.5384615,20 L20.3076923,20 C27.8461538,20 33.8461538,26 33.8461538,33.5384615 L33.8461538,40 Z" id="Fill-3"></path>
            </g>
        </g>
    </g>
</svg>