<?xml version="1.0" encoding="UTF-8"?>
<svg width="30px" height="30px" viewBox="0 0 30 30" version="1.1" xmlns="http://www.w3.org/2000/svg" xmlns:xlink="http://www.w3.org/1999/xlink">
    <title>Group 11</title>
    <defs>
        <polygon id="path-1" points="0 0 14.3456979 0 14.3456979 14.3460453 0 14.3460453"></polygon>
        <polygon id="path-3" points="0 0 14.3456979 0 14.3456979 14.3460453 0 14.3460453"></polygon>
    </defs>
    <g id="landing---particuliers" stroke="none" stroke-width="1" fill="none" fill-rule="evenodd">
        <g id="UI-APP---Particuliers-tableau-de-bord-01a" transform="translate(-105, -217)">
            <g id="Group-11" transform="translate(105, 217)">
                <path d="M12.6701453,26.7710424 C12.6701453,27.2204123 12.4658288,27.5883082 12.2204596,27.8747301 C11.9343535,28.1608363 11.5257206,28.3241 11.1170877,28.3241 L3.1879048,28.3241 C2.77927193,28.3241 2.41137604,28.1608363 2.12526987,27.8747301 C1.8391637,27.5883082 1.67558424,27.2204123 1.67558424,26.7710424 L1.67558424,18.8825965 C1.67558424,18.4332266 1.8391637,18.0653307 2.12526987,17.7795404 C2.41137604,17.4931184 2.77927193,17.3295389 3.1879048,17.3295389 L11.1170877,17.3295389 C11.5257206,17.3295389 11.9343535,17.4931184 12.2204596,17.7795404 L12.2204596,17.8202773 C12.5065658,18.1060677 12.6701453,18.4742794 12.6701453,18.8825965 L12.6701453,26.7710424 Z M13.4059371,16.5940629 C12.8337247,16.0218506 12.0161432,15.6539547 11.1170877,15.6539547 L3.1879048,15.6539547 C2.3295863,15.6539547 1.51200477,16.0218506 0.940108232,16.5940629 C0.367580108,17.1662753 0,17.983541 0,18.8825965 L0,26.7710424 C0,27.6704137 0.367580108,28.4876794 0.940108232,29.0598918 C1.51200477,29.6321041 2.3295863,30 3.1879048,30 L11.1170877,30 C12.0161432,30 12.8337247,29.6321041 13.4059371,29.0598918 C13.9781494,28.4876794 14.3457295,27.6704137 14.3457295,26.7710424 L14.3457295,18.8825965 C14.3457295,18.024278 13.9781494,17.2477492 13.446674,16.6351157 L13.4059371,16.5940629 Z" id="Fill-1" fill="#1D2B28"></path>
                <path d="M12.6701453,11.1170877 C12.6701453,11.5257206 12.4658288,11.9343535 12.2204596,12.1797227 L12.2204596,12.2207754 C11.9343535,12.4661446 11.5257206,12.6701453 11.1170877,12.6701453 L3.1879048,12.6701453 C2.77927193,12.6701453 2.41137604,12.4661446 2.12526987,12.2207754 L2.12526987,12.1797227 C1.8391637,11.9343535 1.67558424,11.5257206 1.67558424,11.1170877 L1.67558424,3.18822059 C1.67558424,2.77927193 1.8391637,2.41137604 2.12526987,2.12558566 C2.41137604,1.83947949 2.77927193,1.67590003 3.1879048,1.67590003 L11.1170877,1.67590003 C11.5257206,1.67590003 11.9343535,1.83947949 12.2204596,2.12558566 L12.2204596,2.16632263 C12.5065658,2.41137604 12.6701453,2.77927193 12.6701453,3.18822059 L12.6701453,11.1170877 Z M13.4059371,0.940108232 C12.8337247,0.326843137 12.0161432,0 11.1170877,0 L3.1879048,0 C2.3295863,0 1.51200477,0.326843137 0.940108232,0.940108232 C0.367580108,1.51232057 0,2.3295863 0,3.18822059 L0,11.1170877 C0,12.016459 0.367580108,12.7929878 0.940108232,13.4059371 C1.51200477,13.9781494 2.3295863,14.3460453 3.1879048,14.3460453 L11.1170877,14.3460453 C12.0161432,14.3460453 12.7929878,13.9781494 13.4059371,13.4059371 C13.9781494,12.7929878 14.3457295,12.016459 14.3457295,11.1170877 L14.3457295,3.18822059 C14.3457295,2.3295863 13.9781494,1.55305754 13.446674,0.981160993 L13.4059371,0.940108232 Z" id="Fill-3" fill="#1D2B28"></path>
                <g id="Group-7" transform="translate(15.654, 0)">
                    <mask id="mask-2" fill="white">
                        <use xlink:href="#path-1"></use>
                    </mask>
                    <g id="Clip-6"></g>
                    <path d="M12.6701453,11.1170877 C12.6701453,11.5257206 12.5065658,11.9343535 12.2204596,12.1797227 L12.1797227,12.2207754 C11.9343535,12.5068816 11.5664576,12.6701453 11.1578247,12.6701453 L3.22864177,12.6701453 C2.82000891,12.6701453 2.41137604,12.4661446 2.12526987,12.2207754 L2.12526987,12.1797227 C1.87990067,11.9343535 1.67558424,11.5257206 1.67558424,11.1170877 L1.67558424,3.18822059 C1.67558424,2.77927193 1.87990067,2.41137604 2.12526987,2.12558566 C2.41137604,1.83947949 2.82000891,1.67590003 3.22864177,1.67590003 L11.1578247,1.67590003 C11.5664576,1.67590003 11.9343535,1.83947949 12.2204596,2.12558566 C12.5065658,2.41137604 12.6701453,2.77927193 12.6701453,3.18822059 L12.6701453,11.1170877 Z M11.1578247,0 L3.22864177,0 C2.3295863,0 1.55305754,0.326843137 0.939792441,0.940108232 C0.367580108,1.51232057 0,2.3295863 0,3.18822059 L0,11.1170877 C0,12.016459 0.367580108,12.7929878 0.939792441,13.4059371 C1.55305754,13.9781494 2.3295863,14.3460453 3.22864177,14.3460453 L11.1578247,14.3460453 C12.0161432,14.3460453 12.792672,13.9781494 13.3648843,13.446674 L13.4059371,13.4059371 C14.0188864,12.7929878 14.3457295,12.016459 14.3457295,11.1170877 L14.3457295,3.18822059 C14.3457295,2.3295863 14.0188864,1.51232057 13.4059371,0.940108232 C12.8337247,0.326843137 12.0161432,0 11.1578247,0 Z" id="Fill-5" fill="#1D2B28" mask="url(#mask-2)"></path>
                </g>
                <g id="Group-10" transform="translate(15.654, 15.654)">
                    <mask id="mask-4" fill="white">
                        <use xlink:href="#path-3"></use>
                    </mask>
                    <g id="Clip-9"></g>
                    <path d="M12.6701453,11.1170877 C12.6701453,11.5664576 12.5065658,11.9343535 12.2204596,12.2207754 C11.9343535,12.5068816 11.5664576,12.6701453 11.1578247,12.6701453 L3.22864177,12.6701453 C2.82000891,12.6701453 2.41137604,12.5068816 2.12526987,12.2207754 C1.87990067,11.9343535 1.67558424,11.5664576 1.67558424,11.1170877 L1.67558424,3.22864177 C1.67558424,2.77927193 1.87990067,2.41137604 2.12526987,2.12558566 C2.41137604,1.8391637 2.82000891,1.67558424 3.22864177,1.67558424 L11.1578247,1.67558424 C11.5664576,1.67558424 11.9343535,1.8391637 12.2204596,2.12558566 C12.5065658,2.41137604 12.6701453,2.77927193 12.6701453,3.22864177 L12.6701453,11.1170877 Z M13.4059371,0.940108232 C12.8337247,0.367895899 12.0161432,0 11.1578247,0 L3.22864177,0 C2.3295863,0 1.55305754,0.367895899 0.939792441,0.940108232 C0.367580108,1.51232057 0,2.3295863 0,3.22864177 L0,11.1170877 C0,12.016459 0.367580108,12.8337247 0.939792441,13.4059371 C1.55305754,13.9781494 2.3295863,14.3460453 3.22864177,14.3460453 L11.1578247,14.3460453 C12.0161432,14.3460453 12.8337247,13.9781494 13.4059371,13.4059371 C14.0188864,12.8337247 14.3457295,12.016459 14.3457295,11.1170877 L14.3457295,3.22864177 C14.3457295,2.3295863 14.0188864,1.51232057 13.4059371,0.940108232 L13.4059371,0.940108232 Z" id="Fill-8" fill="#1D2B28" mask="url(#mask-4)"></path>
                </g>
            </g>
        </g>
    </g>
</svg>