<?xml version="1.0" encoding="UTF-8"?>
<svg width="19px" height="20px" viewBox="0 0 19 20" version="1.1" xmlns="http://www.w3.org/2000/svg" xmlns:xlink="http://www.w3.org/1999/xlink">
    <title>Fill 1</title>
    <g id="landing---particuliers" stroke="none" stroke-width="1" fill="none" fill-rule="evenodd">
        <g id="UI-APP---Particuliers-tableau-de-bord-01a" transform="translate(-111, -761)" fill="#1D2B28">
            <path d="M129.58303,776.3144 C130.085296,776.7488 130.140569,777.5056 129.707195,778.0072 C128.038583,779.9368 125.803621,781 123.416457,781 C119.745992,781 116.323856,778.416 115.086216,774.2 L112.201593,774.2 C111.537512,774.2 111,773.6632 111,773 C111,772.3368 111.537512,771.8 112.201593,771.8 L114.652841,771.8 C114.615993,771.2672 114.615993,770.7328 114.652841,770.2 L112.201593,770.2 C111.537512,770.2 111,769.6632 111,769 C111,768.3368 111.537512,767.8 112.201593,767.8 L115.086216,767.8 C116.325458,763.5776 119.753202,761 123.416457,761 C125.803621,761 128.038583,762.0632 129.707996,763.9928 C130.14137,764.4944 130.086097,765.252 129.583831,765.6856 C129.082366,766.1184 128.32296,766.0632 127.888784,765.5616 C126.682385,764.168 125.095482,763.4 123.416457,763.4 C120.756131,763.4 118.600474,765.288 117.607958,767.8 L121.814333,767.8 C122.478414,767.8 123.015926,768.3368 123.015926,769 C123.015926,769.6632 122.478414,770.2 121.814333,770.2 L117.037602,770.2 C116.989539,770.732 116.989539,771.268 117.037602,771.8 L121.814333,771.8 C122.478414,771.8 123.015926,772.3368 123.015926,773 C123.015926,773.6632 122.478414,774.2 121.814333,774.2 L117.607958,774.2 C118.603678,776.72 120.764141,778.6 123.416457,778.6 C125.095482,778.6 126.682385,777.832 127.887983,776.4384 C128.322159,775.9368 129.079963,775.8832 129.58303,776.3144" id="Fill-1"></path>
        </g>
    </g>
</svg>