<?xml version="1.0" encoding="UTF-8"?>
<svg width="30px" height="25px" viewBox="0 0 30 25" version="1.1" xmlns="http://www.w3.org/2000/svg" xmlns:xlink="http://www.w3.org/1999/xlink">
    <title>Fill 1</title>
    <g id="landing---particuliers" stroke="none" stroke-width="1" fill="none" fill-rule="evenodd">
        <g id="UI-Home---Particuliers-Copy" transform="translate(-76, -2174)" fill="#FFFFFF" stroke="#FFFFFF">
            <g id="Group-18" transform="translate(60, 2156)">
                <g id="Group-3" transform="translate(16, 18)">
                    <path d="M26.3192612,15.4353562 L24.6701847,15.4353562 L16.0290237,15.4353562 C15.6332454,15.4353562 15.3693931,15.6992084 15.3693931,16.0949868 C15.3693931,16.4907652 15.6332454,16.7546174 16.0290237,16.7546174 L24.6701847,16.7546174 C25.4617414,16.7546174 26.055409,17.414248 26.055409,18.1398417 C26.055409,18.8654354 25.4617414,19.525066 24.6701847,19.525066 L14.9736148,19.525066 C14.5778364,19.525066 14.3139842,19.7889182 14.3139842,20.1846966 C14.3139842,20.5804749 14.5778364,20.8443272 14.9736148,20.8443272 L22.4274406,20.8443272 C23.2189974,20.8443272 23.8126649,21.5039578 23.8126649,22.2295515 C23.8126649,23.0211082 23.2189974,23.6147757 22.4274406,23.6147757 L13.9841689,23.6147757 L13.4564644,23.6147757 L8.83905013,23.6147757 C4.68337731,23.6807388 1.31926121,20.2506596 1.31926121,16.0949868 C1.31926121,13.9841689 2.24274406,11.939314 3.75989446,10.4881266 L12.7968338,1.38522427 C12.8627968,1.31926121 12.9287599,1.25329815 13.060686,1.25329815 C13.1266491,1.25329815 13.2585752,1.31926121 13.3245383,1.38522427 C14.2480211,2.30870712 14.2480211,3.89182058 13.3245383,4.81530343 L10.7519789,7.3878628 L10.7519789,7.45382586 L10.6200528,7.58575198 L10.6200528,7.65171504 C10.6200528,7.7176781 10.6200528,7.78364116 10.5540897,7.84960422 L10.5540897,7.91556728 L10.5540897,9.2348285 C10.5540897,11.4116095 8.77308707,13.1926121 6.59630607,13.1926121 C6.2005277,13.1926121 5.93667546,13.4564644 5.93667546,13.8522427 C5.93667546,14.2480211 6.2005277,14.5118734 6.59630607,14.5118734 C9.49868074,14.5118734 11.8733509,12.1372032 11.8733509,9.2348285 L11.8733509,8.57519789 L25.5936675,8.57519789 C26.3852243,8.57519789 26.9788918,9.2348285 26.9788918,9.96042216 C26.9788918,10.7519789 26.3852243,11.3456464 25.5936675,11.3456464 L17.5461741,11.3456464 L17.0184697,11.3456464 C16.6226913,11.3456464 16.3588391,11.6094987 16.3588391,12.005277 C16.3588391,12.4010554 16.6226913,12.6649077 17.0184697,12.6649077 L17.5461741,12.6649077 L25.5936675,12.6649077 L26.3192612,12.6649077 C27.1108179,12.6649077 27.7044855,13.3245383 27.7044855,14.0501319 C27.7044855,14.7757256 27.1108179,15.4353562 26.3192612,15.4353562 M29.0237467,14.0501319 C29.0237467,13.060686 28.4300792,12.1372032 27.6385224,11.6754617 C28.0343008,11.2137203 28.298153,10.6200528 28.298153,9.8944591 C28.298153,8.37730871 27.1108179,7.18997361 25.5936675,7.18997361 L12.7968338,7.18997361 L14.2480211,5.73878628 C15.6992084,4.28759894 15.6992084,1.91292876 14.2480211,0.461741425 C13.9182058,0.131926121 13.5224274,0 13.060686,0 C12.5989446,0 12.2031662,0.197889182 11.8733509,0.527704485 L2.83641161,9.5646438 C1.05540897,11.2137203 0,13.6543536 0,16.0949868 C0,20.9762533 3.95778364,25 8.83905013,25 L13.4564644,25 L13.9841689,25 L22.4274406,25 C23.944591,25 25.1319261,23.8126649 25.1319261,22.2955145 C25.1319261,21.76781 25,21.3060686 24.7361478,20.9102902 C26.1873351,20.8443272 27.3087071,19.6569921 27.3087071,18.2058047 C27.3087071,17.6781003 27.176781,17.1503958 26.8469657,16.7546174 C28.1002639,16.4248021 29.0237467,15.3034301 29.0237467,14.0501319" id="Fill-1"></path>
                </g>
            </g>
        </g>
    </g>
</svg>