<?xml version="1.0" encoding="UTF-8"?>
<svg width="18px" height="20px" viewBox="0 0 18 20" version="1.1" xmlns="http://www.w3.org/2000/svg" xmlns:xlink="http://www.w3.org/1999/xlink">
    <title>Group 9</title>
    <g id="landing---particuliers" stroke="none" stroke-width="1" fill="none" fill-rule="evenodd">
        <g id="UI-APP---Particuliers-tableau-de-bord-01a" transform="translate(-111, -635)" fill="#1D2B28">
            <g id="Group-9" transform="translate(111, 635)">
                <path d="M15.9368421,16.9263158 C15.9368421,17.6631579 15.3473684,18.2526316 14.6105263,18.2526316 L3.07368421,18.2526316 C2.33684211,18.2526316 1.74736842,17.6631579 1.74736842,16.9263158 L1.74736842,3.07368421 C1.74736842,2.33684211 2.33684211,1.74736842 3.07368421,1.74736842 L14.6315789,1.74736842 C15.3684211,1.74736842 15.9578947,2.33684211 15.9578947,3.07368421 L15.9578947,16.9263158 L15.9368421,16.9263158 Z M14.6105263,0 L3.07368421,0 C1.36842105,0 0,1.36842105 0,3.07368421 L0,16.9263158 C0,18.6105263 1.36842105,20 3.07368421,20 L14.6315789,20 C16.3157895,20 17.6842105,18.6315789 17.6842105,16.9263158 L17.6842105,3.07368421 C17.6842105,1.36842105 16.3157895,0 14.6105263,0 L14.6105263,0 Z" id="Fill-1"></path>
                <path d="M12.2947368,4.92631579 L5.38947368,4.92631579 C4.90526316,4.92631579 4.50526316,5.32631579 4.50526316,5.81052632 C4.50526316,6.29473684 4.90526316,6.69473684 5.38947368,6.69473684 L12.2947368,6.69473684 C12.7789474,6.69473684 13.1789474,6.29473684 13.1789474,5.81052632 C13.1789474,5.32631579 12.7789474,4.92631579 12.2947368,4.92631579" id="Fill-3"></path>
                <path d="M12.2947368,9.11578947 L5.38947368,9.11578947 C4.90526316,9.11578947 4.50526316,9.51578947 4.50526316,10 C4.50526316,10.4842105 4.90526316,10.8842105 5.38947368,10.8842105 L12.2947368,10.8842105 C12.7789474,10.8842105 13.1789474,10.4842105 13.1789474,10 C13.1789474,9.51578947 12.7789474,9.11578947 12.2947368,9.11578947" id="Fill-5"></path>
                <path d="M12.2947368,13.3052632 L5.38947368,13.3052632 C4.90526316,13.3052632 4.50526316,13.7052632 4.50526316,14.1894737 C4.50526316,14.6736842 4.90526316,15.0736842 5.38947368,15.0736842 L12.2947368,15.0736842 C12.7789474,15.0736842 13.1789474,14.6736842 13.1789474,14.1894737 C13.1789474,13.7052632 12.7789474,13.3052632 12.2947368,13.3052632" id="Fill-7"></path>
            </g>
        </g>
    </g>
</svg>