<?xml version="1.0" encoding="UTF-8"?>
<svg width="220px" height="210px" viewBox="0 0 220 210" version="1.1" xmlns="http://www.w3.org/2000/svg" xmlns:xlink="http://www.w3.org/1999/xlink">
    <title>Fill 1</title>
    <g id="UI-landing---notaire" stroke="none" stroke-width="1" fill="none" fill-rule="evenodd" opacity="0.201195126">
        <g id="UI-Home---Notaires" transform="translate(-610, -2016)" fill="#A7C3C5">
            <path d="M682.34156,2091.44766 C687.582157,2090.67283 692.115626,2087.38569 694.472716,2082.65065 L720,2031.65304 C720.267137,2031.65304 720.322136,2031.77044 720.384991,2031.89566 L745.527284,2082.65847 C747.884374,2087.38569 752.417843,2090.67283 757.682011,2091.44766 L814.142171,2100.3151 L773.458799,2139.82338 C769.640313,2143.52532 767.911781,2148.85518 768.823189,2154.04416 L777.795844,2210.28554 L727.503403,2183.94147 C725.15417,2182.71271 722.577085,2182.09441 720,2182.09441 C717.422915,2182.09441 714.84583,2182.71271 712.496597,2183.94147 L661.575598,2209.8316 L671.176811,2154.06764 C672.088219,2148.85518 670.359687,2143.52532 666.541201,2139.82338 L626.085681,2099.57941 L682.34156,2091.44766 Z M610.803882,2095.04003 C608.886782,2100.90209 610.458175,2107.21809 614.881647,2111.51485 L655.69073,2151.3988 L646.097375,2207.17841 C645.044541,2213.25179 647.495915,2219.27821 652.500802,2222.90189 C657.497833,2226.5334 664.026972,2227.01081 669.503277,2224.13065 L720.196424,2197.79441 L770.496723,2224.13848 C772.869527,2225.3829 775.454468,2225.99337 778.015839,2225.99337 C781.35505,2225.99337 784.662833,2224.96026 787.499198,2222.90189 C792.504085,2219.27821 794.955459,2213.25179 793.902625,2207.18624 L784.427124,2151.02313 L825.118353,2111.51485 C829.541825,2107.21809 831.113218,2100.90209 829.196118,2095.04003 C827.286875,2089.17796 822.297702,2084.98295 816.169268,2084.09855 L759.614824,2075.72418 L734.472532,2024.96919 C731.730451,2019.44367 726.183433,2016 720,2016 C713.816567,2016 708.269549,2019.44367 705.527468,2024.96919 L680.06304,2075.95897 L623.822875,2084.09855 C617.694441,2084.98295 612.713125,2089.17796 610.803882,2095.04003 Z" id="Fill-1"></path>
        </g>
    </g>
</svg>