<?xml version="1.0" encoding="UTF-8"?>
<svg width="178px" height="210px" viewBox="0 0 178 210" version="1.1" xmlns="http://www.w3.org/2000/svg" xmlns:xlink="http://www.w3.org/1999/xlink">
    <title>Group 5</title>
    <g id="landing---particuliers" stroke="none" stroke-width="1" fill="none" fill-rule="evenodd" opacity="0.198962984">
        <g id="UI-Home---Particuliers-Copy" transform="translate(-631, -2996)" fill="#A8C3C5">
            <g id="Group-5" transform="translate(631, 2996)">
                <path d="M88.8461538,16.1538462 C71.0769231,16.1538462 56.5384615,30.6923077 56.5384615,48.4615385 C56.5384615,66.2307692 71.0769231,80.7692308 88.8461538,80.7692308 C106.615385,80.7692308 121.153846,66.2307692 121.153846,48.4615385 C121.153846,30.6923077 106.615385,16.1538462 88.8461538,16.1538462 M88.8461538,96.9230769 C62.1923077,96.9230769 40.3846154,75.1153846 40.3846154,48.4615385 C40.3846154,21.8076923 62.1923077,0 88.8461538,0 C115.5,0 137.307692,21.8076923 137.307692,48.4615385 C137.307692,75.1153846 115.5,96.9230769 88.8461538,96.9230769" id="Fill-1"></path>
                <path d="M16.1538462,193.846154 L161.538462,193.846154 L161.538462,176.076923 C161.538462,145.384615 136.5,121.153846 106.615385,121.153846 L71.0769231,121.153846 C40.3846154,121.153846 16.1538462,146.192308 16.1538462,176.076923 L16.1538462,193.846154 Z M177.692308,210 L0,210 L0,176.076923 C0,136.5 31.5,105 71.0769231,105 L106.615385,105 C146.192308,105 177.692308,136.5 177.692308,176.076923 L177.692308,210 Z" id="Fill-3"></path>
            </g>
        </g>
    </g>
</svg>