<?xml version="1.0" encoding="UTF-8"?>
<svg width="645px" height="372px" viewBox="0 0 645 372" version="1.1" xmlns="http://www.w3.org/2000/svg" xmlns:xlink="http://www.w3.org/1999/xlink">
    <title>Group 2 Copy 5</title>
    <defs>
        <rect id="path-1" x="0" y="0" width="503" height="95" rx="11"></rect>
        <filter x="-6.2%" y="-30.5%" width="112.3%" height="165.3%" filterUnits="objectBoundingBox" id="filter-2">
            <feOffset dx="0" dy="2" in="SourceAlpha" result="shadowOffsetOuter1"></feOffset>
            <feGaussianBlur stdDeviation="10" in="shadowOffsetOuter1" result="shadowBlurOuter1"></feGaussianBlur>
            <feColorMatrix values="0 0 0 0 0   0 0 0 0 0   0 0 0 0 0  0 0 0 0.124562937 0" type="matrix" in="shadowBlurOuter1"></feColorMatrix>
        </filter>
        <polygon id="path-3" points="0 0 16 0 16 13 0 13"></polygon>
        <rect id="path-5" x="0" y="0" width="503" height="95" rx="11"></rect>
        <filter x="-6.2%" y="-30.5%" width="112.3%" height="165.3%" filterUnits="objectBoundingBox" id="filter-6">
            <feOffset dx="0" dy="2" in="SourceAlpha" result="shadowOffsetOuter1"></feOffset>
            <feGaussianBlur stdDeviation="10" in="shadowOffsetOuter1" result="shadowBlurOuter1"></feGaussianBlur>
            <feColorMatrix values="0 0 0 0 0   0 0 0 0 0   0 0 0 0 0  0 0 0 0.124562937 0" type="matrix" in="shadowBlurOuter1"></feColorMatrix>
        </filter>
        <path d="M7.43664596,6.59813665 L2.36832298,11.6664596 C2.01801242,12.0167702 1.4515528,12.0167702 1.10496894,11.6664596 L0.262732919,10.8242236 C-0.0875776398,10.473913 -0.0875776398,9.90745342 0.262732919,9.56086957 L3.8552795,5.96832298 L0.262732919,2.3757764 C-0.0875776398,2.02546584 -0.0875776398,1.45900621 0.262732919,1.11242236 L1.10124224,0.262732919 C1.4515528,-0.0875776398 2.01801242,-0.0875776398 2.36459627,0.262732919 L7.43291925,5.3310559 C7.78695652,5.68136646 7.78695652,6.24782609 7.43664596,6.59813665 L7.43664596,6.59813665 Z" id="path-7"></path>
        <rect id="path-9" x="0" y="0" width="503" height="95" rx="11"></rect>
        <filter x="-6.2%" y="-30.5%" width="112.3%" height="165.3%" filterUnits="objectBoundingBox" id="filter-10">
            <feOffset dx="0" dy="2" in="SourceAlpha" result="shadowOffsetOuter1"></feOffset>
            <feGaussianBlur stdDeviation="10" in="shadowOffsetOuter1" result="shadowBlurOuter1"></feGaussianBlur>
            <feColorMatrix values="0 0 0 0 0   0 0 0 0 0   0 0 0 0 0  0 0 0 0.124562937 0" type="matrix" in="shadowBlurOuter1"></feColorMatrix>
        </filter>
        <polygon id="path-11" points="0 0 16 0 16 13 0 13"></polygon>
        <path d="M7.43664596,6.59813665 L2.36832298,11.6664596 C2.01801242,12.0167702 1.4515528,12.0167702 1.10496894,11.6664596 L0.262732919,10.8242236 C-0.0875776398,10.473913 -0.0875776398,9.90745342 0.262732919,9.56086957 L3.8552795,5.96832298 L0.262732919,2.3757764 C-0.0875776398,2.02546584 -0.0875776398,1.45900621 0.262732919,1.11242236 L1.10124224,0.262732919 C1.4515528,-0.0875776398 2.01801242,-0.0875776398 2.36459627,0.262732919 L7.43291925,5.3310559 C7.78695652,5.68136646 7.78695652,6.24782609 7.43664596,6.59813665 L7.43664596,6.59813665 Z" id="path-13"></path>
        <path d="M18.75,10.5 L17.625,10.5 L17.625,7.125 C17.625,3.196875 14.428125,0 10.5,0 C6.571875,0 3.375,3.196875 3.375,7.125 L3.375,10.5 L2.25,10.5 C1.0078125,10.5 0,11.5078125 0,12.75 L0,21.75 C0,22.9921875 1.0078125,24 2.25,24 L18.75,24 C19.9921875,24 21,22.9921875 21,21.75 L21,12.75 C21,11.5078125 19.9921875,10.5 18.75,10.5 Z M13.875,10.5 L7.125,10.5 L7.125,7.125 C7.125,5.2640625 8.6390625,3.75 10.5,3.75 C12.3609375,3.75 13.875,5.2640625 13.875,7.125 L13.875,10.5 Z" id="path-15"></path>
    </defs>
    <g id="UI-landing---particuliers" stroke="none" stroke-width="1" fill="none" fill-rule="evenodd">
        <g id="Group-2-Copy-5" transform="translate(20, 0)">
            <g id="Group-7" transform="translate(43, 146)">
                <g id="Rectangle">
                    <use fill="black" fill-opacity="1" filter="url(#filter-2)" xlink:href="#path-1"></use>
                    <use fill="#FFFFFF" fill-rule="evenodd" xlink:href="#path-1"></use>
                </g>
                <g id="Group" transform="translate(16, 28)">
                    <circle id="Oval" fill="#1DF36C" cx="19" cy="19" r="19"></circle>
                    <g id="Group-3" transform="translate(11, 12)">
                        <mask id="mask-4" fill="white">
                            <use xlink:href="#path-3"></use>
                        </mask>
                        <g id="Clip-2"></g>
                        <path d="M14.4173611,0.000723639652 C14.0172824,0.0146800762 13.6384061,0.193192637 13.3609322,0.497637694 C10.4181108,3.61316873 8.17035696,6.21490815 5.43894427,9.15971626 L2.52930914,6.56316993 C1.88156272,5.9841401 0.911786764,6.06950156 0.363599091,6.75401608 C-0.184588583,7.43820604 -0.10377392,8.46254357 0.544279781,9.0415734 C0.546430742,9.04384538 0.548888983,9.04579279 0.551347223,9.04806477 L4.54598834,12.618316 C5.15532475,13.160345 6.0556554,13.1207477 6.62012892,12.5271123 C9.92953545,9.02404672 12.2854519,6.22594347 15.5312514,2.79006354 C16.1415097,2.16689242 16.1581028,1.13963378 15.568125,0.495041148 C15.2676051,0.166578037 14.8497042,-0.0129082286 14.4173611,0.000723639652" id="Fill-1" fill="#FFFFFF" mask="url(#mask-4)"></path>
                    </g>
                </g>
                <rect id="Rectangle-Copy-4" fill="#E6E7E8" x="70" y="53" width="181.40625" height="18" rx="6"></rect>
                <g id="Compromis-de-vente" transform="translate(71.54, 25.77)" fill="#000000" fill-rule="nonzero">
                    <path d="M6.129,13.5 C4.857,13.5 3.759,13.218 2.835,12.654 C1.911,12.09 1.2075,11.2995 0.7245,10.2825 C0.2415,9.2655 0,8.088 0,6.75 C0,5.412 0.2415,4.2345 0.7245,3.2175 C1.2075,2.2005 1.911,1.41 2.835,0.846 C3.759,0.282 4.857,0 6.129,0 C7.107,0 7.9845,0.1695 8.7615,0.5085 C9.5385,0.8475 10.1895,1.3305 10.7145,1.9575 C11.2395,2.5845 11.631,3.327 11.889,4.185 L9.981,4.698 C9.717,3.774 9.261,3.0585 8.613,2.5515 C7.965,2.0445 7.137,1.791 6.129,1.791 C5.223,1.791 4.461,1.998 3.843,2.412 C3.225,2.826 2.7615,3.408 2.4525,4.158 C2.1435,4.908 1.989,5.79 1.989,6.804 C1.989,7.794 2.145,8.6565 2.457,9.3915 C2.769,10.1265 3.2355,10.6965 3.8565,11.1015 C4.4775,11.5065 5.235,11.709 6.129,11.709 C7.137,11.709 7.965,11.4555 8.613,10.9485 C9.261,10.4415 9.717,9.726 9.981,8.802 L11.889,9.315 C11.631,10.173 11.2395,10.9155 10.7145,11.5425 C10.1895,12.1695 9.5385,12.6525 8.7615,12.9915 C7.9845,13.3305 7.107,13.5 6.129,13.5 Z" id="Path"></path>
                    <path d="M18.09,13.5 C17.136,13.5 16.299,13.2825 15.579,12.8475 C14.859,12.4125 14.304,11.8065 13.914,11.0295 C13.524,10.2525 13.329,9.363 13.329,8.361 C13.329,7.353 13.527,6.462 13.923,5.688 C14.319,4.914 14.877,4.3125 15.597,3.8835 C16.317,3.4545 17.148,3.24 18.09,3.24 C19.044,3.24 19.8825,3.456 20.6055,3.888 C21.3285,4.32 21.885,4.9245 22.275,5.7015 C22.665,6.4785 22.86,7.365 22.86,8.361 C22.86,9.369 22.6635,10.2615 22.2705,11.0385 C21.8775,11.8155 21.321,12.42 20.601,12.852 C19.881,13.284 19.044,13.5 18.09,13.5 Z M15.327,8.361 C15.327,9.405 15.564,10.227 16.038,10.827 C16.512,11.427 17.196,11.727 18.09,11.727 C18.99,11.727 19.677,11.4225 20.151,10.8135 C20.625,10.2045 20.862,9.387 20.862,8.361 C20.862,7.323 20.625,6.5055 20.151,5.9085 C19.677,5.3115 18.99,5.013 18.09,5.013 C17.178,5.013 16.4895,5.313 16.0245,5.913 C15.5595,6.513 15.327,7.329 15.327,8.361 Z" id="Shape"></path>
                    <path d="M36.495,7.173 C36.495,6.717 36.414,6.321 36.252,5.985 C36.09,5.649 35.8605,5.391 35.5635,5.211 C35.2665,5.031 34.923,4.941 34.533,4.941 C34.167,4.941 33.834,5.025 33.534,5.193 C33.234,5.361 32.9955,5.6115 32.8185,5.9445 C32.6415,6.2775 32.553,6.681 32.553,7.155 L32.544,13.23 L30.663,13.23 L30.672,7.209 C30.672,6.747 30.591,6.345 30.429,6.003 C30.267,5.661 30.0375,5.3985 29.7405,5.2155 C29.4435,5.0325 29.097,4.941 28.701,4.941 C28.311,4.941 27.966,5.034 27.666,5.22 C27.366,5.406 27.1335,5.6655 26.9685,5.9985 C26.8035,6.3315 26.721,6.717 26.721,7.155 L26.721,13.23 L24.831,13.23 L24.831,3.51 L26.505,3.51 L26.505,4.554 C26.823,4.152 27.2235,3.837 27.7065,3.609 C28.1895,3.381 28.719,3.267 29.295,3.267 C29.955,3.267 30.525,3.405 31.005,3.681 C31.485,3.957 31.857,4.344 32.121,4.842 C32.421,4.35 32.8305,3.9645 33.3495,3.6855 C33.8685,3.4065 34.443,3.267 35.073,3.267 C35.757,3.267 36.348,3.4095 36.846,3.6945 C37.344,3.9795 37.7235,4.3815 37.9845,4.9005 C38.2455,5.4195 38.376,6.027 38.376,6.723 L38.367,13.23 L36.486,13.23 L36.495,7.173 Z" id="Path"></path>
                    <path d="M45.279,13.5 C44.211,13.5 43.317,13.182 42.597,12.546 L42.597,17.55 L40.707,17.55 L40.707,3.51 L42.381,3.51 L42.381,4.383 C42.735,4.017 43.152,3.735 43.632,3.537 C44.112,3.339 44.649,3.24 45.243,3.24 C46.137,3.24 46.9185,3.4605 47.5875,3.9015 C48.2565,4.3425 48.7725,4.9515 49.1355,5.7285 C49.4985,6.5055 49.68,7.383 49.68,8.361 C49.68,9.333 49.5,10.209 49.14,10.989 C48.78,11.769 48.267,12.3825 47.601,12.8295 C46.935,13.2765 46.161,13.5 45.279,13.5 Z M42.381,8.361 C42.381,9.423 42.5985,10.2615 43.0335,10.8765 C43.4685,11.4915 44.13,11.799 45.018,11.799 C45.6,11.799 46.0905,11.649 46.4895,11.349 C46.8885,11.049 47.187,10.641 47.385,10.125 C47.583,9.609 47.682,9.021 47.682,8.361 C47.682,7.707 47.583,7.122 47.385,6.606 C47.187,6.09 46.884,5.6835 46.476,5.3865 C46.068,5.0895 45.561,4.941 44.955,4.941 C44.097,4.941 43.4535,5.2485 43.0245,5.8635 C42.5955,6.4785 42.381,7.311 42.381,8.361 Z" id="Shape"></path>
                    <path d="M51.66,3.51 L53.334,3.51 L53.334,5.058 C53.574,4.632 53.874,4.299 54.234,4.059 C54.504,3.855 54.816,3.702 55.17,3.6 C55.524,3.498 55.884,3.447 56.25,3.447 C56.448,3.447 56.667,3.468 56.907,3.51 L56.907,5.274 C56.703,5.214 56.466,5.184 56.196,5.184 C55.944,5.184 55.6965,5.2155 55.4535,5.2785 C55.2105,5.3415 54.987,5.439 54.783,5.571 C53.967,6.093 53.559,7.011 53.559,8.325 L53.559,13.23 L51.66,13.23 L51.66,3.51 Z" id="Path"></path>
                    <path d="M62.838,13.5 C61.884,13.5 61.047,13.2825 60.327,12.8475 C59.607,12.4125 59.052,11.8065 58.662,11.0295 C58.272,10.2525 58.077,9.363 58.077,8.361 C58.077,7.353 58.275,6.462 58.671,5.688 C59.067,4.914 59.625,4.3125 60.345,3.8835 C61.065,3.4545 61.896,3.24 62.838,3.24 C63.792,3.24 64.6305,3.456 65.3535,3.888 C66.0765,4.32 66.633,4.9245 67.023,5.7015 C67.413,6.4785 67.608,7.365 67.608,8.361 C67.608,9.369 67.4115,10.2615 67.0185,11.0385 C66.6255,11.8155 66.069,12.42 65.349,12.852 C64.629,13.284 63.792,13.5 62.838,13.5 Z M60.075,8.361 C60.075,9.405 60.312,10.227 60.786,10.827 C61.26,11.427 61.944,11.727 62.838,11.727 C63.738,11.727 64.425,11.4225 64.899,10.8135 C65.373,10.2045 65.61,9.387 65.61,8.361 C65.61,7.323 65.373,6.5055 64.899,5.9085 C64.425,5.3115 63.738,5.013 62.838,5.013 C61.926,5.013 61.2375,5.313 60.7725,5.913 C60.3075,6.513 60.075,7.329 60.075,8.361 Z" id="Shape"></path>
                    <path d="M81.243,7.173 C81.243,6.717 81.162,6.321 81,5.985 C80.838,5.649 80.6085,5.391 80.3115,5.211 C80.0145,5.031 79.671,4.941 79.281,4.941 C78.915,4.941 78.582,5.025 78.282,5.193 C77.982,5.361 77.7435,5.6115 77.5665,5.9445 C77.3895,6.2775 77.301,6.681 77.301,7.155 L77.292,13.23 L75.411,13.23 L75.42,7.209 C75.42,6.747 75.339,6.345 75.177,6.003 C75.015,5.661 74.7855,5.3985 74.4885,5.2155 C74.1915,5.0325 73.845,4.941 73.449,4.941 C73.059,4.941 72.714,5.034 72.414,5.22 C72.114,5.406 71.8815,5.6655 71.7165,5.9985 C71.5515,6.3315 71.469,6.717 71.469,7.155 L71.469,13.23 L69.579,13.23 L69.579,3.51 L71.253,3.51 L71.253,4.554 C71.571,4.152 71.9715,3.837 72.4545,3.609 C72.9375,3.381 73.467,3.267 74.043,3.267 C74.703,3.267 75.273,3.405 75.753,3.681 C76.233,3.957 76.605,4.344 76.869,4.842 C77.169,4.35 77.5785,3.9645 78.0975,3.6855 C78.6165,3.4065 79.191,3.267 79.821,3.267 C80.505,3.267 81.096,3.4095 81.594,3.6945 C82.092,3.9795 82.4715,4.3815 82.7325,4.9005 C82.9935,5.4195 83.124,6.027 83.124,6.723 L83.115,13.23 L81.234,13.23 L81.243,7.173 Z" id="Path"></path>
                    <path d="M85.644,0.09 L87.525,0.09 L87.525,1.917 L85.644,1.917 L85.644,0.09 Z M85.644,3.51 L87.525,3.51 L87.525,13.23 L85.644,13.23 L85.644,3.51 Z" id="Shape"></path>
                    <path d="M93.942,13.491 C92.76,13.491 91.797,13.23 91.053,12.708 C90.309,12.186 89.853,11.451 89.685,10.503 L91.611,10.206 C91.731,10.716 92.0085,11.115 92.4435,11.403 C92.8785,11.691 93.42,11.835 94.068,11.835 C94.656,11.835 95.1165,11.715 95.4495,11.475 C95.7825,11.235 95.949,10.905 95.949,10.485 C95.949,10.227 95.889,10.0245 95.769,9.8775 C95.649,9.7305 95.4135,9.591 95.0625,9.459 C94.7115,9.327 94.137,9.153 93.339,8.937 C92.487,8.715 91.8225,8.481 91.3455,8.235 C90.8685,7.989 90.525,7.7025 90.315,7.3755 C90.105,7.0485 90,6.642 90,6.156 C90,5.574 90.156,5.0625 90.468,4.6215 C90.78,4.1805 91.221,3.84 91.791,3.6 C92.361,3.36 93.024,3.24 93.78,3.24 C94.518,3.24 95.181,3.357 95.769,3.591 C96.357,3.825 96.8295,4.158 97.1865,4.59 C97.5435,5.022 97.758,5.523 97.83,6.093 L95.904,6.444 C95.832,5.964 95.5965,5.586 95.1975,5.31 C94.7985,5.034 94.281,4.896 93.645,4.896 C93.117,4.896 92.691,5.0025 92.367,5.2155 C92.043,5.4285 91.881,5.709 91.881,6.057 C91.881,6.279 91.95,6.462 92.088,6.606 C92.226,6.75 92.484,6.891 92.862,7.029 C93.24,7.167 93.819,7.335 94.599,7.533 C95.427,7.743 96.0765,7.9755 96.5475,8.2305 C97.0185,8.4855 97.359,8.7855 97.569,9.1305 C97.779,9.4755 97.884,9.903 97.884,10.413 C97.884,11.049 97.7265,11.598 97.4115,12.06 C97.0965,12.522 96.6435,12.876 96.0525,13.122 C95.4615,13.368 94.758,13.491 93.942,13.491 Z" id="Path"></path>
                    <path d="M107.334,13.5 C106.452,13.5 105.678,13.2765 105.012,12.8295 C104.346,12.3825 103.833,11.769 103.473,10.989 C103.113,10.209 102.933,9.333 102.933,8.361 C102.933,7.383 103.1145,6.5055 103.4775,5.7285 C103.8405,4.9515 104.3565,4.3425 105.0255,3.9015 C105.6945,3.4605 106.476,3.24 107.37,3.24 C108.426,3.24 109.308,3.552 110.016,4.176 L110.016,0.27 L111.906,0.27 L111.906,13.23 L110.232,13.23 L110.232,12.348 C109.872,12.72 109.449,13.005 108.963,13.203 C108.477,13.401 107.934,13.5 107.334,13.5 Z M104.931,8.361 C104.931,9.021 105.03,9.609 105.228,10.125 C105.426,10.641 105.7245,11.049 106.1235,11.349 C106.5225,11.649 107.013,11.799 107.595,11.799 C108.483,11.799 109.1445,11.4915 109.5795,10.8765 C110.0145,10.2615 110.232,9.423 110.232,8.361 C110.232,7.311 110.0175,6.4785 109.5885,5.8635 C109.1595,5.2485 108.516,4.941 107.658,4.941 C107.052,4.941 106.545,5.0895 106.137,5.3865 C105.729,5.6835 105.426,6.09 105.228,6.606 C105.03,7.122 104.931,7.707 104.931,8.361 Z" id="Shape"></path>
                    <path d="M118.737,13.5 C117.777,13.5 116.931,13.2885 116.199,12.8655 C115.467,12.4425 114.8985,11.8485 114.4935,11.0835 C114.0885,10.3185 113.886,9.441 113.886,8.451 C113.886,7.401 114.084,6.483 114.48,5.697 C114.876,4.911 115.434,4.305 116.154,3.879 C116.874,3.453 117.705,3.24 118.647,3.24 C119.577,3.24 120.381,3.447 121.059,3.861 C121.737,4.275 122.2575,4.8675 122.6205,5.6385 C122.9835,6.4095 123.165,7.32 123.165,8.37 C123.165,8.484 123.159,8.661 123.147,8.901 L115.902,8.901 C115.98,9.807 116.253,10.5045 116.721,10.9935 C117.189,11.4825 117.831,11.727 118.647,11.727 C119.229,11.727 119.736,11.595 120.168,11.331 C120.6,11.067 120.936,10.683 121.176,10.179 L123.021,10.764 C122.649,11.622 122.079,12.2925 121.311,12.7755 C120.543,13.2585 119.685,13.5 118.737,13.5 Z M121.221,7.434 C121.119,6.576 120.8625,5.94 120.4515,5.526 C120.0405,5.112 119.463,4.905 118.719,4.905 C117.921,4.905 117.2895,5.1195 116.8245,5.5485 C116.3595,5.9775 116.067,6.606 115.947,7.434 L121.221,7.434 Z" id="Shape"></path>
                    <polygon id="Path" points="127.863 3.51 129.762 3.51 132.345 10.872 134.928 3.51 136.827 3.51 133.299 13.23 131.391 13.23"></polygon>
                    <path d="M142.758,13.5 C141.798,13.5 140.952,13.2885 140.22,12.8655 C139.488,12.4425 138.9195,11.8485 138.5145,11.0835 C138.1095,10.3185 137.907,9.441 137.907,8.451 C137.907,7.401 138.105,6.483 138.501,5.697 C138.897,4.911 139.455,4.305 140.175,3.879 C140.895,3.453 141.726,3.24 142.668,3.24 C143.598,3.24 144.402,3.447 145.08,3.861 C145.758,4.275 146.2785,4.8675 146.6415,5.6385 C147.0045,6.4095 147.186,7.32 147.186,8.37 C147.186,8.484 147.18,8.661 147.168,8.901 L139.923,8.901 C140.001,9.807 140.274,10.5045 140.742,10.9935 C141.21,11.4825 141.852,11.727 142.668,11.727 C143.25,11.727 143.757,11.595 144.189,11.331 C144.621,11.067 144.957,10.683 145.197,10.179 L147.042,10.764 C146.67,11.622 146.1,12.2925 145.332,12.7755 C144.564,13.2585 143.706,13.5 142.758,13.5 Z M145.242,7.434 C145.14,6.576 144.8835,5.94 144.4725,5.526 C144.0615,5.112 143.484,4.905 142.74,4.905 C141.942,4.905 141.3105,5.1195 140.8455,5.5485 C140.3805,5.9775 140.088,6.606 139.968,7.434 L145.242,7.434 Z" id="Shape"></path>
                    <path d="M156.006,8.451 C156.006,7.497 155.829,6.6885 155.475,6.0255 C155.121,5.3625 154.479,5.031 153.549,5.031 C152.811,5.031 152.2155,5.283 151.7625,5.787 C151.3095,6.291 151.083,7.086 151.083,8.172 L151.083,13.23 L149.175,13.23 L149.175,3.51 L150.858,3.51 L150.858,4.671 C151.224,4.215 151.677,3.864 152.217,3.618 C152.757,3.372 153.375,3.249 154.071,3.249 C155.091,3.249 155.8875,3.5055 156.4605,4.0185 C157.0335,4.5315 157.419,5.13 157.617,5.814 C157.815,6.498 157.914,7.17 157.914,7.83 L157.914,13.23 L156.006,13.23 L156.006,8.451 Z" id="Path"></path>
                    <path d="M165.816,13.23 C165.258,13.338 164.745,13.392 164.277,13.392 C163.605,13.392 163.0185,13.284 162.5175,13.068 C162.0165,12.852 161.643,12.513 161.397,12.051 C161.247,11.769 161.1495,11.4795 161.1045,11.1825 C161.0595,10.8855 161.037,10.524 161.037,10.098 L161.037,9.405 L161.037,5.022 L159.174,5.022 L159.174,3.51 L161.037,3.51 L161.037,0.81 L162.927,0.81 L162.927,3.51 L165.816,3.51 L165.816,5.022 L162.927,5.022 L162.927,9.315 L162.927,9.828 C162.927,10.134 162.939,10.3815 162.963,10.5705 C162.987,10.7595 163.041,10.923 163.125,11.061 C163.269,11.301 163.4715,11.4735 163.7325,11.5785 C163.9935,11.6835 164.313,11.736 164.691,11.736 C165.015,11.736 165.39,11.703 165.816,11.637 L165.816,13.23 Z" id="Path"></path>
                    <path d="M172.17,13.5 C171.21,13.5 170.364,13.2885 169.632,12.8655 C168.9,12.4425 168.3315,11.8485 167.9265,11.0835 C167.5215,10.3185 167.319,9.441 167.319,8.451 C167.319,7.401 167.517,6.483 167.913,5.697 C168.309,4.911 168.867,4.305 169.587,3.879 C170.307,3.453 171.138,3.24 172.08,3.24 C173.01,3.24 173.814,3.447 174.492,3.861 C175.17,4.275 175.6905,4.8675 176.0535,5.6385 C176.4165,6.4095 176.598,7.32 176.598,8.37 C176.598,8.484 176.592,8.661 176.58,8.901 L169.335,8.901 C169.413,9.807 169.686,10.5045 170.154,10.9935 C170.622,11.4825 171.264,11.727 172.08,11.727 C172.662,11.727 173.169,11.595 173.601,11.331 C174.033,11.067 174.369,10.683 174.609,10.179 L176.454,10.764 C176.082,11.622 175.512,12.2925 174.744,12.7755 C173.976,13.2585 173.118,13.5 172.17,13.5 Z M174.654,7.434 C174.552,6.576 174.2955,5.94 173.8845,5.526 C173.4735,5.112 172.896,4.905 172.152,4.905 C171.354,4.905 170.7225,5.1195 170.2575,5.5485 C169.7925,5.9775 169.5,6.606 169.38,7.434 L174.654,7.434 Z" id="Shape"></path>
                </g>
                <g id="Group-8" transform="translate(330, 46)">
                    <rect id="Rectangle" fill="#1DF36C" opacity="0.119931176" x="0" y="0" width="157" height="32" rx="16"></rect>
                    <g id="Signer-le-document" transform="translate(13.511, 11.717)" fill="#000000" fill-rule="nonzero">
                        <path d="M4.123,10.493 C3.39966667,10.493 2.74633333,10.3681667 2.163,10.1185 C1.57966667,9.86883333 1.10016667,9.5095 0.7245,9.0405 C0.348833333,8.5715 0.107333333,8.022 0,7.392 L1.526,7.161 C1.62866667,7.567 1.80716667,7.917 2.0615,8.211 C2.31583333,8.505 2.62733333,8.729 2.996,8.883 C3.36466667,9.037 3.76833333,9.114 4.207,9.114 C4.613,9.114 4.98866667,9.04866667 5.334,8.918 C5.67933333,8.78733333 5.9535,8.60066667 6.1565,8.358 C6.3595,8.11533333 6.461,7.83066667 6.461,7.504 C6.461,7.15866667 6.35016667,6.88216667 6.1285,6.6745 C5.90683333,6.46683333 5.59533333,6.30233333 5.194,6.181 L2.611,5.418 C1.97166667,5.23133333 1.442,4.94666667 1.022,4.564 C0.602,4.18133333 0.392,3.62366667 0.392,2.891 C0.392,2.289 0.548333333,1.76983333 0.861,1.3335 C1.17366667,0.897166667 1.60183333,0.565833333 2.1455,0.3395 C2.68916667,0.113166667 3.30166667,0 3.983,0 C4.65966667,0 5.26983333,0.116666667 5.8135,0.35 C6.35716667,0.583333333 6.80983333,0.921666667 7.1715,1.365 C7.53316667,1.80833333 7.78166667,2.338 7.917,2.954 L6.349,3.22 C6.27433333,2.842 6.1215,2.51416667 5.8905,2.2365 C5.6595,1.95883333 5.37366667,1.74766667 5.033,1.603 C4.69233333,1.45833333 4.32366667,1.386 3.927,1.386 C3.563,1.386 3.22933333,1.44666667 2.926,1.568 C2.62266667,1.68933333 2.38233333,1.85966667 2.205,2.079 C2.02766667,2.29833333 1.939,2.54566667 1.939,2.821 C1.939,3.19433333 2.0825,3.47783333 2.3695,3.6715 C2.6565,3.86516667 3.03566667,4.02733333 3.507,4.158 L5.369,4.683 C5.82633333,4.809 6.23583333,4.95833333 6.5975,5.131 C6.95916667,5.30366667 7.28116667,5.5755 7.5635,5.9465 C7.84583333,6.3175 7.987,6.804 7.987,7.406 C7.987,8.05933333 7.81316667,8.61816667 7.4655,9.0825 C7.11783333,9.54683333 6.65116667,9.898 6.0655,10.136 C5.47983333,10.374 4.83233333,10.493 4.123,10.493 Z" id="Path"></path>
                        <path d="M9.618,0.063 L11.081,0.063 L11.081,1.484 L9.618,1.484 L9.618,0.063 Z M9.618,2.723 L11.081,2.723 L11.081,10.283 L9.618,10.283 L9.618,2.723 Z" id="Shape"></path>
                        <path d="M16.296,13.853 C15.6706667,13.853 15.0908333,13.7095 14.5565,13.4225 C14.0221667,13.1355 13.6033333,12.7283333 13.3,12.201 L14.651,11.515 C14.8096667,11.823 15.0371667,12.0551667 15.3335,12.2115 C15.6298333,12.3678333 15.9553333,12.446 16.31,12.446 C16.94,12.446 17.4253333,12.278 17.766,11.942 C18.1066667,11.606 18.2723333,11.116 18.263,10.472 L18.263,9.758 C17.7076667,10.248 17.0146667,10.493 16.184,10.493 C15.498,10.493 14.896,10.3191667 14.378,9.9715 C13.86,9.62383333 13.461,9.14666667 13.181,8.54 C12.901,7.93333333 12.761,7.252 12.761,6.496 C12.761,5.73533333 12.9021667,5.05283333 13.1845,4.4485 C13.4668333,3.84416667 13.8681667,3.3705 14.3885,3.0275 C14.9088333,2.6845 15.5166667,2.513 16.212,2.513 C16.674,2.513 17.0916667,2.59 17.465,2.744 C17.8383333,2.898 18.1626667,3.11733333 18.438,3.402 L18.438,2.723 L19.733,2.723 L19.733,10.486 C19.733,10.9293333 19.7003333,11.3026667 19.635,11.606 C19.481,12.3526667 19.1123333,12.9138333 18.529,13.2895 C17.9456667,13.6651667 17.2013333,13.853 16.296,13.853 Z M14.315,6.496 C14.315,7.00933333 14.392,7.46666667 14.546,7.868 C14.7,8.26933333 14.9321667,8.58666667 15.2425,8.82 C15.5528333,9.05333333 15.9343333,9.17 16.387,9.17 C17.0776667,9.17 17.5921667,8.93083333 17.9305,8.4525 C18.2688333,7.97416667 18.438,7.322 18.438,6.496 C18.438,5.67933333 18.2711667,5.03183333 17.9375,4.5535 C17.6038333,4.07516667 17.1033333,3.836 16.436,3.836 C15.9646667,3.836 15.5703333,3.9515 15.253,4.1825 C14.9356667,4.4135 14.7,4.72966667 14.546,5.131 C14.392,5.53233333 14.315,5.98733333 14.315,6.496 Z" id="Shape"></path>
                        <path d="M26.999,6.566 C26.999,5.824 26.8613333,5.19516667 26.586,4.6795 C26.3106667,4.16383333 25.8113333,3.906 25.088,3.906 C24.514,3.906 24.0508333,4.102 23.6985,4.494 C23.3461667,4.886 23.17,5.50433333 23.17,6.349 L23.17,10.283 L21.686,10.283 L21.686,2.723 L22.995,2.723 L22.995,3.626 C23.2796667,3.27133333 23.632,2.99833333 24.052,2.807 C24.472,2.61566667 24.9526667,2.52 25.494,2.52 C26.2873333,2.52 26.9068333,2.7195 27.3525,3.1185 C27.7981667,3.5175 28.098,3.983 28.252,4.515 C28.406,5.047 28.483,5.56966667 28.483,6.083 L28.483,10.283 L26.999,10.283 L26.999,6.566 Z" id="Path"></path>
                        <path d="M33.656,10.493 C32.9093333,10.493 32.2513333,10.3285 31.682,9.9995 C31.1126667,9.6705 30.6705,9.2085 30.3555,8.6135 C30.0405,8.0185 29.883,7.336 29.883,6.566 C29.883,5.74933333 30.037,5.03533333 30.345,4.424 C30.653,3.81266667 31.087,3.34133333 31.647,3.01 C32.207,2.67866667 32.8533333,2.513 33.586,2.513 C34.3093333,2.513 34.9346667,2.674 35.462,2.996 C35.9893333,3.318 36.3941667,3.77883333 36.6765,4.3785 C36.9588333,4.97816667 37.1,5.68633333 37.1,6.503 C37.1,6.59166667 37.0953333,6.72933333 37.086,6.916 L31.451,6.916 C31.5116667,7.62066667 31.724,8.16316667 32.088,8.5435 C32.452,8.92383333 32.9513333,9.114 33.586,9.114 C34.0386667,9.114 34.433,9.01133333 34.769,8.806 C35.105,8.60066667 35.3663333,8.302 35.553,7.91 L36.988,8.365 C36.6986667,9.03233333 36.2553333,9.55383333 35.658,9.9295 C35.0606667,10.3051667 34.3933333,10.493 33.656,10.493 Z M35.588,5.775 C35.5086667,5.10766667 35.3091667,4.613 34.9895,4.291 C34.6698333,3.969 34.2206667,3.808 33.642,3.808 C33.0213333,3.808 32.5301667,3.97483333 32.1685,4.3085 C31.8068333,4.64216667 31.5793333,5.131 31.486,5.775 L35.588,5.775 Z" id="Shape"></path>
                        <path d="M38.654,2.723 L39.956,2.723 L39.956,3.927 C40.1426667,3.59566667 40.376,3.33666667 40.656,3.15 C40.866,2.99133333 41.1086667,2.87233333 41.384,2.793 C41.6593333,2.71366667 41.9393333,2.674 42.224,2.674 C42.378,2.674 42.5483333,2.69033333 42.735,2.723 L42.735,4.095 C42.5763333,4.04833333 42.392,4.025 42.182,4.025 C41.986,4.025 41.7935,4.0495 41.6045,4.0985 C41.4155,4.1475 41.2416667,4.22333333 41.083,4.326 C40.4483333,4.732 40.131,5.446 40.131,6.468 L40.131,10.283 L38.654,10.283 L38.654,2.723 Z" id="Path"></path>
                        <polygon id="Path" points="47.005 0.203 48.468 0.203 48.468 10.283 47.005 10.283"></polygon>
                        <path d="M53.921,10.493 C53.1743333,10.493 52.5163333,10.3285 51.947,9.9995 C51.3776667,9.6705 50.9355,9.2085 50.6205,8.6135 C50.3055,8.0185 50.148,7.336 50.148,6.566 C50.148,5.74933333 50.302,5.03533333 50.61,4.424 C50.918,3.81266667 51.352,3.34133333 51.912,3.01 C52.472,2.67866667 53.1183333,2.513 53.851,2.513 C54.5743333,2.513 55.1996667,2.674 55.727,2.996 C56.2543333,3.318 56.6591667,3.77883333 56.9415,4.3785 C57.2238333,4.97816667 57.365,5.68633333 57.365,6.503 C57.365,6.59166667 57.3603333,6.72933333 57.351,6.916 L51.716,6.916 C51.7766667,7.62066667 51.989,8.16316667 52.353,8.5435 C52.717,8.92383333 53.2163333,9.114 53.851,9.114 C54.3036667,9.114 54.698,9.01133333 55.034,8.806 C55.37,8.60066667 55.6313333,8.302 55.818,7.91 L57.253,8.365 C56.9636667,9.03233333 56.5203333,9.55383333 55.923,9.9295 C55.3256667,10.3051667 54.6583333,10.493 53.921,10.493 Z M55.853,5.775 C55.7736667,5.10766667 55.5741667,4.613 55.2545,4.291 C54.9348333,3.969 54.4856667,3.808 53.907,3.808 C53.2863333,3.808 52.7951667,3.97483333 52.4335,4.3085 C52.0718333,4.64216667 51.8443333,5.131 51.751,5.775 L55.853,5.775 Z" id="Shape"></path>
                        <path d="M64.722,10.493 C64.036,10.493 63.434,10.3191667 62.916,9.9715 C62.398,9.62383333 61.999,9.14666667 61.719,8.54 C61.439,7.93333333 61.299,7.252 61.299,6.496 C61.299,5.73533333 61.4401667,5.05283333 61.7225,4.4485 C62.0048333,3.84416667 62.4061667,3.3705 62.9265,3.0275 C63.4468333,2.6845 64.0546667,2.513 64.75,2.513 C65.5713333,2.513 66.2573333,2.75566667 66.808,3.241 L66.808,0.203 L68.278,0.203 L68.278,10.283 L66.976,10.283 L66.976,9.597 C66.696,9.88633333 66.367,10.108 65.989,10.262 C65.611,10.416 65.1886667,10.493 64.722,10.493 Z M62.853,6.496 C62.853,7.00933333 62.93,7.46666667 63.084,7.868 C63.238,8.26933333 63.4701667,8.58666667 63.7805,8.82 C64.0908333,9.05333333 64.4723333,9.17 64.925,9.17 C65.6156667,9.17 66.1301667,8.93083333 66.4685,8.4525 C66.8068333,7.97416667 66.976,7.322 66.976,6.496 C66.976,5.67933333 66.8091667,5.03183333 66.4755,4.5535 C66.1418333,4.07516667 65.6413333,3.836 64.974,3.836 C64.5026667,3.836 64.1083333,3.9515 63.791,4.1825 C63.4736667,4.4135 63.238,4.72966667 63.084,5.131 C62.93,5.53233333 62.853,5.98733333 62.853,6.496 Z" id="Shape"></path>
                        <path d="M73.521,10.493 C72.779,10.493 72.128,10.3238333 71.568,9.9855 C71.008,9.64716667 70.5763333,9.17583333 70.273,8.5715 C69.9696667,7.96716667 69.818,7.27533333 69.818,6.496 C69.818,5.712 69.972,5.019 70.28,4.417 C70.588,3.815 71.022,3.34716667 71.582,3.0135 C72.142,2.67983333 72.7883333,2.513 73.521,2.513 C74.263,2.513 74.9151667,2.681 75.4775,3.017 C76.0398333,3.353 76.4726667,3.82316667 76.776,4.4275 C77.0793333,5.03183333 77.231,5.72133333 77.231,6.496 C77.231,7.28 77.0781667,7.97416667 76.7725,8.5785 C76.4668333,9.18283333 76.034,9.653 75.474,9.989 C74.914,10.325 74.263,10.493 73.521,10.493 Z M71.372,6.496 C71.372,7.308 71.5563333,7.94733333 71.925,8.414 C72.2936667,8.88066667 72.8256667,9.114 73.521,9.114 C74.221,9.114 74.7553333,8.87716667 75.124,8.4035 C75.4926667,7.92983333 75.677,7.294 75.677,6.496 C75.677,5.68866667 75.4926667,5.05283333 75.124,4.5885 C74.7553333,4.12416667 74.221,3.892 73.521,3.892 C72.8116667,3.892 72.2761667,4.12533333 71.9145,4.592 C71.5528333,5.05866667 71.372,5.69333333 71.372,6.496 Z" id="Shape"></path>
                        <path d="M82.005,10.493 C81.249,10.493 80.5968333,10.3226667 80.0485,9.982 C79.5001667,9.64133333 79.0813333,9.17 78.792,8.568 C78.5026667,7.966 78.3556667,7.27766667 78.351,6.503 C78.3556667,5.72366667 78.5061667,5.03183333 78.8025,4.4275 C79.0988333,3.82316667 79.5235,3.353 80.0765,3.017 C80.6295,2.681 81.2793333,2.513 82.026,2.513 C82.572,2.513 83.0701667,2.60633333 83.5205,2.793 C83.9708333,2.97966667 84.3488333,3.24566667 84.6545,3.591 C84.9601667,3.93633333 85.176,4.34466667 85.302,4.816 L83.846,5.236 C83.7013333,4.816 83.4645,4.487 83.1355,4.249 C82.8065,4.011 82.4296667,3.892 82.005,3.892 C81.3143333,3.892 80.7928333,4.12883333 80.4405,4.6025 C80.0881667,5.07616667 79.9096667,5.70966667 79.905,6.503 C79.9096667,7.30566667 80.0916667,7.9415 80.451,8.4105 C80.8103333,8.8795 81.3283333,9.114 82.005,9.114 C82.4623333,9.114 82.8391667,9.00783333 83.1355,8.7955 C83.4318333,8.58316667 83.6593333,8.26933333 83.818,7.854 L85.302,8.204 C85.0546667,8.946 84.6463333,9.513 84.077,9.905 C83.5076667,10.297 82.817,10.493 82.005,10.493 Z" id="Path"></path>
                        <path d="M89.579,10.486 C88.7856667,10.486 88.1661667,10.2865 87.7205,9.8875 C87.2748333,9.4885 86.975,9.023 86.821,8.491 C86.667,7.959 86.59,7.43633333 86.59,6.923 L86.59,2.723 L88.074,2.723 L88.074,6.44 C88.074,7.182 88.2116667,7.81083333 88.487,8.3265 C88.7623333,8.84216667 89.2616667,9.1 89.985,9.1 C90.559,9.1 91.0221667,8.904 91.3745,8.512 C91.7268333,8.12 91.903,7.50166667 91.903,6.657 L91.903,2.723 L93.38,2.723 L93.38,10.283 L92.078,10.283 L92.078,9.38 C91.7933333,9.73466667 91.441,10.0076667 91.021,10.199 C90.601,10.3903333 90.1203333,10.486 89.579,10.486 Z" id="Path"></path>
                        <path d="M104.405,5.572 C104.405,5.21733333 104.342,4.90933333 104.216,4.648 C104.09,4.38666667 103.9115,4.186 103.6805,4.046 C103.4495,3.906 103.182333,3.836 102.879,3.836 C102.594333,3.836 102.335333,3.90133333 102.102,4.032 C101.868667,4.16266667 101.683167,4.3575 101.5455,4.6165 C101.407833,4.8755 101.339,5.18933333 101.339,5.558 L101.332,10.283 L99.869,10.283 L99.876,5.6 C99.876,5.24066667 99.813,4.928 99.687,4.662 C99.561,4.396 99.3825,4.19183333 99.1515,4.0495 C98.9205,3.90716667 98.651,3.836 98.343,3.836 C98.0396667,3.836 97.7713333,3.90833333 97.538,4.053 C97.3046667,4.19766667 97.1238333,4.3995 96.9955,4.6585 C96.8671667,4.9175 96.803,5.21733333 96.803,5.558 L96.803,10.283 L95.333,10.283 L95.333,2.723 L96.635,2.723 L96.635,3.535 C96.8823333,3.22233333 97.1938333,2.97733333 97.5695,2.8 C97.9451667,2.62266667 98.357,2.534 98.805,2.534 C99.3183333,2.534 99.7616667,2.64133333 100.135,2.856 C100.508333,3.07066667 100.797667,3.37166667 101.003,3.759 C101.236333,3.37633333 101.554833,3.0765 101.9585,2.8595 C102.362167,2.6425 102.809,2.534 103.299,2.534 C103.831,2.534 104.290667,2.64483333 104.678,2.8665 C105.065333,3.08816667 105.3605,3.40083333 105.5635,3.8045 C105.7665,4.20816667 105.868,4.68066667 105.868,5.222 L105.861,10.283 L104.398,10.283 L104.405,5.572 Z" id="Path"></path>
                        <path d="M111.041,10.493 C110.294333,10.493 109.636333,10.3285 109.067,9.9995 C108.497667,9.6705 108.0555,9.2085 107.7405,8.6135 C107.4255,8.0185 107.268,7.336 107.268,6.566 C107.268,5.74933333 107.422,5.03533333 107.73,4.424 C108.038,3.81266667 108.472,3.34133333 109.032,3.01 C109.592,2.67866667 110.238333,2.513 110.971,2.513 C111.694333,2.513 112.319667,2.674 112.847,2.996 C113.374333,3.318 113.779167,3.77883333 114.0615,4.3785 C114.343833,4.97816667 114.485,5.68633333 114.485,6.503 C114.485,6.59166667 114.480333,6.72933333 114.471,6.916 L108.836,6.916 C108.896667,7.62066667 109.109,8.16316667 109.473,8.5435 C109.837,8.92383333 110.336333,9.114 110.971,9.114 C111.423667,9.114 111.818,9.01133333 112.154,8.806 C112.49,8.60066667 112.751333,8.302 112.938,7.91 L114.373,8.365 C114.083667,9.03233333 113.640333,9.55383333 113.043,9.9295 C112.445667,10.3051667 111.778333,10.493 111.041,10.493 Z M112.973,5.775 C112.893667,5.10766667 112.694167,4.613 112.3745,4.291 C112.054833,3.969 111.605667,3.808 111.027,3.808 C110.406333,3.808 109.915167,3.97483333 109.5535,4.3085 C109.191833,4.64216667 108.964333,5.131 108.871,5.775 L112.973,5.775 Z" id="Shape"></path>
                        <path d="M121.345,6.566 C121.345,5.824 121.207333,5.19516667 120.932,4.6795 C120.656667,4.16383333 120.157333,3.906 119.434,3.906 C118.86,3.906 118.396833,4.102 118.0445,4.494 C117.692167,4.886 117.516,5.50433333 117.516,6.349 L117.516,10.283 L116.032,10.283 L116.032,2.723 L117.341,2.723 L117.341,3.626 C117.625667,3.27133333 117.978,2.99833333 118.398,2.807 C118.818,2.61566667 119.298667,2.52 119.84,2.52 C120.633333,2.52 121.252833,2.7195 121.6985,3.1185 C122.144167,3.5175 122.444,3.983 122.598,4.515 C122.752,5.047 122.829,5.56966667 122.829,6.083 L122.829,10.283 L121.345,10.283 L121.345,6.566 Z" id="Path"></path>
                        <path d="M128.975,10.283 C128.541,10.367 128.142,10.409 127.778,10.409 C127.255333,10.409 126.799167,10.325 126.4095,10.157 C126.019833,9.989 125.729333,9.72533333 125.538,9.366 C125.421333,9.14666667 125.3455,8.9215 125.3105,8.6905 C125.2755,8.4595 125.258,8.17833333 125.258,7.847 L125.258,7.308 L125.258,3.899 L123.809,3.899 L123.809,2.723 L125.258,2.723 L125.258,0.623 L126.728,0.623 L126.728,2.723 L128.975,2.723 L128.975,3.899 L126.728,3.899 L126.728,7.238 L126.728,7.637 C126.728,7.875 126.737333,8.0675 126.756,8.2145 C126.774667,8.3615 126.816667,8.48866667 126.882,8.596 C126.994,8.78266667 127.1515,8.91683333 127.3545,8.9985 C127.5575,9.08016667 127.806,9.121 128.1,9.121 C128.352,9.121 128.643667,9.09533333 128.975,9.044 L128.975,10.283 Z" id="Path"></path>
                    </g>
                </g>
            </g>
            <g id="Group-7-Copy" transform="translate(0, 37)">
                <g id="Rectangle">
                    <use fill="black" fill-opacity="1" filter="url(#filter-6)" xlink:href="#path-5"></use>
                    <use fill="#FFFFFF" fill-rule="evenodd" xlink:href="#path-5"></use>
                </g>
                <g id="Group-Copy" transform="translate(14, 27)">
                    <circle id="Oval" fill="#E2E2E2" cx="19" cy="19" r="19"></circle>
                    <g id="Solid/angle-right" transform="translate(15.1522, 13.0354)">
                        <mask id="mask-8" fill="white">
                            <use xlink:href="#path-7"></use>
                        </mask>
                        <g id="Mask"></g>
                        <g id="🎨-color" mask="url(#mask-8)" fill="#006855">
                            <g transform="translate(-2.1522, -0.0354)" id="Rectangle">
                                <rect x="0" y="0" width="12" height="12"></rect>
                            </g>
                        </g>
                    </g>
                </g>
                <rect id="Rectangle-Copy-4" fill="#E6E7E8" x="69" y="22" width="261" height="18" rx="6"></rect>
                <rect id="Rectangle-Copy-7" fill="#E6E7E8" x="69" y="52" width="112" height="18" rx="6"></rect>
            </g>
            <g id="Group-7-Copy-2" transform="translate(102, 255)">
                <g id="Rectangle">
                    <use fill="black" fill-opacity="1" filter="url(#filter-10)" xlink:href="#path-9"></use>
                    <use fill="#FFFFFF" fill-rule="evenodd" xlink:href="#path-9"></use>
                </g>
                <g id="Group" transform="translate(16, 28)">
                    <circle id="Oval" fill="#1DF36C" cx="19" cy="19" r="19"></circle>
                    <g id="Group-3" transform="translate(11, 12)">
                        <mask id="mask-12" fill="white">
                            <use xlink:href="#path-11"></use>
                        </mask>
                        <g id="Clip-2"></g>
                        <path d="M14.4173611,0.000723639652 C14.0172824,0.0146800762 13.6384061,0.193192637 13.3609322,0.497637694 C10.4181108,3.61316873 8.17035696,6.21490815 5.43894427,9.15971626 L2.52930914,6.56316993 C1.88156272,5.9841401 0.911786764,6.06950156 0.363599091,6.75401608 C-0.184588583,7.43820604 -0.10377392,8.46254357 0.544279781,9.0415734 C0.546430742,9.04384538 0.548888983,9.04579279 0.551347223,9.04806477 L4.54598834,12.618316 C5.15532475,13.160345 6.0556554,13.1207477 6.62012892,12.5271123 C9.92953545,9.02404672 12.2854519,6.22594347 15.5312514,2.79006354 C16.1415097,2.16689242 16.1581028,1.13963378 15.568125,0.495041148 C15.2676051,0.166578037 14.8497042,-0.0129082286 14.4173611,0.000723639652" id="Fill-1" fill="#FFFFFF" mask="url(#mask-12)"></path>
                    </g>
                </g>
                <g id="Group-Copy" transform="translate(16, 28)">
                    <circle id="Oval" fill="#E2E2E2" cx="19" cy="19" r="19"></circle>
                    <g id="Solid/angle-right" transform="translate(15.1522, 13.0354)">
                        <mask id="mask-14" fill="white">
                            <use xlink:href="#path-13"></use>
                        </mask>
                        <g id="Mask"></g>
                        <g id="🎨-color" mask="url(#mask-14)" fill="#006855">
                            <g transform="translate(-2.1522, -0.0354)" id="Rectangle">
                                <rect x="0" y="0" width="12" height="12"></rect>
                            </g>
                        </g>
                    </g>
                </g>
                <rect id="Rectangle-Copy-4" fill="#E6E7E8" x="70" y="37" width="181.40625" height="18" rx="6"></rect>
            </g>
            <g id="Group-9">
                <g id="Vos-documents" transform="translate(34.09, 6.04)" fill="#FFFFFF" fill-rule="nonzero">
                    <polygon id="Path" points="0 0 1.953 0 5.544 11.061 9.18 0 11.133 0 6.921 12.96 4.212 12.96"></polygon>
                    <path d="M16.704,13.23 C15.75,13.23 14.913,13.0125 14.193,12.5775 C13.473,12.1425 12.918,11.5365 12.528,10.7595 C12.138,9.9825 11.943,9.093 11.943,8.091 C11.943,7.083 12.141,6.192 12.537,5.418 C12.933,4.644 13.491,4.0425 14.211,3.6135 C14.931,3.1845 15.762,2.97 16.704,2.97 C17.658,2.97 18.4965,3.186 19.2195,3.618 C19.9425,4.05 20.499,4.6545 20.889,5.4315 C21.279,6.2085 21.474,7.095 21.474,8.091 C21.474,9.099 21.2775,9.9915 20.8845,10.7685 C20.4915,11.5455 19.935,12.15 19.215,12.582 C18.495,13.014 17.658,13.23 16.704,13.23 Z M13.941,8.091 C13.941,9.135 14.178,9.957 14.652,10.557 C15.126,11.157 15.81,11.457 16.704,11.457 C17.604,11.457 18.291,11.1525 18.765,10.5435 C19.239,9.9345 19.476,9.117 19.476,8.091 C19.476,7.053 19.239,6.2355 18.765,5.6385 C18.291,5.0415 17.604,4.743 16.704,4.743 C15.792,4.743 15.1035,5.043 14.6385,5.643 C14.1735,6.243 13.941,7.059 13.941,8.091 Z" id="Shape"></path>
                    <path d="M27.171,13.221 C25.989,13.221 25.026,12.96 24.282,12.438 C23.538,11.916 23.082,11.181 22.914,10.233 L24.84,9.936 C24.96,10.446 25.2375,10.845 25.6725,11.133 C26.1075,11.421 26.649,11.565 27.297,11.565 C27.885,11.565 28.3455,11.445 28.6785,11.205 C29.0115,10.965 29.178,10.635 29.178,10.215 C29.178,9.957 29.118,9.7545 28.998,9.6075 C28.878,9.4605 28.6425,9.321 28.2915,9.189 C27.9405,9.057 27.366,8.883 26.568,8.667 C25.716,8.445 25.0515,8.211 24.5745,7.965 C24.0975,7.719 23.754,7.4325 23.544,7.1055 C23.334,6.7785 23.229,6.372 23.229,5.886 C23.229,5.304 23.385,4.7925 23.697,4.3515 C24.009,3.9105 24.45,3.57 25.02,3.33 C25.59,3.09 26.253,2.97 27.009,2.97 C27.747,2.97 28.41,3.087 28.998,3.321 C29.586,3.555 30.0585,3.888 30.4155,4.32 C30.7725,4.752 30.987,5.253 31.059,5.823 L29.133,6.174 C29.061,5.694 28.8255,5.316 28.4265,5.04 C28.0275,4.764 27.51,4.626 26.874,4.626 C26.346,4.626 25.92,4.7325 25.596,4.9455 C25.272,5.1585 25.11,5.439 25.11,5.787 C25.11,6.009 25.179,6.192 25.317,6.336 C25.455,6.48 25.713,6.621 26.091,6.759 C26.469,6.897 27.048,7.065 27.828,7.263 C28.656,7.473 29.3055,7.7055 29.7765,7.9605 C30.2475,8.2155 30.588,8.5155 30.798,8.8605 C31.008,9.2055 31.113,9.633 31.113,10.143 C31.113,10.779 30.9555,11.328 30.6405,11.79 C30.3255,12.252 29.8725,12.606 29.2815,12.852 C28.6905,13.098 27.987,13.221 27.171,13.221 Z" id="Path"></path>
                    <path d="M40.563,13.23 C39.681,13.23 38.907,13.0065 38.241,12.5595 C37.575,12.1125 37.062,11.499 36.702,10.719 C36.342,9.939 36.162,9.063 36.162,8.091 C36.162,7.113 36.3435,6.2355 36.7065,5.4585 C37.0695,4.6815 37.5855,4.0725 38.2545,3.6315 C38.9235,3.1905 39.705,2.97 40.599,2.97 C41.655,2.97 42.537,3.282 43.245,3.906 L43.245,0 L45.135,0 L45.135,12.96 L43.461,12.96 L43.461,12.078 C43.101,12.45 42.678,12.735 42.192,12.933 C41.706,13.131 41.163,13.23 40.563,13.23 Z M38.16,8.091 C38.16,8.751 38.259,9.339 38.457,9.855 C38.655,10.371 38.9535,10.779 39.3525,11.079 C39.7515,11.379 40.242,11.529 40.824,11.529 C41.712,11.529 42.3735,11.2215 42.8085,10.6065 C43.2435,9.9915 43.461,9.153 43.461,8.091 C43.461,7.041 43.2465,6.2085 42.8175,5.5935 C42.3885,4.9785 41.745,4.671 40.887,4.671 C40.281,4.671 39.774,4.8195 39.366,5.1165 C38.958,5.4135 38.655,5.82 38.457,6.336 C38.259,6.852 38.16,7.437 38.16,8.091 Z" id="Shape"></path>
                    <path d="M51.876,13.23 C50.922,13.23 50.085,13.0125 49.365,12.5775 C48.645,12.1425 48.09,11.5365 47.7,10.7595 C47.31,9.9825 47.115,9.093 47.115,8.091 C47.115,7.083 47.313,6.192 47.709,5.418 C48.105,4.644 48.663,4.0425 49.383,3.6135 C50.103,3.1845 50.934,2.97 51.876,2.97 C52.83,2.97 53.6685,3.186 54.3915,3.618 C55.1145,4.05 55.671,4.6545 56.061,5.4315 C56.451,6.2085 56.646,7.095 56.646,8.091 C56.646,9.099 56.4495,9.9915 56.0565,10.7685 C55.6635,11.5455 55.107,12.15 54.387,12.582 C53.667,13.014 52.83,13.23 51.876,13.23 Z M49.113,8.091 C49.113,9.135 49.35,9.957 49.824,10.557 C50.298,11.157 50.982,11.457 51.876,11.457 C52.776,11.457 53.463,11.1525 53.937,10.5435 C54.411,9.9345 54.648,9.117 54.648,8.091 C54.648,7.053 54.411,6.2355 53.937,5.6385 C53.463,5.0415 52.776,4.743 51.876,4.743 C50.964,4.743 50.2755,5.043 49.8105,5.643 C49.3455,6.243 49.113,7.059 49.113,8.091 Z" id="Shape"></path>
                    <path d="M62.784,13.23 C61.812,13.23 60.9735,13.011 60.2685,12.573 C59.5635,12.135 59.025,11.529 58.653,10.755 C58.281,9.981 58.092,9.096 58.086,8.1 C58.092,7.098 58.2855,6.2085 58.6665,5.4315 C59.0475,4.6545 59.5935,4.05 60.3045,3.618 C61.0155,3.186 61.851,2.97 62.811,2.97 C63.513,2.97 64.1535,3.09 64.7325,3.33 C65.3115,3.57 65.7975,3.912 66.1905,4.356 C66.5835,4.8 66.861,5.325 67.023,5.931 L65.151,6.471 C64.965,5.931 64.6605,5.508 64.2375,5.202 C63.8145,4.896 63.33,4.743 62.784,4.743 C61.896,4.743 61.2255,5.0475 60.7725,5.6565 C60.3195,6.2655 60.09,7.08 60.084,8.1 C60.09,9.132 60.324,9.9495 60.786,10.5525 C61.248,11.1555 61.914,11.457 62.784,11.457 C63.372,11.457 63.8565,11.3205 64.2375,11.0475 C64.6185,10.7745 64.911,10.371 65.115,9.837 L67.023,10.287 C66.705,11.241 66.18,11.97 65.448,12.474 C64.716,12.978 63.828,13.23 62.784,13.23 Z" id="Path"></path>
                    <path d="M72.522,13.221 C71.502,13.221 70.7055,12.9645 70.1325,12.4515 C69.5595,11.9385 69.174,11.34 68.976,10.656 C68.778,9.972 68.679,9.3 68.679,8.64 L68.679,3.24 L70.587,3.24 L70.587,8.019 C70.587,8.973 70.764,9.7815 71.118,10.4445 C71.472,11.1075 72.114,11.439 73.044,11.439 C73.782,11.439 74.3775,11.187 74.8305,10.683 C75.2835,10.179 75.51,9.384 75.51,8.298 L75.51,3.24 L77.409,3.24 L77.409,12.96 L75.735,12.96 L75.735,11.799 C75.369,12.255 74.916,12.606 74.376,12.852 C73.836,13.098 73.218,13.221 72.522,13.221 Z" id="Path"></path>
                    <path d="M91.584,6.903 C91.584,6.447 91.503,6.051 91.341,5.715 C91.179,5.379 90.9495,5.121 90.6525,4.941 C90.3555,4.761 90.012,4.671 89.622,4.671 C89.256,4.671 88.923,4.755 88.623,4.923 C88.323,5.091 88.0845,5.3415 87.9075,5.6745 C87.7305,6.0075 87.642,6.411 87.642,6.885 L87.633,12.96 L85.752,12.96 L85.761,6.939 C85.761,6.477 85.68,6.075 85.518,5.733 C85.356,5.391 85.1265,5.1285 84.8295,4.9455 C84.5325,4.7625 84.186,4.671 83.79,4.671 C83.4,4.671 83.055,4.764 82.755,4.95 C82.455,5.136 82.2225,5.3955 82.0575,5.7285 C81.8925,6.0615 81.81,6.447 81.81,6.885 L81.81,12.96 L79.92,12.96 L79.92,3.24 L81.594,3.24 L81.594,4.284 C81.912,3.882 82.3125,3.567 82.7955,3.339 C83.2785,3.111 83.808,2.997 84.384,2.997 C85.044,2.997 85.614,3.135 86.094,3.411 C86.574,3.687 86.946,4.074 87.21,4.572 C87.51,4.08 87.9195,3.6945 88.4385,3.4155 C88.9575,3.1365 89.532,2.997 90.162,2.997 C90.846,2.997 91.437,3.1395 91.935,3.4245 C92.433,3.7095 92.8125,4.1115 93.0735,4.6305 C93.3345,5.1495 93.465,5.757 93.465,6.453 L93.456,12.96 L91.575,12.96 L91.584,6.903 Z" id="Path"></path>
                    <path d="M100.116,13.23 C99.156,13.23 98.31,13.0185 97.578,12.5955 C96.846,12.1725 96.2775,11.5785 95.8725,10.8135 C95.4675,10.0485 95.265,9.171 95.265,8.181 C95.265,7.131 95.463,6.213 95.859,5.427 C96.255,4.641 96.813,4.035 97.533,3.609 C98.253,3.183 99.084,2.97 100.026,2.97 C100.956,2.97 101.76,3.177 102.438,3.591 C103.116,4.005 103.6365,4.5975 103.9995,5.3685 C104.3625,6.1395 104.544,7.05 104.544,8.1 C104.544,8.214 104.538,8.391 104.526,8.631 L97.281,8.631 C97.359,9.537 97.632,10.2345 98.1,10.7235 C98.568,11.2125 99.21,11.457 100.026,11.457 C100.608,11.457 101.115,11.325 101.547,11.061 C101.979,10.797 102.315,10.413 102.555,9.909 L104.4,10.494 C104.028,11.352 103.458,12.0225 102.69,12.5055 C101.922,12.9885 101.064,13.23 100.116,13.23 Z M102.6,7.164 C102.498,6.306 102.2415,5.67 101.8305,5.256 C101.4195,4.842 100.842,4.635 100.098,4.635 C99.3,4.635 98.6685,4.8495 98.2035,5.2785 C97.7385,5.7075 97.446,6.336 97.326,7.164 L102.6,7.164 Z" id="Shape"></path>
                    <path d="M113.364,8.181 C113.364,7.227 113.187,6.4185 112.833,5.7555 C112.479,5.0925 111.837,4.761 110.907,4.761 C110.169,4.761 109.5735,5.013 109.1205,5.517 C108.6675,6.021 108.441,6.816 108.441,7.902 L108.441,12.96 L106.533,12.96 L106.533,3.24 L108.216,3.24 L108.216,4.401 C108.582,3.945 109.035,3.594 109.575,3.348 C110.115,3.102 110.733,2.979 111.429,2.979 C112.449,2.979 113.2455,3.2355 113.8185,3.7485 C114.3915,4.2615 114.777,4.86 114.975,5.544 C115.173,6.228 115.272,6.9 115.272,7.56 L115.272,12.96 L113.364,12.96 L113.364,8.181 Z" id="Path"></path>
                    <path d="M123.174,12.96 C122.616,13.068 122.103,13.122 121.635,13.122 C120.963,13.122 120.3765,13.014 119.8755,12.798 C119.3745,12.582 119.001,12.243 118.755,11.781 C118.605,11.499 118.5075,11.2095 118.4625,10.9125 C118.4175,10.6155 118.395,10.254 118.395,9.828 L118.395,9.135 L118.395,4.752 L116.532,4.752 L116.532,3.24 L118.395,3.24 L118.395,0.54 L120.285,0.54 L120.285,3.24 L123.174,3.24 L123.174,4.752 L120.285,4.752 L120.285,9.045 L120.285,9.558 C120.285,9.864 120.297,10.1115 120.321,10.3005 C120.345,10.4895 120.399,10.653 120.483,10.791 C120.627,11.031 120.8295,11.2035 121.0905,11.3085 C121.3515,11.4135 121.671,11.466 122.049,11.466 C122.373,11.466 122.748,11.433 123.174,11.367 L123.174,12.96 Z" id="Path"></path>
                    <path d="M128.934,13.221 C127.752,13.221 126.789,12.96 126.045,12.438 C125.301,11.916 124.845,11.181 124.677,10.233 L126.603,9.936 C126.723,10.446 127.0005,10.845 127.4355,11.133 C127.8705,11.421 128.412,11.565 129.06,11.565 C129.648,11.565 130.1085,11.445 130.4415,11.205 C130.7745,10.965 130.941,10.635 130.941,10.215 C130.941,9.957 130.881,9.7545 130.761,9.6075 C130.641,9.4605 130.4055,9.321 130.0545,9.189 C129.7035,9.057 129.129,8.883 128.331,8.667 C127.479,8.445 126.8145,8.211 126.3375,7.965 C125.8605,7.719 125.517,7.4325 125.307,7.1055 C125.097,6.7785 124.992,6.372 124.992,5.886 C124.992,5.304 125.148,4.7925 125.46,4.3515 C125.772,3.9105 126.213,3.57 126.783,3.33 C127.353,3.09 128.016,2.97 128.772,2.97 C129.51,2.97 130.173,3.087 130.761,3.321 C131.349,3.555 131.8215,3.888 132.1785,4.32 C132.5355,4.752 132.75,5.253 132.822,5.823 L130.896,6.174 C130.824,5.694 130.5885,5.316 130.1895,5.04 C129.7905,4.764 129.273,4.626 128.637,4.626 C128.109,4.626 127.683,4.7325 127.359,4.9455 C127.035,5.1585 126.873,5.439 126.873,5.787 C126.873,6.009 126.942,6.192 127.08,6.336 C127.218,6.48 127.476,6.621 127.854,6.759 C128.232,6.897 128.811,7.065 129.591,7.263 C130.419,7.473 131.0685,7.7055 131.5395,7.9605 C132.0105,8.2155 132.351,8.5155 132.561,8.8605 C132.771,9.2055 132.876,9.633 132.876,10.143 C132.876,10.779 132.7185,11.328 132.4035,11.79 C132.0885,12.252 131.6355,12.606 131.0445,12.852 C130.4535,13.098 129.75,13.221 128.934,13.221 Z" id="Path"></path>
                </g>
                <g id="Solid/lock" opacity="0.644647507" transform="translate(1.5, 0)">
                    <mask id="mask-16" fill="white">
                        <use xlink:href="#path-15"></use>
                    </mask>
                    <g id="Mask"></g>
                    <g id="🎨-color" mask="url(#mask-16)" fill="#FFFFFF">
                        <g transform="translate(-1.5, 0)" id="Rectangle">
                            <rect x="0" y="0" width="24" height="24"></rect>
                        </g>
                    </g>
                </g>
            </g>
        </g>
    </g>
</svg>