<?xml version="1.0" encoding="UTF-8"?>
<svg width="210px" height="210px" viewBox="0 0 210 210" version="1.1" xmlns="http://www.w3.org/2000/svg" xmlns:xlink="http://www.w3.org/1999/xlink">
    <title>Group 7</title>
    <g id="landing---particuliers" stroke="none" stroke-width="1" fill="none" fill-rule="evenodd" opacity="0.19905599">
        <g id="UI-Home---Particuliers-Copy" transform="translate(-165, -2996)" fill="#AAC3C2">
            <g id="Group-7" transform="translate(165, 2996)">
                <path d="M105,12.350625 C53.904375,12.350625 12.350625,53.904375 12.350625,105 C12.350625,156.095625 53.904375,197.649375 105,197.649375 C156.095625,197.649375 197.649375,156.095625 197.649375,105 C197.649375,53.904375 156.095625,12.350625 105,12.350625 M105,210 C47.105625,210 0,162.894375 0,105 C0,47.105625 47.105625,0 105,0 C162.894375,0 210,47.105625 210,105 C210,162.894375 162.894375,210 105,210" id="Fill-1"></path>
                <path d="M111,103.455278 C111,107.067964 108.088,110 104.5,110 C100.912,110 98,107.067964 98,103.455278 L98,38.5447223 C98,34.9320356 100.912,32 104.5,32 C108.088,32 111,34.9320356 111,38.5447223 L111,103.455278 Z" id="Fill-3"></path>
                <path d="M101.147358,110.139261 C98.0466918,108.252051 97.0703118,104.215518 98.9702945,101.135696 C100.870277,98.055874 104.934129,97.072952 108.047989,98.9601622 L163.846784,132.851311 C166.94745,134.738521 167.937025,138.775054 166.023848,141.867981 C164.123865,144.947803 160.060013,145.930725 156.946153,144.03041 L101.147358,110.139261 Z" id="Fill-5"></path>
            </g>
        </g>
    </g>
</svg>