<?xml version="1.0" encoding="UTF-8"?>
<svg width="210px" height="210px" viewBox="0 0 210 210" version="1.1" xmlns="http://www.w3.org/2000/svg" xmlns:xlink="http://www.w3.org/1999/xlink">
    <title>Group 15</title>
    <g id="UI-landing---notaire" stroke="none" stroke-width="1" fill="none" fill-rule="evenodd" opacity="0.201195126">
        <g id="UI-Home---Notaires" transform="translate(-1065, -2016)" fill="#A7C3C5">
            <g id="Group-15" transform="translate(1065, 2016)">
                <path d="M187.5,195 L22.5,195 C18.36,195 15,191.64 15,187.5 L15,82.5 L195,82.5 L195,187.5 C195,191.64 191.64,195 187.5,195 M22.5,30 L52.5,30 L52.5,37.5 C52.5,41.64 55.86,45 60,45 C64.14,45 67.5,41.64 67.5,37.5 L67.5,30 L142.5,30 L142.5,37.5 C142.5,41.64 145.86,45 150,45 C154.14,45 157.5,41.64 157.5,37.5 L157.5,30 L187.5,30 C191.64,30 195,33.36 195,37.5 L195,67.5 L15,67.5 L15,37.5 C15,33.36 18.36,30 22.5,30 M187.5,15 L157.5,15 L157.5,7.5 C157.5,3.36 154.14,0 150,0 C145.86,0 142.5,3.36 142.5,7.5 L142.5,15 L67.5,15 L67.5,7.5 C67.5,3.36 64.14,0 60,0 C55.86,0 52.5,3.36 52.5,7.5 L52.5,15 L22.5,15 C10.0725,15 0,25.0725 0,37.5 L0,187.5 C0,199.9275 10.0725,210 22.5,210 L187.5,210 C199.9275,210 210,199.9275 210,187.5 L210,37.5 C210,25.0725 199.9275,15 187.5,15" id="Fill-1"></path>
                <path d="M60,112.5 L45,112.5 C40.86,112.5 37.5,115.86 37.5,120 C37.5,124.14 40.86,127.5 45,127.5 L60,127.5 C64.14,127.5 67.5,124.14 67.5,120 C67.5,115.86 64.14,112.5 60,112.5" id="Fill-3"></path>
                <path d="M112.5,112.5 L97.5,112.5 C93.36,112.5 90,115.86 90,120 C90,124.14 93.36,127.5 97.5,127.5 L112.5,127.5 C116.64,127.5 120,124.14 120,120 C120,115.86 116.64,112.5 112.5,112.5" id="Fill-5"></path>
                <path d="M165,112.5 L150,112.5 C145.86,112.5 142.5,115.86 142.5,120 C142.5,124.14 145.86,127.5 150,127.5 L165,127.5 C169.14,127.5 172.5,124.14 172.5,120 C172.5,115.86 169.14,112.5 165,112.5" id="Fill-7"></path>
                <path d="M60,150 L45,150 C40.86,150 37.5,153.36 37.5,157.5 C37.5,161.64 40.86,165 45,165 L60,165 C64.14,165 67.5,161.64 67.5,157.5 C67.5,153.36 64.14,150 60,150" id="Fill-9"></path>
                <path d="M112.5,150 L97.5,150 C93.36,150 90,153.36 90,157.5 C90,161.64 93.36,165 97.5,165 L112.5,165 C116.64,165 120,161.64 120,157.5 C120,153.36 116.64,150 112.5,150" id="Fill-11"></path>
                <path d="M165,150 L150,150 C145.86,150 142.5,153.36 142.5,157.5 C142.5,161.64 145.86,165 150,165 L165,165 C169.14,165 172.5,161.64 172.5,157.5 C172.5,153.36 169.14,150 165,150" id="Fill-13"></path>
            </g>
        </g>
    </g>
</svg>