<?xml version="1.0" encoding="UTF-8"?>
<svg width="150px" height="210px" viewBox="0 0 150 210" version="1.1" xmlns="http://www.w3.org/2000/svg" xmlns:xlink="http://www.w3.org/1999/xlink">
    <title>Fill 3</title>
    <g id="UI-landing---notaire" stroke="none" stroke-width="1" fill="none" fill-rule="evenodd" opacity="0.202101935">
        <g id="UI-Home---Notaires" transform="translate(-195, -2016)" fill="#AAC3C2">
            <g id="Group-5" transform="translate(195, 2016)">
                <path d="M74.8186816,196.232176 C41.0929799,196.218648 13.7601142,168.84444 13.7736247,135.089981 C13.7871453,101.335522 41.1380316,73.9793498 74.8637332,73.9928718 C108.582677,74.0064039 135.908785,101.36483 135.908785,135.112526 C135.859228,168.855713 108.53312,196.193849 74.8186816,196.232176 L74.8186816,196.232176 Z M44.2961556,41.573085 C44.2961556,26.2199012 57.9468204,13.7524847 74.751104,13.7524847 C91.5553876,13.7524847 105.206052,26.2424463 105.206052,41.573085 L105.206052,66.6882784 C85.8473374,58.0647941 63.744974,58.0647941 44.386259,66.6882784 L44.386259,41.573085 L44.2961556,41.573085 Z M118.94682,74.6692285 L118.94682,41.573085 C118.94682,18.6447621 99.124073,0 74.751104,0 C50.378135,0 30.5553875,18.622217 30.5553875,41.573085 L30.5553875,74.7594088 C-2.75358594,99.22305 -9.94158448,146.080696 14.5012147,179.418072 C38.9417612,212.755448 85.7594866,219.949575 119.070713,195.488189 C152.379686,171.024547 159.567685,124.166901 135.124885,90.8272708 C130.590432,84.6454162 125.134671,79.1940215 118.94682,74.6692285 L118.94682,74.6692285 Z" id="Fill-3"></path>
            </g>
        </g>
    </g>
</svg>