<?xml version="1.0" encoding="UTF-8"?>
<svg width="247px" height="211px" viewBox="0 0 247 211" version="1.1" xmlns="http://www.w3.org/2000/svg" xmlns:xlink="http://www.w3.org/1999/xlink">
    <title>Group</title>
    <g id="landing---particuliers" stroke="none" stroke-width="1" fill="none" fill-rule="evenodd">
        <g id="UI-APP---Particuliers-tableau-de-bord-01a-Copy" transform="translate(-310, -283)">
            <g id="Group" transform="translate(310, 283)">
                <rect id="Rectangle-Copy-20" fill="#FFFFFF" x="0" y="0" width="247" height="211" rx="16"></rect>
                <path d="M145.429307,97.4619837 L125.384924,80.7300404 C124.585634,80.0619467 123.413485,80.0619467 122.614196,80.7300404 L102.569812,97.4619837 L102.569812,129.657338 C102.569812,130.21972 102.796956,130.756732 103.197673,131.154206 C103.600532,131.549565 104.146963,131.773673 104.714823,131.773673 L143.284296,131.773673 C143.852156,131.773673 144.398588,131.549565 144.801447,131.154206 C145.202163,130.756732 145.429307,130.21972 145.429307,129.657338 L145.429307,97.4619837 Z M98.2862201,101.039245 L97.5255021,101.673511 C96.6254978,102.426174 95.2712054,102.316235 94.5062017,101.426148 C93.7433409,100.536061 93.85477,99.1977589 94.7590601,98.4450963 L119.847754,77.5016253 C122.24348,75.4994582 125.75564,75.4994582 128.151366,77.5016253 L153.240059,98.4450963 C154.144349,99.1977589 154.257921,100.536061 153.492918,101.426148 C152.727914,102.316235 151.375764,102.426174 150.473617,101.673511 L149.712899,101.039245 L149.712899,129.657338 C149.712899,131.342372 149.035753,132.955522 147.831461,134.143714 C146.625027,135.331906 144.990019,136 143.284296,136 L104.714823,136 C103.0091,136 101.374092,135.331906 100.169801,134.143714 C98.9633663,132.955522 98.2862201,131.342372 98.2862201,129.657338 L98.2862201,101.039245 Z" id="Fill-1" fill="#A7C3C5" opacity="0.396507626"></path>
            </g>
        </g>
    </g>
</svg>