<?xml version="1.0" encoding="UTF-8"?>
<svg width="237px" height="50px" viewBox="0 0 237 50" version="1.1" xmlns="http://www.w3.org/2000/svg" xmlns:xlink="http://www.w3.org/1999/xlink">
    <title>Group 20 Copy</title>
    <defs>
        <polygon id="path-1" points="0 0 14.6876783 0 14.6876783 49.3125467 0 49.3125467"></polygon>
        <polygon id="path-3" points="0 0 28.2307625 0 28.2307625 31.9442737 0 31.9442737"></polygon>
        <polygon id="path-5" points="0 0 25.1308656 0 25.1308656 31.9438348 0 31.9438348"></polygon>
    </defs>
    <g id="UI-landing---particuliers" stroke="none" stroke-width="1" fill="none" fill-rule="evenodd">
        <g id="Artboard" transform="translate(-5, -8)">
            <g id="Group-20-Copy" transform="translate(5, 8)">
                <g id="Group-3" transform="translate(91.2212, 0)">
                    <mask id="mask-2" fill="white">
                        <use xlink:href="#path-1"></use>
                    </mask>
                    <g id="Clip-2"></g>
                    <path d="M14.6876783,48.6802599 C14.6876783,49.0978227 14.394671,49.3063298 13.8119486,49.3063298 L13.0037092,49.3063298 C12.9131733,49.3063298 11.7230367,49.2585927 9.43220227,49.1669593 L7.34438787,49.1669593 C6.98443879,49.1669593 5.1874369,49.2020763 1.9533822,49.2712129 C1.6839691,49.2942584 1.41455599,49.3063298 1.14514288,49.3063298 C0.471884465,49.3507748 0.135529608,49.1570827 0.135529608,48.7197665 C0.135529608,48.4157851 0.381348492,48.2643431 0.875181072,48.2643431 L2.62773803,48.2643431 C3.88426759,48.2643431 4.51417848,47.9866994 4.51417848,47.4308634 C4.55862341,47.1532198 4.58112023,45.34689 4.58112023,42.0140687 L4.58112023,6.66608138 C4.58112023,5.13904131 4.5366753,4.30611036 4.44723673,4.16619112 C4.31170712,3.79636539 3.95175804,3.61090382 3.3690356,3.61090382 L2.83020939,3.61090382 L0.94376893,3.61090382 C0.31385804,3.61090382 0,3.4144682 0,3.02159694 C0,2.67207322 0.561323032,2.47399148 1.6839691,2.43064396 C3.83982266,2.29237084 5.8381985,1.78317458 7.68074272,0.90360388 L9.09529871,0.208397349 L9.63467363,-0.000109740574 C9.99352531,1.34421228 10.151003,3.38044862 10.1065581,6.11079408 L10.1065581,11.041438 L10.1065581,45.0692463 C10.1065581,46.4580133 10.1285062,47.2805189 10.1734998,47.535117 C10.2179448,47.7902638 10.3759712,47.9636539 10.6453843,48.055836 C10.6898292,48.101927 11.5211141,48.1491155 13.1375927,48.1935604 C14.1708002,48.1935604 14.6876783,48.3576226 14.6876783,48.6802599" id="Fill-1" fill="#FFFFFF" mask="url(#mask-2)"></path>
                </g>
                <g id="Group-6" transform="translate(108.6023, 18.0557)">
                    <mask id="mask-4" fill="white">
                        <use xlink:href="#path-3"></use>
                    </mask>
                    <g id="Clip-5"></g>
                    <path d="M22.0995566,16.0413283 C22.0995566,10.9493657 21.3346649,6.99157192 19.8081735,4.16684957 C18.6855274,2.08287608 16.799087,1.04198674 14.1488521,1.04198674 C11.6330495,1.04198674 9.66869321,2.37259119 8.25303981,5.0348975 C6.83848382,7.69775251 6.13120583,11.388328 6.13120583,16.1104649 C6.13120583,20.7876081 6.88347746,24.4337386 8.38856942,27.0488565 C9.89256398,29.6650718 11.9929986,30.9715333 14.688227,30.9715333 C16.7529959,30.9715333 18.2805847,30.1627453 19.2693473,28.541877 C21.1557877,25.4866994 22.0995566,21.3187525 22.0995566,16.0413283 M28.2307625,16.1104649 C28.2307625,20.6021465 26.9045476,24.3635047 24.2554102,27.3956367 C21.604078,30.4283175 18.3030815,31.9443835 14.3513235,31.9443835 C10.2629384,31.9443835 6.84890918,30.4283175 4.10978447,27.3956367 C1.37011106,24.3635047 0,20.6021465 0,16.1104649 C0,11.4821562 1.33554278,7.63959001 4.00827444,4.58386375 C6.6810061,1.52704008 10.0160221,0 14.0133225,0 C18.0561652,0 21.4356262,1.53966024 24.1544489,4.61788332 C26.8716255,7.69775251 28.2307625,11.5282472 28.2307625,16.1104649" id="Fill-4" fill="#FFFFFF" mask="url(#mask-4)"></path>
                </g>
                <path d="M159.268963,45.069356 C159.268963,45.4869189 158.706543,46.2276678 157.583897,47.2916027 C155.652463,49.0973838 153.361079,50 150.710845,50 C148.241133,50 146.376641,49.353628 145.119014,48.0597867 C144.40131,47.3228787 144.040813,45.1505641 144.040813,41.547781 L144.040813,20.9011896 C143.996368,20.4391818 143.748903,20.185681 143.300612,20.1384926 L140.739816,20.1384926 C139.751602,20.1384926 139.258318,19.977174 139.258318,19.6534393 C139.258318,19.3297046 139.50304,19.1436943 139.993031,19.0976033 C143.474551,18.7700277 146.196666,16.9894869 148.161022,13.7581757 C148.427692,13.3367719 148.762949,13.1255213 149.165149,13.1255213 C149.476812,13.1255213 149.633192,13.2879373 149.633192,13.611672 L149.633192,13.8893157 L149.633192,15.0695755 C149.633192,17.0141785 149.722631,18.2646723 149.902605,18.8199596 C150.307548,18.9137878 150.980806,18.9582327 151.924575,18.9582327 C154.394287,18.9582327 156.033811,18.8430051 156.84205,18.6114525 C157.022574,18.5653615 157.180051,18.542316 157.313935,18.542316 C157.673335,18.542316 157.85331,18.7414951 157.85331,19.1409508 C157.85331,19.8065274 156.033811,20.1384926 152.39646,20.1384926 L149.633192,20.1384926 L149.633192,32.9858215 C149.633192,39.4681972 149.79067,43.5313419 150.105077,45.1736096 C150.419483,46.8169747 151.452691,47.6383829 153.204699,47.6383829 C154.686197,47.6383829 156.348218,46.7835038 158.189665,45.069356 C158.369639,44.8389008 158.571013,44.7225758 158.797079,44.7225758 C159.109839,44.7225758 159.268963,44.8389008 159.268963,45.069356" id="Fill-7" fill="#FFFFFF"></path>
                <path d="M179.34655,27.4307537 C179.166575,21.8756859 177.235141,19.0976033 173.551699,19.0976033 C169.914347,19.0976033 167.645461,21.8756859 166.747783,27.4307537 L179.34655,27.4307537 Z M185.208342,41.5966156 C185.208342,42.0602695 184.859916,42.8827751 184.16471,44.0624863 C183.466211,45.2427461 182.758933,46.2046223 182.04123,46.9448224 C180.110344,48.9827049 177.527051,50 174.293545,50 C170.251251,50 166.871241,48.4960054 164.154065,45.4869189 C161.435242,42.4772837 160.077202,38.7499451 160.077202,34.3060006 C160.077202,29.6771432 161.3683,25.8104341 163.951593,22.7086168 C166.53324,19.6073482 169.75687,18.0561652 173.620287,18.0561652 C176.80825,18.0561652 179.482079,19.0163952 181.637933,20.9379527 C183.793786,22.8589614 184.938929,25.3253808 185.07391,28.3333699 C183.636309,28.5660199 181.727371,28.658202 179.34655,28.6110136 L174.6299,28.6110136 C174.315493,28.6110136 171.620813,28.6812475 166.545312,28.8184232 C166.320344,30.3427198 166.208408,31.7951363 166.208408,33.1784162 C166.208408,37.838001 167.072067,41.4232255 168.802127,43.9379307 C170.53109,46.4515386 172.968428,47.7086168 176.112495,47.7086168 C177.9084,47.7086168 179.34655,47.2916027 180.424751,46.458123 C181.502403,45.6246433 182.670043,44.0273693 183.92767,41.6673983 C184.106547,41.2970238 184.35511,41.1115623 184.669516,41.1115623 C185.028368,41.1115623 185.208342,41.2739783 185.208342,41.5966156 L185.208342,41.5966156 Z" id="Fill-9" fill="#FFFFFF"></path>
                <path d="M209.664688,22.9173983 C209.664688,23.9824305 209.350281,24.8620012 208.722016,25.5555617 C208.092654,26.2507682 207.283866,26.5975484 206.295652,26.5975484 C205.486864,26.5975484 204.814154,26.3550217 204.274779,25.8683223 C203.735953,25.3821715 203.46654,24.7698191 203.46654,24.0285216 C203.46654,23.3810522 203.669011,22.8241188 204.072308,22.362111 C204.477251,21.898457 204.678625,21.5747224 204.678625,21.3892608 C204.678625,20.6940543 204.184243,20.347274 203.197127,20.347274 C201.938951,20.347274 200.86075,21.1533186 199.963072,22.7654076 C198.928767,24.6545915 198.412987,28.1569619 198.412987,33.2692265 L198.412987,46.9511325 C198.412987,47.504225 198.603935,47.8499078 198.986381,47.9876322 C199.366084,48.1259054 200.524395,48.2180874 202.455281,48.2641785 C202.949662,48.3580067 203.197127,48.5418221 203.197127,48.8200145 C203.197127,49.1437492 202.903571,49.3061652 202.321397,49.3061652 L199.424246,49.3061652 L194.303751,49.3061652 L191.473542,49.3061652 L189.250746,49.3061652 C188.531397,49.3061652 188.172545,49.1667947 188.172545,48.889151 C188.172545,48.6109587 188.463358,48.4715882 189.048275,48.4715882 L189.990946,48.4715882 C191.517986,48.4715882 192.416213,48.287224 192.685626,47.9135574 C192.776162,47.7275471 192.821156,46.867181 192.821156,45.330813 L192.821156,26.136638 C192.821156,23.5785852 192.450233,22.1003797 191.708935,21.7047649 C190.968735,21.3102476 189.789572,21.0880229 188.172545,21.0419319 C187.633719,21.0419319 187.364306,20.8795158 187.364306,20.5557811 C187.364306,20.2320464 187.587628,20.0690817 188.037015,20.0690817 L188.5089,20.0690817 C189.182158,20.0690817 189.856514,20.1047474 190.529773,20.1738839 C191.204128,20.2424718 191.496038,20.2781375 191.4066,20.2781375 C193.066975,20.2781375 194.910068,19.791438 196.930392,18.820234 L197.807219,18.4026711 L198.346045,18.194164 C198.524922,19.3052873 198.615458,20.4164106 198.615458,21.5286313 L198.615458,22.9173983 C200.052511,19.7683925 202.072835,18.194164 204.678625,18.194164 C206.116775,18.194164 207.306363,18.6468439 208.250132,19.5489114 C209.192803,20.4515276 209.664688,21.5747224 209.664688,22.9173983" id="Fill-11" fill="#FFFFFF"></path>
                <g id="Group-15" transform="translate(211.8204, 18.0562)">
                    <mask id="mask-6" fill="white">
                        <use xlink:href="#path-5"></use>
                    </mask>
                    <g id="Clip-14"></g>
                    <path d="M19.2693473,9.37458847 C19.0893727,3.81952065 17.1579386,1.04143804 13.4744963,1.04143804 C9.83714499,1.04143804 7.56825864,3.81952065 6.67058075,9.37458847 L19.2693473,9.37458847 Z M24.0875071,26.0063211 C23.3890084,27.1865809 22.6817304,28.148457 21.964027,28.8886572 C20.0331417,30.9265397 17.4498486,31.9438348 14.2163426,31.9438348 C10.1740485,31.9438348 6.79403889,30.4398402 4.0768623,27.4307537 C1.35803959,24.4211185 0,20.6937799 0,16.2498354 C0,11.620978 1.29109784,7.75426891 3.87439094,4.6524516 C6.45603793,1.551183 9.67966727,0 13.5430841,0 C16.7310478,0 19.4048769,0.960230016 21.5607304,2.88178745 C23.716584,4.80279619 24.8617269,7.26921557 24.9967078,10.2772047 C23.5591063,10.5098547 21.650169,10.6020368 19.2693473,10.5548483 L14.5526974,10.5548483 C14.2382907,10.5548483 11.5436109,10.6250823 6.46810939,10.762258 C6.24314121,12.2865546 6.13120583,13.7389711 6.13120583,15.122251 C6.13120583,19.7818357 6.99486414,23.3670603 8.72492428,25.8817655 C10.453887,28.3953733 12.8912251,29.6524516 16.0352926,29.6524516 C17.8311971,29.6524516 19.2693473,29.2354374 20.3475484,28.4019578 C21.4252008,27.5684781 22.5928405,25.9712041 23.8504675,23.611233 C24.0293446,23.2408586 24.277907,23.055397 24.5923138,23.055397 C24.9511654,23.055397 25.13114,23.2178131 25.13114,23.5404504 C25.13114,24.0041043 24.7827137,24.8266099 24.0875071,26.0063211 Z" id="Fill-13" fill="#FFFFFF" mask="url(#mask-6)"></path>
                </g>
                <path d="M87.0434243,32.6390413 C86.6401277,32.6390413 86.3465717,33.1948773 86.1676946,34.3060006 C85.673862,37.0835345 84.8425771,39.6525613 83.6754862,42.0136298 C82.6411812,44.0515122 81.1591348,45.660309 79.2282494,46.8400202 C77.2957179,48.0202801 75.1623612,48.611233 72.8276305,48.611233 C68.2898578,48.611233 64.6519578,46.7604583 61.9128331,43.0561652 C58.7682169,38.7971336 57.1961832,32.8020061 57.1961832,25.0691366 C57.1961832,16.4122514 59.1045718,9.83824239 62.9235437,5.34820684 C65.0333063,2.84776788 67.9096067,1.59727404 71.546958,1.59727404 C76.2641565,1.59727404 79.7226307,3.44969492 81.9229292,7.15234186 C83.0011303,8.9586717 83.8318665,11.7131601 84.4156863,15.4163557 C84.5512159,16.2970238 84.8425771,16.7359861 85.2925135,16.7359861 C85.5158356,16.7359861 85.6958101,16.6668496 85.8313397,16.527479 C85.9652232,16.3892059 86.0327137,15.8800097 86.0327137,15.000439 C86.0327137,8.88953514 86.27963,4.72213687 86.7740112,2.49989026 C86.8634498,2.08397349 86.9095408,1.78273561 86.9095408,1.59727404 C86.9095408,1.22744831 86.7290176,1.04198674 86.3701659,1.04198674 C86.0102168,1.04198674 85.5383324,1.69110223 84.9545125,2.986041 C84.5956609,3.72733857 84.2143124,4.0971643 83.8093697,4.0971643 C83.3149884,4.0971643 82.5736908,3.79647513 81.5865743,3.19509679 C79.5646043,1.99179141 77.8691124,1.19233133 76.4990014,0.799460076 C75.4186054,0.489442957 74.0402638,0.305627497 72.3864734,0.239783153 C73.295674,0.132786094 74.2158487,0.0647469382 75.1524845,0.0647469382 L48.9157083,0.0647469382 L28.8973816,0.0647469382 L20.7815175,8.42972214 L5.33608051,24.3492384 L26.8830934,24.3492384 C27.1782955,22.2394759 28.9226219,20.6131206 31.0510403,20.6131206 C33.3868684,20.6131206 35.2798933,22.564308 35.2798933,24.9714675 C35.2798933,27.3791756 33.3868684,29.330363 31.0510403,29.330363 C28.9226219,29.330363 27.1782955,27.7040077 26.8830934,25.5942452 L5.33608051,25.5942452 L20.7815175,41.5132128 L28.8968329,49.878188 L48.9157083,49.878188 L70.0632654,49.878188 C70.8764431,49.9572012 71.7071792,50 72.5582174,50 C73.0624753,50 73.5288727,49.9144024 74.017767,49.878188 L75.1524845,49.878188 C74.917091,49.878188 74.6882819,49.8491067 74.4539858,49.8419736 C78.1741912,49.4814758 81.4477525,48.1206927 84.2143124,45.6246433 C84.8425771,46.0882973 85.4713906,47.0830956 86.1007528,48.611233 C86.3701659,49.3064396 86.6834753,49.6532198 87.0434243,49.6532198 C87.402276,49.6532198 87.5822506,49.3508845 87.5822506,48.7495062 L87.5822506,48.1245336 C87.5822506,46.9217769 87.5378056,45.8918616 87.4483671,45.0342391 C87.3578311,44.1788113 87.3128375,43.6114525 87.3128375,43.3338089 C87.3128375,40.8339186 87.402276,38.2418463 87.5822506,35.5564944 C87.6716891,34.2138185 87.7177802,33.588846 87.7177802,33.681028 C87.7177802,32.9858215 87.4917146,32.6390413 87.0434243,32.6390413" id="Fill-16" fill="#FFFFFF"></path>
                <path d="M4.22885299,24.9715772 C4.22885299,26.1754313 3.28234055,27.151025 2.11415214,27.151025 C0.946512445,27.151025 0,26.1754313 0,24.9715772 C0,23.7677231 0.946512445,22.7921294 2.11415214,22.7921294 C3.28234055,22.7921294 4.22885299,23.7677231 4.22885299,24.9715772" id="Fill-18" fill="#FFFFFF"></path>
            </g>
        </g>
    </g>
</svg>