<?xml version="1.0" encoding="UTF-8"?>
<svg width="171px" height="36px" viewBox="0 0 171 36" version="1.1" xmlns="http://www.w3.org/2000/svg" xmlns:xlink="http://www.w3.org/1999/xlink">
    <title>Group 20</title>
    <defs>
        <polygon id="path-1" points="0 0 10.5751284 0 10.5751284 35.5050336 0 35.5050336"></polygon>
        <polygon id="path-3" points="0 0 20.326149 0 20.326149 22.9998771 0 22.9998771"></polygon>
        <polygon id="path-5" points="0 0 18.0942233 0 18.0942233 22.999561 0 22.999561"></polygon>
    </defs>
    <g id="landing---particuliers" stroke="none" stroke-width="1" fill="none" fill-rule="evenodd">
        <g id="UI-Home---Particuliers" transform="translate(-60, -50)">
            <g id="Group-20" transform="translate(60, 50)">
                <g id="Group-3" transform="translate(65.6793, 0)">
                    <mask id="mask-2" fill="white">
                        <use xlink:href="#path-1"></use>
                    </mask>
                    <g id="Clip-2"></g>
                    <path d="M10.5751284,35.0497871 C10.5751284,35.3504324 10.3641631,35.5005575 9.94460296,35.5005575 L9.36267065,35.5005575 C9.29748475,35.5005575 8.44058645,35.4661867 6.79118564,35.4002107 L5.28795926,35.4002107 C5.02879593,35.4002107 3.73495457,35.4254949 1.40643519,35.4752733 C1.21245775,35.491866 1.01848031,35.5005575 0.824502875,35.5005575 C0.339756815,35.5325578 0.0975813178,35.3930995 0.0975813178,35.0782319 C0.0975813178,34.8593653 0.274570914,34.750327 0.630130372,34.750327 L1.89197138,34.750327 C2.79667267,34.750327 3.25020851,34.5504236 3.25020851,34.1502217 C3.28220886,33.9503182 3.29840657,32.6497608 3.29840657,30.2501295 L3.29840657,4.7995786 C3.29840657,3.70010974 3.26640622,3.10039946 3.20201045,2.99965761 C3.10442913,2.73338308 2.84526579,2.59985075 2.42570563,2.59985075 L2.03775076,2.59985075 L0.67951363,2.59985075 C0.225977789,2.59985075 0,2.4584171 0,2.1755498 C0,1.92389272 0.404152583,1.78127387 1.21245775,1.75006365 C2.76467231,1.650507 4.20350292,1.28388569 5.53013476,0.650594794 L6.54861507,0.150046091 L6.93696501,-7.90132133e-05 C7.19533822,0.967832843 7.30872218,2.43392301 7.27672183,4.39977174 L7.27672183,7.94983539 L7.27672183,32.4498573 C7.27672183,33.4497695 7.29252447,34.0419736 7.32491989,34.2252842 C7.35692024,34.4089899 7.47069927,34.5338308 7.6646767,34.6002019 C7.69667706,34.6333875 8.29520214,34.6673632 9.45906677,34.6993635 C10.2029762,34.6993635 10.5751284,34.8174883 10.5751284,35.0497871" id="Fill-1" fill="#1D2B28" mask="url(#mask-2)"></path>
                </g>
                <g id="Group-6" transform="translate(78.1936, 13.0001)">
                    <mask id="mask-4" fill="white">
                        <use xlink:href="#path-3"></use>
                    </mask>
                    <g id="Clip-5"></g>
                    <path d="M15.9116808,11.5497564 C15.9116808,7.8835433 15.3609587,5.03393179 14.2618849,3.00013169 C13.4535797,1.49967078 12.0953426,0.750230455 10.1871735,0.750230455 C8.37579562,0.750230455 6.96145911,1.70826566 5.94218867,3.6251262 C4.92370835,5.54238181 4.4144682,8.19959615 4.4144682,11.5995347 C4.4144682,14.9670778 4.95610377,17.5922918 6.03976998,19.4751767 C7.12264606,21.3588517 8.63495896,22.299504 10.5755235,22.299504 C12.0621571,22.299504 13.162021,21.7171766 13.87393,20.5501514 C15.2321672,18.3504236 15.9116808,15.3495018 15.9116808,11.5497564 M20.326149,11.5995347 C20.326149,14.8335455 19.3712743,17.5417234 17.4638954,19.7248584 C15.5549361,21.9083886 13.1782187,22.9999561 10.3329529,22.9999561 C7.38931566,22.9999561 4.93121461,21.9083886 2.95904482,19.7248584 C0.986479961,17.5417234 0,14.8335455 0,11.5995347 C0,8.26715245 0.961590799,5.50050481 2.8859576,3.3003819 C4.81032439,1.09946886 7.21153593,0 10.0895922,0 C13.000439,0 15.4336508,1.10855538 17.3912032,3.32487599 C19.3475703,5.54238181 20.326149,8.300338 20.326149,11.5995347" id="Fill-4" fill="#1D2B28" mask="url(#mask-4)"></path>
                </g>
                <path d="M114.673653,32.4499364 C114.673653,32.7505816 114.268711,33.2839208 113.460406,34.0499539 C112.069773,35.3501163 110.419977,36 108.511808,36 C106.733616,36 105.391181,35.5346122 104.48569,34.6030464 C103.968943,34.0724727 103.709385,32.5084061 103.709385,29.9144024 L103.709385,15.0488565 C103.677385,14.7162109 103.49921,14.5336904 103.176441,14.4997147 L101.332668,14.4997147 C100.621154,14.4997147 100.265989,14.3835653 100.265989,14.1504763 C100.265989,13.9173873 100.442189,13.7834599 100.794983,13.7502744 C103.301677,13.5144199 105.2616,12.2324305 106.675936,9.90588648 C106.867938,9.60247575 107.109324,9.45037531 107.398907,9.45037531 C107.623305,9.45037531 107.735898,9.56731487 107.735898,9.80040385 L107.735898,10.0003073 L107.735898,10.8500944 C107.735898,12.2502085 107.800294,13.1505641 107.929876,13.5503709 C108.221435,13.6179272 108.706181,13.6499276 109.385694,13.6499276 C111.163887,13.6499276 112.344344,13.5669637 112.926276,13.4002458 C113.056253,13.3670603 113.169637,13.3504675 113.266033,13.3504675 C113.524801,13.3504675 113.654383,13.4938765 113.654383,13.7814846 C113.654383,14.2606997 112.344344,14.4997147 109.725451,14.4997147 L107.735898,14.4997147 L107.735898,23.7497915 C107.735898,28.417102 107.849282,31.3425662 108.075655,32.5249989 C108.302028,33.7082218 109.045937,34.2996357 110.307383,34.2996357 C111.374062,34.2996357 112.570717,33.6841227 113.896559,32.4499364 C114.02614,32.2840086 114.171129,32.2002546 114.333897,32.2002546 C114.559084,32.2002546 114.673653,32.2840086 114.673653,32.4499364" id="Fill-7" fill="#1D2B28"></path>
                <path d="M129.129516,19.7501427 C128.999934,15.7504938 127.609302,13.7502744 124.957223,13.7502744 C122.33833,13.7502744 120.704732,15.7504938 120.058404,19.7501427 L129.129516,19.7501427 Z M133.350007,29.9495632 C133.350007,30.2833941 133.09914,30.8755981 132.598591,31.7249901 C132.095672,32.5747772 131.586432,33.267328 131.069685,33.8002722 C129.679448,35.2675475 127.819477,36 125.491352,36 C122.580901,36 120.147294,34.9171239 118.190927,32.7505816 C116.233374,30.5836443 115.255586,27.8999605 115.255586,24.7003204 C115.255586,21.3675431 116.185176,18.5835126 118.045147,16.3502041 C119.903933,14.1172907 122.224946,13.000439 125.006606,13.000439 C127.30194,13.000439 129.227097,13.6918046 130.779312,15.0753259 C132.331526,16.4584522 133.156029,18.2342742 133.253215,20.4000263 C132.218142,20.5675343 130.843707,20.6339054 129.129516,20.5999298 L125.733528,20.5999298 C125.507155,20.5999298 123.566986,20.6504982 119.912625,20.7492647 C119.750647,21.8467583 119.670054,22.8924981 119.670054,23.8884597 C119.670054,27.2433607 120.291888,29.8247224 121.537531,31.6353101 C122.782384,33.4451078 124.537268,34.3502041 126.800996,34.3502041 C128.094048,34.3502041 129.129516,34.0499539 129.905821,33.4498486 C130.68173,32.8497432 131.522431,31.6997059 132.427922,30.0005268 C132.556714,29.7338572 132.735679,29.6003248 132.962052,29.6003248 C133.220425,29.6003248 133.350007,29.7172644 133.350007,29.9495632 L133.350007,29.9495632 Z" id="Fill-9" fill="#1D2B28"></path>
                <path d="M150.958575,16.5005268 C150.958575,17.26735 150.732202,17.9006409 150.279852,18.4000044 C149.826711,18.9005531 149.244383,19.1502348 148.532869,19.1502348 C147.950542,19.1502348 147.466191,18.9756156 147.077841,18.625192 C146.689886,18.2751635 146.495909,17.8342698 146.495909,17.3005355 C146.495909,16.8343576 146.641688,16.4333655 146.932062,16.1007199 C147.223621,15.7668891 147.36861,15.5338001 147.36861,15.4002678 C147.36861,14.8997191 147.012655,14.6500373 146.301931,14.6500373 C145.396045,14.6500373 144.61974,15.2303894 143.973412,16.3910935 C143.228713,17.7513059 142.85735,20.2730126 142.85735,23.9538431 L142.85735,33.8048154 C142.85735,34.203042 142.994833,34.4519336 143.270194,34.5510952 C143.54358,34.6506519 144.377565,34.717023 145.767802,34.7502085 C146.123757,34.8177648 146.301931,34.9501119 146.301931,35.1504104 C146.301931,35.3834994 146.090571,35.500439 145.671406,35.500439 L143.585457,35.500439 L139.898701,35.500439 L137.86095,35.500439 L136.260537,35.500439 C135.742606,35.500439 135.484232,35.4000922 135.484232,35.2001888 C135.484232,34.9998903 135.693617,34.8995435 136.114758,34.8995435 L136.793481,34.8995435 C137.89295,34.8995435 138.539673,34.7668013 138.733651,34.4977613 C138.798837,34.3638339 138.831232,33.7443703 138.831232,32.6381853 L138.831232,18.8183794 C138.831232,16.9765814 138.564168,15.9122734 138.030433,15.6274308 C137.497489,15.3433783 136.648492,15.1833765 135.484232,15.1501909 C135.096278,15.1501909 134.9023,15.0332514 134.9023,14.8001624 C134.9023,14.5670734 135.063092,14.4497388 135.386651,14.4497388 L135.726408,14.4497388 C136.211154,14.4497388 136.69669,14.4754181 137.181436,14.5251964 C137.666972,14.5745797 137.877148,14.600259 137.812752,14.600259 C139.008222,14.600259 140.335249,14.2498354 141.789882,13.5505685 L142.421197,13.2499232 L142.809152,13.0997981 C142.937944,13.8998069 143.00313,14.6998156 143.00313,15.5006145 L143.00313,16.5005268 C144.037808,14.2332426 145.492441,13.0997981 147.36861,13.0997981 C148.404078,13.0997981 149.260581,13.4257276 149.940095,14.0752162 C150.618818,14.7250999 150.958575,15.5338001 150.958575,16.5005268" id="Fill-11" fill="#1D2B28"></path>
                <g id="Group-15" transform="translate(152.5107, 13.0004)">
                    <mask id="mask-6" fill="white">
                        <use xlink:href="#path-5"></use>
                    </mask>
                    <g id="Clip-14"></g>
                    <path d="M13.87393,6.7497037 C13.7443484,2.75005487 12.3537158,0.749835389 9.70163733,0.749835389 C7.08274439,0.749835389 5.44914622,2.75005487 4.80281814,6.7497037 L13.87393,6.7497037 Z M18.0944208,16.9491243 C18.0944208,17.2829551 17.8435538,17.8751591 17.3430051,18.7245512 C16.840086,19.5743383 16.3308459,20.2668891 15.8140995,20.7998332 C14.423862,22.2671086 12.563891,22.999561 10.2357666,22.999561 C7.32531496,22.999561 4.891708,21.916685 2.93534085,19.7501427 C0.977788508,17.5832053 0,14.8995215 0,11.6998815 C0,8.36710417 0.929590448,5.58307361 2.78956148,3.34976516 C4.64834731,1.11685176 6.96936043,0 9.75102059,0 C12.0463544,0 13.9715113,0.691365612 15.5237259,2.07488697 C17.0759405,3.45801326 17.9004434,5.23383521 17.9976296,7.39958738 C16.9625565,7.56709539 15.5881217,7.63346649 13.87393,7.5994908 L10.4779421,7.5994908 C10.2515693,7.5994908 8.31139985,7.65005926 4.65703876,7.74882578 C4.49506167,8.8463193 4.4144682,9.89205917 4.4144682,10.8880207 C4.4144682,14.2429217 5.03630218,16.8242834 6.28194548,18.6348712 C7.52679865,20.4446688 9.2816821,21.3497652 11.5454106,21.3497652 C12.8384619,21.3497652 13.87393,21.0495149 14.6502348,20.4494096 C15.4261446,19.8493042 16.2668452,18.6992669 17.1723366,17.0000878 C17.3011281,16.7334182 17.4800931,16.5998859 17.7064659,16.5998859 C17.9648391,16.5998859 18.0944208,16.7168254 18.0944208,16.9491243 L18.0944208,16.9491243 Z" id="Fill-13" fill="#1D2B28" mask="url(#mask-6)"></path>
                </g>
                <path d="M62.6712655,23.5001097 C62.380892,23.5001097 62.1695316,23.9003117 62.0407401,24.7003204 C61.6851806,26.7001449 61.0866555,28.5498442 60.24635,30.2498134 C59.5016505,31.7170888 58.4345771,32.8754225 57.0443396,33.7248145 C55.6529169,34.5746016 54.1169,35.0000878 52.4358939,35.0000878 C49.1686976,35.0000878 46.5494096,33.66753 44.5772398,31.000439 C42.3131162,27.9339362 41.1812519,23.6174444 41.1812519,18.0497783 C41.1812519,11.816821 42.5552917,7.08353452 45.3049515,3.85070892 C46.8239805,2.05039287 48.8949168,1.15003731 51.5138098,1.15003731 C54.9101927,1.15003731 57.4002941,2.48378034 58.984509,5.14968614 C59.7608138,6.45024362 60.3589439,8.43347526 60.7792941,11.0997761 C60.8768755,11.7338572 61.0866555,12.04991 61.4106097,12.04991 C61.5714016,12.04991 61.7009833,12.0001317 61.7985646,11.8997849 C61.8949607,11.8002283 61.9435538,11.433607 61.9435538,10.8003161 C61.9435538,6.4004653 62.1213336,3.39993855 62.4772881,1.79992099 C62.5416839,1.50046091 62.5748694,1.28356964 62.5748694,1.15003731 C62.5748694,0.883762785 62.4448927,0.750230455 62.1865195,0.750230455 C61.9273561,0.750230455 61.5875993,1.21759361 61.167249,2.14994952 C60.9088758,2.68368377 60.6343049,2.9499583 60.3427461,2.9499583 C59.9867916,2.9499583 59.4530574,2.7334621 58.7423335,2.30046969 C57.2865151,1.43408981 56.0657609,0.858478557 55.079281,0.575611255 C54.3013959,0.352398929 53.3089899,0.220051798 52.1182608,0.17264387 C52.7728853,0.0956059874 53.4354111,0.0466177955 54.1097889,0.0466177955 L35.21931,0.0466177955 L20.8061147,0.0466177955 L14.9626926,6.06939994 L3.84197796,17.5314516 L19.3558272,17.5314516 C19.5683728,16.0124226 20.8242878,14.8414468 22.356749,14.8414468 C24.0385453,14.8414468 25.4015232,16.2463017 25.4015232,17.9794566 C25.4015232,19.7130065 24.0385453,21.1178614 22.356749,21.1178614 C20.8242878,21.1178614 19.5683728,19.9468856 19.3558272,18.4278565 L3.84197796,18.4278565 L14.9626926,29.8895132 L20.8057197,35.9122953 L35.21931,35.9122953 L50.4455511,35.9122953 C51.031039,35.9691848 51.629169,36 52.2419165,36 C52.6049822,36 52.9407884,35.9383697 53.2927922,35.9122953 L54.1097889,35.9122953 C53.9403055,35.9122953 53.775563,35.8913568 53.6068698,35.886221 C56.2854177,35.6266626 58.6423818,34.6468987 60.6343049,32.8497432 C61.0866555,33.183574 61.5394013,33.8998288 61.992542,35.0000878 C62.1865195,35.5006365 62.4121022,35.7503182 62.6712655,35.7503182 C62.9296387,35.7503182 63.0592204,35.5326368 63.0592204,35.0996444 L63.0592204,34.6496642 C63.0592204,33.7836794 63.0272201,33.0421404 62.9628243,32.4246521 C62.8976384,31.8087441 62.865243,31.4002458 62.865243,31.2003424 C62.865243,29.4004214 62.9296387,27.5341293 63.0592204,25.600676 C63.1236162,24.6339493 63.1568017,24.1839691 63.1568017,24.2503402 C63.1568017,23.7497915 62.9940345,23.5001097 62.6712655,23.5001097" id="Fill-16" fill="#1D2B28"></path>
                <path d="M3.04477415,17.9795356 C3.04477415,18.8463105 2.36328519,19.548738 1.52218954,19.548738 C0.68148896,19.548738 0,18.8463105 0,17.9795356 C0,17.1127606 0.68148896,16.4103332 1.52218954,16.4103332 C2.36328519,16.4103332 3.04477415,17.1127606 3.04477415,17.9795356" id="Fill-18" fill="#1D2B28"></path>
            </g>
        </g>
    </g>
</svg>