<svg width="272" height="389" viewBox="0 0 272 389" fill="none" xmlns="http://www.w3.org/2000/svg">
<path fill-rule="evenodd" clip-rule="evenodd" d="M73.4359 361.558C73.7394 359.837 71.6254 358.172 67.0924 356.586C55.7964 352.421 45.6302 346.97 36.5902 340.241C28.808 334.317 23.1651 326.801 19.6625 317.687C16.1588 308.565 15.2817 299.023 17.0386 289.059C20.4533 269.693 30.9654 255.539 48.5873 246.593C68.8446 236.328 95.2114 234.059 127.695 239.787C164.06 246.199 190.24 259.213 206.227 278.837C215.143 289.693 218.232 302.894 215.495 318.417C211.945 338.548 201.561 351.936 184.352 358.583C175.952 361.847 163.756 363.352 147.761 363.1C143.96 363.026 141.896 363.945 141.558 365.865C141.39 366.818 141.545 367.637 142.028 368.319C142.508 368.993 144.596 369.658 148.291 370.309C173.961 374.836 191.282 378.976 200.245 382.732C201.925 383.422 203.155 383.842 203.934 383.979C205.488 384.253 206.403 383.62 206.673 382.088C206.944 380.552 204.572 378.058 199.572 374.607C196.728 372.526 195.461 370.625 195.766 368.897C196.138 366.787 197.959 363.846 201.228 360.079C207.804 352.341 212.438 345.698 215.12 340.141C217.235 335.76 219.044 330.014 220.566 323.005C220.331 326.965 219.924 330.942 219.219 334.939L238.963 222.97L254.026 137.538L224.995 96.7069L169.744 18.9995L153.53 110.955C162.17 113.777 167.689 122.426 166.088 131.509C164.33 141.478 154.709 148.111 144.597 146.328C134.483 144.545 127.711 135.021 129.469 125.052C131.071 115.969 139.215 109.73 148.3 110.032L164.514 18.0797L86.0202 72.2019L44.7745 100.639L29.7102 186.073L13.7967 276.323C12.8528 279.735 12.0479 283.249 11.4075 286.881C11.028 289.033 11.0367 291.086 10.8209 293.2L9.96701 298.042C10.1441 297.038 10.4385 296.083 10.6448 295.088C9.35965 311.232 12.6126 326.21 21.0159 339.866C18.5955 342.203 13.9434 344.15 7.05053 345.704C3.92743 346.339 2.23493 347.419 1.96407 348.955C1.69404 350.487 2.82864 351.479 5.35486 351.924L7.98019 352.387C13.0326 353.278 17.3925 353.851 21.0624 354.105C24.7239 354.352 27.1411 354.58 28.3074 354.786C38.8088 356.638 49.63 358.939 60.775 361.696C66.3479 363.073 68.9386 363.732 68.5513 363.664C71.4717 364.179 73.0985 363.471 73.4359 361.558" fill="url(#paint0_linear_326_353)"/>
<defs>
<linearGradient id="paint0_linear_326_353" x1="164.5" y1="27" x2="104.882" y2="370.07" gradientUnits="userSpaceOnUse">
<stop offset="0.00432995" stop-color="#1DF36C"/>
<stop offset="0.829514" stop-color="#016069" stop-opacity="0.76"/>
</linearGradient>
</defs>
</svg>
